<svg width="183" height="180" viewBox="0 0 183 180" fill="none" xmlns="http://www.w3.org/2000/svg">
<g style="mix-blend-mode:multiply" opacity="0.5">
<path d="M101.216 115.101C140.614 134.248 153.993 188.288 150.854 203.441C137.36 214.619 85.567 226.921 57.8153 193.418C32.2936 162.607 15.3554 110.902 15.3554 110.902C15.3554 110.902 61.8036 95.9474 101.216 115.101Z" fill="#3D5775"/>
<path d="M140.135 139.353C125.526 119.443 108.275 108.469 100.778 106.048C83.9549 65.847 149.803 8.94848 149.803 8.94848C149.803 8.94848 201.934 43.5528 209.411 100.799C216.901 158.147 181.936 183.187 158.553 190.003C159.431 180.645 154.744 159.263 140.135 139.353Z" fill="#8DB4D3"/>
</g>
</svg>
