<svg width="27" height="27" viewBox="0 0 27 27" fill="none" xmlns="http://www.w3.org/2000/svg">
<circle cx="13.2025" cy="13.2025" r="13.2025" fill="#E96458"/>
<path d="M20.5302 11.5818H13.3892V14.7327H17.4366C16.7895 16.8333 15.1913 17.5331 13.3565 17.5331C11.4023 17.5357 9.6784 16.2171 9.1168 14.2903C8.5552 12.3636 9.28918 10.2858 10.9219 9.18049C12.5546 8.07515 14.6986 8.2045 16.1947 9.49861L18.4186 7.31813C15.9554 4.98238 12.2843 4.61627 9.43141 6.42186C6.57848 8.22745 5.23875 11.7648 6.1516 15.0818C7.06445 18.3987 10.0075 20.6871 13.3565 20.684C17.4815 20.684 21.2119 17.8836 20.5302 11.5818Z" fill="white"/>
</svg>
