<?xml version="1.0" encoding="utf-8"?>
<!-- Generator: Adobe Illustrator 24.1.2, SVG Export Plug-In . SVG Version: 6.00 Build 0)  -->
<svg version="1.1" id="Capa_1" xmlns="http://www.w3.org/2000/svg" xmlns:xlink="http://www.w3.org/1999/xlink" x="0px" y="0px"
	 viewBox="0 0 286.6 96.2" style="enable-background:new 0 0 286.6 96.2;" xml:space="preserve">
<style type="text/css">
	.st0{fill:#51BA8F;}
	.st1{fill:#A6ED9A;}
</style>
<g>
	<path class="st0" d="M48.4,37.5c0,0-12.2-10.3-26.2-5.2C13,35.6,5.2,50,5.2,50s17.8,7.6,28.4,4.5C45.6,51,48.4,37.5,48.4,37.5z"/>
	<path class="st1" d="M47.3,33.1c0,0-6.5-5.2-14.8-4.9c-8.3,0.3-13.4,2.7-13.4,2.7s-5.7-3.5-8.1-8.3C7,14.7,7.7,3.7,7.7,3.7
		s19-4.5,31.4,4.8S47.3,33.1,47.3,33.1z"/>
	<g>
		<path d="M91.6,53.2c-0.1-2.3-1.9-4.2-4.2-4.2c-6.4,0-12.8,0.2-19.2,0c-0.4,0-0.8-0.1-1.2-0.1c0.1,0,0,0-0.3,0c-0.1,0-0.2,0-0.2,0
			c0.1,0,0.1,0,0.1,0s0,0-0.1,0c-0.3-0.1-0.6-0.1-0.9-0.2c-0.3-0.1-0.5-0.1-0.8-0.2c-0.2-0.1-0.4-0.1-0.5-0.2
			c-0.1,0-0.2-0.1-0.2-0.1l0,0c-0.2-0.1-0.3-0.2-0.5-0.3l0,0c0,0,0,0,0,0.1c0,0-0.1-0.1-0.2-0.1l0,0l0,0l0,0l0,0l0,0
			c-0.1-0.3-0.5-1-0.4-0.8c-0.2-0.6-0.4-1.2-0.5-1.8c0-0.1-0.1-0.3-0.1-0.6c0,0,0-0.1,0-0.2c0-0.2,0-0.3,0-0.5
			c-0.2-2.8-0.1-5.7-0.1-8.5c0-3.8,0-7.6,0-11.4c0-2.2-2-4.4-4.2-4.2c-2.3,0.1-4.2,1.9-4.2,4.2c0,3.4,0,6.8,0,10.2
			c0,3-0.1,6.1,0,9.1c0.2,3.6,1,7.9,3.7,10.5c2.5,2.5,6.1,3.2,9.5,3.6c2.8,0.3,5.6,0.1,8.4,0.1c4,0,8,0,12,0
			C89.6,57.4,91.7,55.5,91.6,53.2z M62.2,44c0,0,0,0.1,0,0.3C62.2,44.2,62.2,44.1,62.2,44z M63.4,47.8C63.6,48,63.7,48.3,63.4,47.8
			L63.4,47.8z M63.4,47.8C63.2,47.6,63.2,47.6,63.4,47.8C63.4,47.7,63.4,47.7,63.4,47.8z M63.3,47.7C63.3,47.6,63.2,47.6,63.3,47.7
			C63.2,47.6,63.3,47.6,63.3,47.7z"/>
		<path d="M67,48.8c-0.1,0-0.2,0-0.4,0h0.1C66.8,48.8,66.9,48.8,67,48.8z"/>
		<path d="M63.4,47.8L63.4,47.8C63.5,47.8,63.4,47.8,63.4,47.8C63.4,47.7,63.4,47.7,63.4,47.8C63.4,47.7,63.4,47.8,63.4,47.8z"/>
		<path d="M115.7,28.7C115.7,28.8,115.6,28.8,115.7,28.7c0.1-0.1,0.2-0.2,0.3-0.3C115.8,28.6,115.7,28.7,115.7,28.7z"/>
		<path d="M137.9,51c-3.6-8.2-7-16.5-10.7-24.6c1,2.2,0.1,0.1-0.2-0.5c-0.3-0.6-0.6-1.1-1-1.7c-1.5-2.1-3.4-3.8-5.9-4.7
			c-5.1-1.8-10,1.4-12.4,5.8c-0.7,1.3-1.2,2.7-1.8,4.1c-1,2.4-2,4.9-3.1,7.3c-1.4,3.3-2.8,6.7-4.2,10c-0.1,0.3-0.3,0.6-0.4,0.9
			c0,0,0,0.1-0.1,0.1c0,0,0,0,0,0.1c-0.2,0.5-0.4,1-0.7,1.6c-0.2,0.5-0.4,1.1-0.7,1.5c-1.1,1.9-0.5,4.7,1.5,5.8
			c2.1,1.1,4.6,0.5,5.8-1.5c0.9-1.4,1.4-3.2,2-4.8c1.1-2.7,2.3-5.4,3.4-8.1c1.7-4,3.4-8,5-12c0.3-0.5,0.5-1,0.8-1.5
			c0.1-0.1,0.1-0.2,0.2-0.3c0,0,0,0-0.1,0c0,0,0.1,0,0.1-0.1s0.1-0.1,0.1-0.2c0.1-0.2,0.2-0.2,0.1-0.1c0.1-0.2,0.3-0.3,0.4-0.4h-0.1
			c0,0,0.1-0.1,0.3-0.2c0.2-0.2,0.2-0.2,0.2-0.1l0,0c0.1,0,0.1-0.1,0.1-0.1c-0.1,0-0.2,0.1-0.2,0c0,0,0.1,0,0.2-0.1
			c0,0,0.1,0,0.1-0.1l0,0c0,0-0.1,0-0.1,0.1c0.1,0,0.1,0,0.2-0.1h0.1c0,0,0,0,0.1,0s0.2,0,0.3,0.1c0.1,0.1,0.3,0.2,0.4,0.2l0,0
			c0.3,0.3,0.6,0.6,0.8,0.9l0,0c0.1,0.1,0.1,0.2,0.1,0.2c0.1,0.2,0.3,0.4,0.4,0.7c0.1,0.2,0.4,0.7,0.5,0.9c1.7,3.7,3.2,7.4,4.8,11.1
			c0.2,0.5,0.4,0.9,0.6,1.4c-2,0-4,0-6.1,0c-0.6,0-1.2,0-1.8,0c-2.2,0-4.4,2-4.2,4.2c0.1,2.3,1.9,4.2,4.2,4.2c3.8,0,7.7,0,11.5,0
			c0.5,1.3,1.1,2.5,1.6,3.8c0.9,2,4,2.7,5.8,1.5C138.5,55.5,138.9,53.2,137.9,51z M117,27.6C117,27.5,117,27.5,117,27.6L117,27.6z
			 M117.6,27.6c0.1,0,0.2,0,0.2,0.1C117.8,27.7,117.7,27.7,117.6,27.6z M118.6,28.5c0,0,0.1,0.1,0.2,0.2
			C118.7,28.6,118.6,28.5,118.6,28.5z"/>
		<path d="M116.8,27.7C116.8,27.7,116.8,27.6,116.8,27.7C116.8,27.6,116.8,27.6,116.8,27.7C116.8,27.6,116.8,27.7,116.8,27.7z"/>
		<path d="M116.4,27.9c0,0-0.1,0.1-0.1,0.2c0.1,0,0.3-0.2,0.3-0.3C116.6,27.8,116.5,27.8,116.4,27.9L116.4,27.9z"/>
		<path d="M163.6,27.9c0,0-0.1,0.1-0.1,0.2c0.1,0,0.3-0.2,0.3-0.3C163.7,27.8,163.7,27.8,163.6,27.9L163.6,27.9z"/>
		<path d="M185.1,51c-3.6-8.2-7-16.5-10.7-24.6c1,2.2,0.1,0.1-0.2-0.5s-0.6-1.1-1-1.7c-1.5-2.1-3.4-3.8-5.9-4.7
			c-5.1-1.8-10,1.4-12.4,5.8c-0.7,1.3-1.2,2.7-1.8,4.1c-1,2.4-2,4.9-3.1,7.3c-1.4,3.3-2.8,6.7-4.2,10c-0.1,0.3-0.3,0.6-0.4,0.9
			c0,0,0,0.1-0.1,0.1c0,0,0,0,0,0.1c-0.2,0.5-0.4,1-0.7,1.6c-0.2,0.5-0.4,1.1-0.7,1.5c-1.1,1.9-0.5,4.7,1.5,5.8
			c2.1,1.1,4.6,0.5,5.8-1.5c0.9-1.4,1.4-3.2,2-4.8c1.1-2.7,2.3-5.4,3.4-8.1c1.7-4,3.4-8,5-12c0.3-0.5,0.5-1,0.8-1.5
			c0.1-0.1,0.1-0.2,0.2-0.3c0,0,0,0-0.1,0c0,0,0.1,0,0.1-0.1s0.1-0.1,0.1-0.2c0.1-0.2,0.2-0.2,0.1-0.1c0.1-0.2,0.3-0.3,0.4-0.4h-0.1
			c0,0,0.1-0.1,0.3-0.2c0.2-0.2,0.2-0.2,0.2-0.1l0,0c0.1,0,0.1-0.1,0.1-0.1c-0.1,0-0.2,0.1-0.2,0c0,0,0.1,0,0.2-0.1
			c0,0,0.1,0,0.1-0.1l0,0c0,0-0.1,0-0.1,0.1c0.1,0,0.1,0,0.2-0.1h0.1c0,0,0,0,0.1,0s0.2,0,0.3,0.1s0.3,0.2,0.4,0.2l0,0
			c0.3,0.3,0.6,0.6,0.8,0.9l0,0c0.1,0.1,0.1,0.2,0.1,0.2c0.1,0.2,0.3,0.4,0.4,0.7c0.1,0.2,0.4,0.7,0.5,0.9c1.7,3.7,3.2,7.4,4.8,11.1
			c0.2,0.5,0.4,0.9,0.6,1.4c-2,0-4,0-6.1,0c-0.6,0-1.2,0-1.8,0c-2.2,0-4.4,2-4.2,4.2c0.1,2.3,1.9,4.2,4.2,4.2c3.8,0,7.7,0,11.5,0
			c0.5,1.3,1.1,2.5,1.6,3.8c0.9,2,4,2.7,5.8,1.5C185.7,55.5,186.1,53.2,185.1,51z M164.1,27.6C164.2,27.5,164.2,27.5,164.1,27.6
			L164.1,27.6z M164.8,27.6c0.1,0,0.2,0,0.2,0.1C164.9,27.7,164.9,27.7,164.8,27.6z M165.8,28.5c0,0,0.1,0.1,0.2,0.2
			C165.9,28.6,165.8,28.5,165.8,28.5z"/>
		<path d="M162.8,28.7C162.8,28.8,162.8,28.8,162.8,28.7c0.1-0.1,0.2-0.2,0.3-0.3C163,28.6,162.9,28.7,162.8,28.7z"/>
		<path d="M164,27.7C164,27.7,164,27.6,164,27.7C164,27.6,164,27.6,164,27.7C164,27.6,164,27.7,164,27.7z"/>
		<path d="M225.2,37.8c0,0-0.2,0.1-0.5,0.3l0,0C224.9,37.9,225.1,37.9,225.2,37.8z"/>
		<path d="M200.1,53.2c0-8,0-16,0-24c7.5,0,15,0,22.4,0c0.3,0,0.5,0,0.8,0c0.2,0,0.4,0.1,0.5,0.1c0.2,0.1,0.4,0.1,0.6,0.2
			c0.5,0.3,1.1,0.6,1.6,0.9l0,0c0,0,0.5,0.5,0.7,0.7c0.1,0.1,0.1,0.2,0.2,0.3c0.1,0.1,0.2,0.3,0.2,0.4l0,0c0.1,0.2,0.2,0.5,0.3,0.9
			c0,0,0,0.1,0,0.3s0,0.4,0,0.7c0,0.2,0,0.5,0,0.7v0.1c0,0.2-0.2,0.8-0.3,1.2c0,0,0,0,0,0.1c-0.1,0.2-0.2,0.3-0.2,0.5
			c-0.1,0.1-0.2,0.3-0.2,0.4c-0.2,0.2-0.4,0.4-0.6,0.6l-0.1,0.1c0,0,0,0-0.1,0c-0.3,0.2-0.5,0.3-0.8,0.4c0.1,0-0.1,0.1-0.4,0.2l0,0
			c-0.1,0-0.1,0.1-0.2,0.1c0.1,0,0.1-0.1,0.2-0.1c-0.1,0-0.3,0.1-0.4,0.1c-4.9-0.2-9.8,0-14.6,0c-2.2,0-4.4,2-4.2,4.2
			c0.1,2.3,1.9,4.2,4.2,4.2c4.8,0,9.6,0,14.4,0c1.9,0,3.6-0.6,5.3-1.4c4-2.1,6.3-6.1,6.7-10.5c0.4-4.8-1.8-9.2-5.8-11.8
			c-1.9-1.2-4.3-2.1-6.6-2.3c-1.3-0.1-2.7,0-4.1,0c-3,0-5.9,0-8.9,0c-5,0-9.9,0-14.9,0c-2.3,0-4.2,1.9-4.2,4.2c0,8.2,0,16.5,0,24.7
			c0,1.2,0,2.3,0,3.5c0,2.2,2,4.4,4.2,4.2C198.1,57.3,200.1,55.6,200.1,53.2z M227.3,35.7c0,0.2-0.1,0.3-0.1,0.3
			C227.1,36,227.2,35.8,227.3,35.7z M227.6,33.2c0,0,0-0.2,0-0.4C227.6,32.9,227.6,33.1,227.6,33.2z M226.9,31.1
			c0.1,0.1,0.1,0.1,0.1,0.1C226.9,31.3,226.9,31.2,226.9,31.1z M226.7,30.9C226.6,30.8,226.6,30.7,226.7,30.9L226.7,30.9z
			 M223.4,29.2c0.1,0,0.2,0,0.3,0C223.6,29.2,223.5,29.2,223.4,29.2z M222.9,29.1c0.2,0,0.3,0.1,0.5,0.1
			C222.8,29.2,222.3,29,222.9,29.1z"/>
		<path d="M251,33.6c0.1,0.1,0.2,0.1,0.3,0.2C251.3,33.7,251.2,33.5,251,33.6C251,33.5,251,33.5,251,33.6z"/>
		<path d="M274.4,44c0,0.1,0.1,0.2,0.2,0.2l0,0C274.5,44.2,274.4,44.1,274.4,44z"/>
		<path d="M280.4,53.9c2.8-3.2,4.1-7.9,2.5-12c-1.2-3.1-3.6-5.6-6.6-7c-1.4-0.7-2.6-1-4.2-1c-2,0-4,0-6,0c-4.4,0-8.7,0-13.1,0
			c-0.2,0-0.5,0-0.7,0c-0.1,0-0.2,0-0.3,0s-0.2,0-0.4-0.1c-0.1,0-0.2-0.1-0.3-0.1c0,0,0,0-0.1,0l0,0h-0.1l0,0
			c-0.1-0.1-0.1-0.1-0.2-0.2c0,0-0.1,0-0.1-0.1l0,0l0,0l0,0c0,0,0-0.1-0.1-0.1c0,0,0,0-0.1-0.1c-0.1-0.3-0.2-0.6-0.2-0.9
			c0-0.3,0-0.6,0-0.9c0-0.2,0-0.3,0-0.5c0-0.1,0-0.1,0-0.1c0.1-0.2,0.2-0.5,0.3-0.7c0-0.1,0.1-0.1,0.1-0.2l0,0c0,0,0,0,0.1-0.1
			c0.2-0.1,0.4-0.2,0.5-0.3c0.2-0.1,0.4-0.1,0.6-0.2c0.1,0,0.2,0,0.3-0.1c0.1,0,0.3,0,0.4,0c0.2,0,0.3,0,0.5,0c8.1,0,16.3,0,24.4,0
			c0.3,0,0.5,0,0.8,0c2.2,0,4.4-2,4.2-4.2c-0.1-2.3-1.9-4.2-4.2-4.2c-7.8,0-15.7,0-23.5,0c-2.9,0-5.9,0.1-8.4,1.8
			c-6.7,4.5-6,15.9,1.6,19.1c2.7,1.1,5.7,0.9,8.6,0.9c4.7,0,9.5,0,14.2,0c0.5,0,0.9,0,1.4,0c0,0,0.1,0,0.1,0.1
			c0.2,0.1,0.5,0.2,0.7,0.4c0.1,0.1,0.4,0.3,0.6,0.4c0.1,0.1,0.3,0.2,0.3,0.3c0.1,0.1,0.2,0.2,0.3,0.4c-0.1-0.1-0.1-0.2,0.1,0
			c0,0.1,0.1,0.1,0.1,0.2c0,0,0.1,0,0.1,0.1c0,0,0,0-0.1,0c0.1,0.1,0.1,0.2,0.2,0.2c0,0,0.1,0.2,0.1,0.3v0.1c0,0.1,0.1,0.3,0.1,0.4
			c0,0.1,0.1,0.2,0.1,0.2c0,0.3,0,0.6-0.1,0.8s-0.1,0.4-0.1,0.6c0,0.1-0.1,0.2-0.1,0.3c-0.1,0.1-0.4,0.6-0.5,0.8
			c-0.1,0.1-0.1,0.1-0.2,0.2c-0.2,0.2-0.3,0.3-0.5,0.5l-0.1,0.1c-0.1,0.1-0.2,0.1-0.3,0.2c-8.3,0-16.6,0-24.9,0c-0.2,0-0.5,0-0.7,0
			c-2.2,0-4.4,2-4.2,4.2c0.1,2.3,1.9,4.2,4.2,4.2c7.9,0,15.8,0,23.7,0c1,0,2,0.1,2.9,0C276.5,57.3,278.9,55.6,280.4,53.9z M251,29.8
			C251,29.8,250.9,29.8,251,29.8C251,29.7,251.2,29.6,251,29.8z M250.6,30.4C250.5,30.6,250.5,30.7,250.6,30.4L250.6,30.4z
			 M250.5,30.8c0,0.1,0,0.3,0,0.3C250.5,31.1,250.5,31,250.5,30.8z M251.3,33.8c0,0,0.1,0,0.1,0.1C251.4,33.9,251.3,33.8,251.3,33.8
			z M274.9,44.8c0,0.1,0.1,0.1,0.1,0.1C275,45,275,44.9,274.9,44.8z M275,45.1c0.1,0.1,0.1,0.2,0.1,0.3
			C275.1,45.3,275,45.1,275,45.1z M275.1,46.1C275.1,46,275.1,46,275.1,46.1L275.1,46.1z M274.5,47.8
			C274.6,47.7,274.6,47.7,274.5,47.8L274.5,47.8z M274.2,48.9c0,0-0.2,0-0.5,0C274,48.9,274.2,48.9,274.2,48.9z M272.4,49.4
			C272.2,49.5,272.1,49.5,272.4,49.4L272.4,49.4z"/>
	</g>
</g>
<g>
	<path d="M191,67.5l3,12.8l0.6,3.6l0.6-3.5l2.5-12.9h4.9l2.7,12.8l0.7,3.6l0.7-3.4l3-13h4.8l-6.3,22.4h-4.5L201,76.8l-0.8-4.3
		l-0.8,4.3l-2.7,13.1h-4.3L186,67.5H191z"/>
	<path d="M234.6,87.9c-1.7,1.7-4.1,2.6-7.3,2.6c-3.2,0-5.6-0.9-7.3-2.6c-2.3-2.1-3.4-5.2-3.4-9.2c0-4.1,1.1-7.2,3.4-9.2
		c1.7-1.7,4.1-2.6,7.3-2.6c3.2,0,5.6,0.9,7.3,2.6c2.3,2.1,3.4,5.1,3.4,9.2C238,82.7,236.8,85.7,234.6,87.9z M231.7,84.5
		c1.1-1.4,1.6-3.3,1.6-5.8c0-2.5-0.5-4.5-1.6-5.8s-2.6-2.1-4.4-2.1c-1.9,0-3.3,0.7-4.4,2.1s-1.7,3.3-1.7,5.8s0.6,4.5,1.7,5.8
		c1.1,1.4,2.6,2.1,4.4,2.1C229.1,86.5,230.6,85.8,231.7,84.5z"/>
	<path d="M255.9,68.1c0.8,0.4,1.5,0.9,2.1,1.6c0.5,0.6,0.8,1.2,1.1,1.9c0.3,0.7,0.4,1.5,0.4,2.4c0,1.1-0.3,2.1-0.8,3.1
		s-1.4,1.8-2.7,2.2c1,0.4,1.8,1,2.2,1.8c0.4,0.8,0.6,1.9,0.6,3.5V86c0,1,0,1.7,0.1,2.1c0.1,0.6,0.4,1,0.9,1.3v0.6h-5.2
		c-0.1-0.5-0.2-0.9-0.3-1.2c-0.1-0.6-0.2-1.3-0.2-1.9l0-2.1c0-1.4-0.3-2.4-0.7-2.9c-0.5-0.5-1.4-0.7-2.7-0.7h-4.6v8.8h-4.6V67.5
		h10.7C253.9,67.5,255.1,67.7,255.9,68.1z M246.2,71.4v6h5c1,0,1.8-0.1,2.3-0.4c0.9-0.4,1.3-1.3,1.3-2.5c0-1.4-0.4-2.3-1.3-2.7
		c-0.5-0.3-1.2-0.4-2.2-0.4H246.2z"/>
	<path d="M264.1,67.5h4.6v9.2l8.7-9.2h6l-9.2,9.2l9.7,13.2h-6l-6.9-9.8l-2.3,2.3v7.5h-4.6V67.5z"/>
</g>
</svg>
