<?xml version="1.0" encoding="utf-8"?>
<!-- Generator: Adobe Illustrator 24.1.2, SVG Export Plug-In . SVG Version: 6.00 Build 0)  -->
<svg version="1.1" id="Capa_1" xmlns="http://www.w3.org/2000/svg" xmlns:xlink="http://www.w3.org/1999/xlink" x="0px" y="0px"
	 viewBox="0 0 360 62" style="enable-background:new 0 0 360 62;" xml:space="preserve">
<style type="text/css">
	.st0{fill:#51BA8F;}
	.st1{fill:#A6ED9A;}
</style>
<g>
	<path class="st0" d="M47.2,47.2c0,0-5.5-4.6-11.8-2.3c-4.1,1.5-7.6,8-7.6,8s8,3.4,12.8,2C45.9,53.3,47.2,47.2,47.2,47.2z"/>
	<path class="st1" d="M46.7,45.2c0,0-2.9-2.3-6.7-2.2s-6,1.2-6,1.2s-2.6-1.6-3.6-3.7c-1.8-3.6-1.5-8.5-1.5-8.5s8.5-2,14.1,2.2
		S46.7,45.2,46.7,45.2z"/>
	<g>
		<path d="M66.6,54.2c0-1-0.9-1.9-1.9-1.9c-2.9,0-5.8,0.1-8.6,0c-0.2,0-0.4,0-0.5,0c0,0,0,0-0.1,0c0,0-0.1,0-0.1,0c0,0,0,0,0,0
			s0,0,0,0c-0.1,0-0.3,0-0.4-0.1s-0.2,0-0.4-0.1c-0.1,0-0.2,0-0.2-0.1c0,0-0.1,0-0.1,0l0,0c-0.1,0-0.1-0.1-0.2-0.1l0,0c0,0,0,0,0,0
			c0,0,0,0-0.1,0l0,0l0,0l0,0l0,0l0,0c0-0.1-0.2-0.4-0.2-0.4c-0.1-0.3-0.2-0.5-0.2-0.8c0,0,0-0.1,0-0.3c0,0,0,0,0-0.1
			c0-0.1,0-0.1,0-0.2c-0.1-1.3,0-2.6,0-3.8c0-1.7,0-3.4,0-5.1c0-1-0.9-2-1.9-1.9c-1,0-1.9,0.9-1.9,1.9c0,1.5,0,3.1,0,4.6
			c0,1.3,0,2.7,0,4.1c0.1,1.6,0.4,3.6,1.7,4.7c1.1,1.1,2.7,1.4,4.3,1.6c1.3,0.1,2.5,0,3.8,0c1.8,0,3.6,0,5.4,0
			C65.7,56.1,66.7,55.3,66.6,54.2z M53.4,50.1c0,0,0,0,0,0.1C53.4,50.2,53.4,50.1,53.4,50.1z M53.9,51.8C54,51.9,54.1,52,53.9,51.8
			L53.9,51.8z M53.9,51.8C53.9,51.7,53.9,51.7,53.9,51.8C53.9,51.8,53.9,51.8,53.9,51.8z M53.9,51.8C53.9,51.7,53.9,51.7,53.9,51.8
			C53.9,51.7,53.9,51.7,53.9,51.8z"/>
		<path d="M55.6,52.3c0,0-0.1,0-0.2,0h0C55.5,52.3,55.5,52.3,55.6,52.3z"/>
		<path d="M53.9,51.8L53.9,51.8C54,51.8,53.9,51.8,53.9,51.8C53.9,51.8,53.9,51.8,53.9,51.8C53.9,51.8,53.9,51.8,53.9,51.8z"/>
		<path d="M77.5,43.2C77.5,43.3,77.4,43.3,77.5,43.2c0,0,0.1-0.1,0.1-0.1C77.5,43.2,77.5,43.2,77.5,43.2z"/>
		<path d="M87.5,53.3c-1.6-3.7-3.1-7.4-4.8-11.1c0.4,1,0,0-0.1-0.2c-0.1-0.3-0.3-0.5-0.4-0.8c-0.7-0.9-1.5-1.7-2.7-2.1
			c-2.3-0.8-4.5,0.6-5.6,2.6c-0.3,0.6-0.5,1.2-0.8,1.8c-0.4,1.1-0.9,2.2-1.4,3.3c-0.6,1.5-1.3,3-1.9,4.5c0,0.1-0.1,0.3-0.2,0.4
			c0,0,0,0,0,0c0,0,0,0,0,0c-0.1,0.2-0.2,0.4-0.3,0.7c-0.1,0.2-0.2,0.5-0.3,0.7c-0.5,0.9-0.2,2.1,0.7,2.6c0.9,0.5,2.1,0.2,2.6-0.7
			c0.4-0.6,0.6-1.4,0.9-2.2c0.5-1.2,1-2.4,1.5-3.6c0.8-1.8,1.5-3.6,2.2-5.4c0.1-0.2,0.2-0.4,0.4-0.7c0,0,0-0.1,0.1-0.1c0,0,0,0,0,0
			c0,0,0,0,0,0s0,0,0-0.1c0-0.1,0.1-0.1,0,0c0-0.1,0.1-0.1,0.2-0.2h0c0,0,0,0,0.1-0.1c0.1-0.1,0.1-0.1,0.1,0l0,0c0,0,0,0,0,0
			c0,0-0.1,0-0.1,0c0,0,0,0,0.1,0c0,0,0,0,0,0l0,0c0,0,0,0,0,0c0,0,0,0,0.1,0h0c0,0,0,0,0,0s0.1,0,0.1,0c0,0,0.1,0.1,0.2,0.1l0,0
			c0.1,0.1,0.3,0.3,0.4,0.4l0,0c0,0,0,0.1,0,0.1c0,0.1,0.1,0.2,0.2,0.3c0,0.1,0.2,0.3,0.2,0.4c0.8,1.7,1.4,3.3,2.2,5
			c0.1,0.2,0.2,0.4,0.3,0.6c-0.9,0-1.8,0-2.7,0c-0.3,0-0.5,0-0.8,0c-1,0-2,0.9-1.9,1.9c0,1,0.9,1.9,1.9,1.9c1.7,0,3.5,0,5.2,0
			c0.2,0.6,0.5,1.1,0.7,1.7c0.4,0.9,1.8,1.2,2.6,0.7C87.7,55.3,87.9,54.2,87.5,53.3z M78.1,42.7C78.1,42.7,78.1,42.7,78.1,42.7
			L78.1,42.7z M78.3,42.7C78.4,42.7,78.4,42.7,78.3,42.7C78.4,42.8,78.4,42.8,78.3,42.7z M78.8,43.1C78.8,43.1,78.8,43.2,78.8,43.1
			C78.8,43.2,78.8,43.1,78.8,43.1z"/>
		<path d="M78,42.8C78,42.8,78,42.7,78,42.8C78,42.7,78,42.7,78,42.8C78,42.7,78,42.8,78,42.8z"/>
		<path d="M77.8,42.9C77.8,42.9,77.7,42.9,77.8,42.9C77.8,43,77.9,42.9,77.8,42.9C77.9,42.8,77.8,42.8,77.8,42.9L77.8,42.9z"/>
		<path d="M99,42.9C99,42.9,99,42.9,99,42.9C99,43,99.1,42.9,99,42.9C99.1,42.8,99.1,42.8,99,42.9L99,42.9z"/>
		<path d="M108.7,53.3c-1.6-3.7-3.1-7.4-4.8-11.1c0.4,1,0,0-0.1-0.2c-0.1-0.3-0.3-0.5-0.4-0.8c-0.7-0.9-1.5-1.7-2.7-2.1
			c-2.3-0.8-4.5,0.6-5.6,2.6c-0.3,0.6-0.5,1.2-0.8,1.8c-0.4,1.1-0.9,2.2-1.4,3.3c-0.6,1.5-1.3,3-1.9,4.5c0,0.1-0.1,0.3-0.2,0.4
			c0,0,0,0,0,0c0,0,0,0,0,0c-0.1,0.2-0.2,0.4-0.3,0.7c-0.1,0.2-0.2,0.5-0.3,0.7c-0.5,0.9-0.2,2.1,0.7,2.6c0.9,0.5,2.1,0.2,2.6-0.7
			c0.4-0.6,0.6-1.4,0.9-2.2c0.5-1.2,1-2.4,1.5-3.6c0.8-1.8,1.5-3.6,2.2-5.4c0.1-0.2,0.2-0.4,0.4-0.7c0,0,0-0.1,0.1-0.1c0,0,0,0,0,0
			c0,0,0,0,0,0s0,0,0-0.1c0-0.1,0.1-0.1,0,0c0-0.1,0.1-0.1,0.2-0.2h0c0,0,0,0,0.1-0.1c0.1-0.1,0.1-0.1,0.1,0l0,0c0,0,0,0,0,0
			c0,0-0.1,0-0.1,0c0,0,0,0,0.1,0c0,0,0,0,0,0l0,0c0,0,0,0,0,0c0,0,0,0,0.1,0h0c0,0,0,0,0,0c0,0,0.1,0,0.1,0c0,0,0.1,0.1,0.2,0.1
			l0,0c0.1,0.1,0.3,0.3,0.4,0.4l0,0c0,0,0,0.1,0,0.1c0,0.1,0.1,0.2,0.2,0.3c0,0.1,0.2,0.3,0.2,0.4c0.8,1.7,1.4,3.3,2.2,5
			c0.1,0.2,0.2,0.4,0.3,0.6c-0.9,0-1.8,0-2.7,0c-0.3,0-0.5,0-0.8,0c-1,0-2,0.9-1.9,1.9c0,1,0.9,1.9,1.9,1.9c1.7,0,3.5,0,5.2,0
			c0.2,0.6,0.5,1.1,0.7,1.7c0.4,0.9,1.8,1.2,2.6,0.7C109,55.3,109.1,54.2,108.7,53.3z M99.2,42.7C99.3,42.7,99.3,42.7,99.2,42.7
			L99.2,42.7z M99.6,42.7C99.6,42.7,99.6,42.7,99.6,42.7C99.6,42.8,99.6,42.8,99.6,42.7z M100,43.1C100,43.1,100.1,43.2,100,43.1
			C100.1,43.2,100,43.1,100,43.1z"/>
		<path d="M98.7,43.2C98.7,43.3,98.7,43.3,98.7,43.2c0,0,0.1-0.1,0.1-0.1C98.7,43.2,98.7,43.2,98.7,43.2z"/>
		<path d="M99.2,42.8C99.2,42.8,99.2,42.7,99.2,42.8C99.2,42.7,99.2,42.7,99.2,42.8C99.2,42.7,99.2,42.8,99.2,42.8z"/>
		<path d="M126.7,47.3c0,0-0.1,0-0.2,0.1l0,0C126.6,47.4,126.7,47.4,126.7,47.3z"/>
		<path d="M115.4,54.2c0-3.6,0-7.2,0-10.8c3.4,0,6.7,0,10.1,0c0.1,0,0.2,0,0.4,0c0.1,0,0.2,0,0.2,0c0.1,0,0.2,0,0.3,0.1
			c0.2,0.1,0.5,0.3,0.7,0.4l0,0c0,0,0.2,0.2,0.3,0.3c0,0,0,0.1,0.1,0.1s0.1,0.1,0.1,0.2l0,0c0,0.1,0.1,0.2,0.1,0.4c0,0,0,0,0,0.1
			c0,0.1,0,0.2,0,0.3c0,0.1,0,0.2,0,0.3v0c0,0.1-0.1,0.4-0.1,0.5c0,0,0,0,0,0c0,0.1-0.1,0.1-0.1,0.2c0,0-0.1,0.1-0.1,0.2
			c-0.1,0.1-0.2,0.2-0.3,0.3l0,0c0,0,0,0,0,0c-0.1,0.1-0.2,0.1-0.4,0.2c0,0,0,0-0.2,0.1l0,0c0,0,0,0-0.1,0c0,0,0,0,0.1,0
			c0,0-0.1,0-0.2,0c-2.2-0.1-4.4,0-6.6,0c-1,0-2,0.9-1.9,1.9c0,1,0.9,1.9,1.9,1.9c2.2,0,4.3,0,6.5,0c0.9,0,1.6-0.3,2.4-0.6
			c1.8-0.9,2.8-2.7,3-4.7c0.2-2.2-0.8-4.1-2.6-5.3c-0.9-0.5-1.9-0.9-3-1c-0.6,0-1.2,0-1.8,0c-1.3,0-2.7,0-4,0c-2.2,0-4.5,0-6.7,0
			c-1,0-1.9,0.9-1.9,1.9c0,3.7,0,7.4,0,11.1c0,0.5,0,1,0,1.6c0,1,0.9,2,1.9,1.9C114.5,56.1,115.4,55.3,115.4,54.2z M127.7,46.4
			c0,0.1,0,0.1,0,0.1C127.6,46.5,127.6,46.4,127.7,46.4z M127.8,45.2c0,0,0-0.1,0-0.2C127.8,45.1,127.8,45.2,127.8,45.2z
			 M127.5,44.3C127.5,44.3,127.5,44.3,127.5,44.3C127.5,44.4,127.5,44.3,127.5,44.3z M127.4,44.2C127.4,44.2,127.4,44.1,127.4,44.2
			L127.4,44.2z M125.9,43.4c0,0,0.1,0,0.1,0C126,43.4,126,43.4,125.9,43.4z M125.7,43.4c0.1,0,0.1,0,0.2,0
			C125.7,43.4,125.4,43.4,125.7,43.4z"/>
		<path d="M138.3,45.4c0,0,0.1,0,0.1,0.1C138.5,45.5,138.4,45.4,138.3,45.4C138.3,45.4,138.3,45.4,138.3,45.4z"/>
		<path d="M148.9,50.1C148.9,50.1,148.9,50.2,148.9,50.1L148.9,50.1C148.9,50.2,148.9,50.1,148.9,50.1z"/>
		<path d="M151.6,54.6c1.3-1.4,1.8-3.6,1.1-5.4c-0.5-1.4-1.6-2.5-3-3.1c-0.6-0.3-1.2-0.4-1.9-0.4c-0.9,0-1.8,0-2.7,0
			c-2,0-3.9,0-5.9,0c-0.1,0-0.2,0-0.3,0c0,0-0.1,0-0.1,0c0,0-0.1,0-0.2,0c0,0-0.1,0-0.1,0c0,0,0,0,0,0l0,0h0l0,0c0,0,0,0-0.1-0.1
			c0,0,0,0,0,0l0,0l0,0l0,0c0,0,0,0,0,0c0,0,0,0,0,0c0-0.1-0.1-0.3-0.1-0.4s0-0.3,0-0.4c0-0.1,0-0.1,0-0.2c0,0,0,0,0,0
			c0-0.1,0.1-0.2,0.1-0.3c0,0,0,0,0-0.1l0,0c0,0,0,0,0,0c0.1,0,0.2-0.1,0.2-0.1c0.1,0,0.2,0,0.3-0.1c0,0,0.1,0,0.1,0
			c0,0,0.1,0,0.2,0c0.1,0,0.1,0,0.2,0c3.6,0,7.3,0,11,0c0.1,0,0.2,0,0.4,0c1,0,2-0.9,1.9-1.9c0-1-0.9-1.9-1.9-1.9
			c-3.5,0-7.1,0-10.6,0c-1.3,0-2.7,0-3.8,0.8c-3,2-2.7,7.2,0.7,8.6c1.2,0.5,2.6,0.4,3.9,0.4c2.1,0,4.3,0,6.4,0c0.2,0,0.4,0,0.6,0
			c0,0,0,0,0,0c0.1,0,0.2,0.1,0.3,0.2c0,0,0.2,0.1,0.3,0.2c0,0,0.1,0.1,0.1,0.1c0,0,0.1,0.1,0.1,0.2c0,0,0-0.1,0,0c0,0,0,0,0,0.1
			c0,0,0,0,0,0c0,0,0,0,0,0c0,0,0,0.1,0.1,0.1c0,0,0,0.1,0,0.1v0c0,0,0,0.1,0,0.2c0,0,0,0.1,0,0.1c0,0.1,0,0.3,0,0.4
			c0,0.1,0,0.2,0,0.3c0,0,0,0.1,0,0.1c0,0-0.2,0.3-0.2,0.4c0,0,0,0-0.1,0.1c-0.1,0.1-0.1,0.1-0.2,0.2l0,0c0,0-0.1,0-0.1,0.1
			c-3.7,0-7.5,0-11.2,0c-0.1,0-0.2,0-0.3,0c-1,0-2,0.9-1.9,1.9c0,1,0.9,1.9,1.9,1.9c3.6,0,7.1,0,10.7,0c0.4,0,0.9,0,1.3,0
			C149.8,56.1,150.9,55.3,151.6,54.6z M138.3,43.7C138.3,43.7,138.3,43.7,138.3,43.7C138.3,43.7,138.4,43.6,138.3,43.7z M138.2,44
			C138.1,44.1,138.1,44.1,138.2,44L138.2,44z M138.1,44.2c0,0,0,0.1,0,0.1S138.1,44.3,138.1,44.2z M138.5,45.5
			C138.5,45.5,138.5,45.5,138.5,45.5C138.5,45.6,138.5,45.5,138.5,45.5z M149.1,50.5C149.1,50.5,149.1,50.5,149.1,50.5
			C149.1,50.6,149.1,50.5,149.1,50.5z M149.1,50.6c0,0,0,0.1,0,0.1C149.2,50.7,149.1,50.6,149.1,50.6z M149.2,51
			C149.2,51,149.2,51,149.2,51L149.2,51z M148.9,51.8C149,51.8,149,51.8,148.9,51.8L148.9,51.8z M148.8,52.3c0,0-0.1,0-0.2,0
			C148.7,52.3,148.8,52.3,148.8,52.3z M148,52.5C147.9,52.6,147.8,52.6,148,52.5L148,52.5z"/>
	</g>
</g>
</svg>
