<?xml version="1.0" encoding="utf-8"?>
<!-- Generator: Adobe Illustrator 24.1.2, SVG Export Plug-In . SVG Version: 6.00 Build 0)  -->
<svg version="1.1" id="Capa_1" xmlns="http://www.w3.org/2000/svg" xmlns:xlink="http://www.w3.org/1999/xlink" x="0px" y="0px"
	 viewBox="0 0 278.8 171.5" style="enable-background:new 0 0 278.8 171.5;" xml:space="preserve">
<style type="text/css">
	.st0{opacity:0.1;enable-background:new    ;}
	.st1{opacity:0.15;fill:#3D5C7A;enable-background:new    ;}
	.st2{opacity:0.1;fill:#72A2D8;enable-background:new    ;}
	.st3{fill:#CED8DD;}
	.st4{fill:#C5CDD0;}
	.st5{opacity:0.1;fill:#63C9A0;enable-background:new    ;}
	.st6{fill:#63C9A0;}
	.st7{opacity:0.2;fill:#414A54;enable-background:new    ;}
	.st8{fill:#636780;}
	.st9{opacity:0.4;fill:#414A54;enable-background:new    ;}
	.st10{fill:#E8EFEE;}
	.st11{opacity:0.1;fill:#414A54;enable-background:new    ;}
	.st12{fill:#DCE0ED;}
	.st13{fill:#FBFBFF;}
	.st14{opacity:0.1;}
	.st15{opacity:0.1;fill:url(#SVGID_1_);enable-background:new    ;}
	.st16{opacity:0.3;fill:#FFFFFF;enable-background:new    ;}
</style>
<path class="st0" d="M104.2,160.1L104,160L104.2,160.1z"/>
<path class="st0" d="M104.4,160.1L104.4,160.1L104.4,160.1z"/>
<path class="st0" d="M100.9,158.7L100.9,158.7z"/>
<path class="st0" d="M100.9,158.7L100.9,158.7z"/>
<path class="st0" d="M104.2,160.1L104.2,160.1L104.2,160.1z"/>
<g>
	<path class="st1" d="M53.2,23.1v94.6c-2.2,0.6-4.4,1.1-6.7,1.4c-5.1,0.6-10.2,0.2-15.1-1.3l-0.4-0.1c-0.7-0.2-1.4-0.5-2.1-0.7
		l-0.4-0.2c-0.7-0.3-1.3-0.5-2-0.8l-0.4-0.2c-0.7-0.3-1.3-0.6-2-1c-0.2-0.1-0.5-0.2-0.7-0.4c-3.6-2-6.9-4.6-9.8-7.6
		c-0.1-0.1-0.2-0.2-0.2-0.2c-0.4-0.4-0.8-0.9-1.2-1.3c-0.1-0.2-0.3-0.3-0.4-0.5c-0.4-0.5-0.9-1.1-1.3-1.7c-0.1-0.1-0.1-0.2-0.2-0.2
		c-1.7-2.4-3.1-4.9-4.2-7.6c0-0.1-0.1-0.2-0.1-0.2c-0.3-0.9-0.6-1.7-0.9-2.6c0-0.5-0.1-0.9-0.2-1.3c0-0.1-0.1-0.2-0.1-0.3
		c-1.4-5.4-1.5-11.1-1.5-16.7c0-0.7,0-1.3,0-2c0-9.1,0.2-18.3,1.5-27.2c0-0.1,0-0.1,0-0.2c0.4-3,1.1-6,1.8-8.9h25.5V23.1h5.1V12.8
		h10.9v10.3H53.2z"/>
	<path class="st1" d="M266.2,109.4c-6.6,13.7-20.1,22.8-34,28.8c-18.8,8.1-39.4,11.3-59.8,10c-3.6-0.2-7.1-0.6-10.7-1.1
		c-12.3-1.8-24.4-5.3-35.7-10.4c-3.3-1.5-6.5-3.1-9.7-4.8c-5.3-2.9-10.3-6.2-15.1-9.9c-1.2-0.9-2.4-1.9-3.6-2.8
		c-0.8-0.7-1.6-1.4-2.4-2c-1.7-1.4-3.5-2.7-5.5-3.7c-0.6-0.3-1.2-0.6-1.8-0.8V73.9h46.3v8.6h20.3v-63h23.9v25.2h11.8V29.8h9.8V13.9
		h4.5V4.6c0.4,0.1,0.8,0.3,1.2,0.4v8.8h4.4v15.9h9.8v14.9h14.4v56.8h22.9V60.2h7.4C271.2,75.8,273.6,94.2,266.2,109.4z"/>
	<rect x="161.7" y="29" class="st1" width="10.7" height="10.7"/>
	<rect x="161.7" y="51.1" class="st1" width="10.7" height="10.7"/>
	<rect x="161.7" y="73.3" class="st1" width="10.7" height="10.7"/>
	<rect x="161.7" y="95.5" class="st1" width="10.7" height="10.7"/>
	<rect x="161.7" y="117.6" class="st1" width="10.7" height="10.7"/>
	<path class="st1" d="M172.3,139.8v8.4c-3.6-0.2-7.1-0.6-10.7-1.1v-7.3L172.3,139.8L172.3,139.8z"/>
	<rect x="91.4" y="87.7" class="st1" width="37.4" height="4.8"/>
	<rect x="91.4" y="102.4" class="st1" width="37.4" height="4.8"/>
	<path class="st1" d="M128.8,117.1v4.8h-27.6c-1.2-0.9-2.4-1.9-3.6-2.8c-0.8-0.7-1.6-1.4-2.4-2H128.8z"/>
	<path class="st1" d="M128.8,131.8v4.8h-2.9c-3.3-1.5-6.5-3.1-9.7-4.8H128.8z"/>
	<rect x="190.2" y="57.9" class="st1" width="7" height="7"/>
	<rect x="39.5" y="25.5" class="st2" width="7" height="7"/>
	<rect x="39.5" y="41.7" class="st1" width="7" height="7"/>
	<rect x="39.5" y="57.8" class="st1" width="7" height="7"/>
	<rect x="39.5" y="74" class="st1" width="7" height="7"/>
	<rect x="39.5" y="90.2" class="st1" width="7" height="7"/>
	<rect x="39.5" y="106.3" class="st1" width="7" height="7"/>
	<rect x="216.8" y="57.9" class="st1" width="7" height="7"/>
	<rect x="190.2" y="75.1" class="st1" width="7" height="7"/>
	<rect x="216.8" y="75.1" class="st1" width="7" height="7"/>
	<rect x="190.2" y="92.2" class="st1" width="7" height="7"/>
	<rect x="216.8" y="92.2" class="st1" width="7" height="7"/>
	<rect x="190.2" y="109.4" class="st1" width="7" height="7"/>
	<rect x="216.8" y="109.4" class="st1" width="7" height="7"/>
	<rect x="190.2" y="126.6" class="st1" width="7" height="7"/>
	<rect x="216.8" y="126.6" class="st1" width="7" height="7"/>
	<polygon class="st1" points="190.2,148.2 190.2,143.7 197.1,143.7 197.1,147.6 	"/>
	<path class="st1" d="M4.8,44.9v4h26.6v-4H4.8z M7.2,48.6h-2v-3.5h2V48.6z M9.5,48.6h-2v-3.5h2V48.6z M11.9,48.6h-2v-3.5h2V48.6z
		 M14.3,48.6h-2v-3.5h2V48.6z M16.6,48.6h-2v-3.5h2V48.6z M19,48.6h-2v-3.5h2V48.6z M21.4,48.6h-2v-3.5h2V48.6z M23.7,48.6h-2v-3.5
		h2V48.6z M26.1,48.6h-2v-3.5h2V48.6z M28.5,48.6h-2v-3.5h2V48.6z M31,48.6h-2.1v-3.5H31V48.6z"/>
	<path class="st1" d="M4.8,56.5v4h26.6v-4H4.8z M7.2,60.2h-2v-3.5h2V60.2z M9.5,60.2h-2v-3.5h2V60.2z M11.9,60.2h-2v-3.5h2V60.2z
		 M14.3,60.2h-2v-3.5h2V60.2z M16.6,60.2h-2v-3.5h2V60.2z M19,60.2h-2v-3.5h2V60.2z M21.4,60.2h-2v-3.5h2V60.2z M23.7,60.2h-2v-3.5
		h2V60.2z M26.1,60.2h-2v-3.5h2V60.2z M28.5,60.2h-2v-3.5h2V60.2z M31,60.2h-2.1v-3.5H31V60.2z"/>
	<path class="st1" d="M4.8,68.1v4h26.6v-4H4.8z M7.2,71.8h-2v-3.5h2V71.8z M9.5,71.8h-2v-3.5h2V71.8z M11.9,71.8h-2v-3.5h2V71.8z
		 M14.3,71.8h-2v-3.5h2V71.8z M16.6,71.8h-2v-3.5h2V71.8z M19,71.8h-2v-3.5h2V71.8z M21.4,71.8h-2v-3.5h2V71.8z M23.7,71.8h-2v-3.5
		h2V71.8z M26.1,71.8h-2v-3.5h2V71.8z M28.5,71.8h-2v-3.5h2V71.8z M31,71.8h-2.1v-3.5H31V71.8z"/>
	<path class="st1" d="M4.8,79.7v4h26.6v-4H4.8z M7.2,83.4h-2v-3.5h2V83.4z M9.5,83.4h-2v-3.5h2V83.4z M11.9,83.4h-2v-3.5h2V83.4z
		 M14.3,83.4h-2v-3.5h2V83.4z M16.6,83.4h-2v-3.5h2V83.4z M19,83.4h-2v-3.5h2V83.4z M21.4,83.4h-2v-3.5h2V83.4z M23.7,83.4h-2v-3.5
		h2V83.4z M26.1,83.4h-2v-3.5h2V83.4z M28.5,83.4h-2v-3.5h2V83.4z M31,83.4h-2.1v-3.5H31V83.4z"/>
	<path class="st1" d="M4.9,91.2C5,91.6,5.1,92,5.2,92.4v-0.9h2V95h-1c0,0.1,0.1,0.2,0.1,0.2h25.2v-4H4.9z M9.5,95h-2v-3.5h2V95z
		 M11.9,95h-2v-3.5h2V95z M14.3,95h-2v-3.5h2V95z M16.6,95h-2v-3.5h2V95z M19,95h-2v-3.5h2V95z M21.4,95h-2v-3.5h2V95z M23.7,95h-2
		v-3.5h2V95z M26.1,95h-2v-3.5h2V95z M28.5,95h-2v-3.5h2V95z M31,95h-2.1v-3.5H31V95z"/>
	<path class="st1" d="M10.4,102.8c0.1,0.1,0.1,0.2,0.2,0.2h1.3v1.7c0.1,0.2,0.3,0.3,0.4,0.5V103h2v3.5h-0.8c0.1,0.1,0.2,0.2,0.2,0.2
		h17.7v-4L10.4,102.8z M16.6,106.6h-2v-3.5h2V106.6z M19,106.6h-2v-3.5h2V106.6z M21.4,106.6h-2v-3.5h2V106.6z M23.7,106.6h-2v-3.5
		h2V106.6z M26.1,106.6h-2v-3.5h2V106.6z M28.5,106.6h-2v-3.5h2V106.6z M31,106.6h-2.1v-3.5H31V106.6z"/>
	<path class="st1" d="M23.5,114.4c0.2,0.1,0.5,0.2,0.7,0.4v-0.1h2v1.1l0.4,0.2v-1.3h2v2.1L29,117v-2.3h2v3l0.4,0.1v-3.4L23.5,114.4
		L23.5,114.4z"/>
	<path class="st1" d="M126.6,97.6"/>
	<path class="st0" d="M105.5,163l-0.2-0.1L105.5,163z"/>
	<path class="st0" d="M105.7,163.1L105.7,163.1L105.7,163.1z"/>
	<path class="st0" d="M102.1,161.6L102.1,161.6z"/>
	<path class="st0" d="M102.1,161.6L102.1,161.6z"/>
	<path class="st0" d="M105.6,163L105.6,163L105.6,163z"/>
</g>
<g>
	<path class="st3" d="M234.5,96.8l-1.7-7.1c2.2-2.7,4.5-5.2,6.9-7.6l1.7,2.8l-0.9-3.6c3.1-2.9,5.3-4.7,5.3-4.7s3.3,14.4,1.4,27.8
		l-7.3,5.7l6.7-2.4c-0.3,1.5-0.7,3-1.2,4.5c-5.2,14.8-14.1,25-20,23c-5.9-2.1-6.5-15.8-1.3-30.5c1.6-4.6,4.3-9,7.3-12.9L234.5,96.8z
		"/>
	<path class="st4" d="M252.3,111.8l4.4-5.9c3.4,0,6.8,0.2,10.2,0.5l-1.1,3.1l2.3-3c4.2,0.5,6.9,1.1,6.9,1.1s-9.1,11.8-20.6,18.9
		l-9-2.1l6.1,3.7c-1.4,0.7-2.8,1.4-4.2,1.9c-14.7,5.4-28.2,5-30.3-1s8.1-15.2,22.8-20.6c4.5-1.7,9.7-2.4,14.6-2.6L252.3,111.8z"/>
</g>
<g>
	<path class="st5" d="M18.6,112.3c0.2,0.1,0.4,0.2,0.7,0.4v-0.1h1.9v1.1l0.4,0.2v-1.3h1.9v2.1l0.4,0.2v-2.3H26v3l0.4,0.1v-3.4
		L18.6,112.3L18.6,112.3z"/>
	<path class="st6" d="M221.6,137.3l2.5,2.6l4-7l-0.4-0.8L221.6,137.3z"/>
	<path class="st7" d="M221.6,137.3l2.5,2.6l4-7l-0.4-0.8L221.6,137.3z"/>
	<path class="st8" d="M45.7,131.3c0,13.3-9.1,16.1-18.2,16.1S13.3,136.2,13.3,123s7.4-24,16.5-24C38.9,99,45.7,118.1,45.7,131.3z"/>
	<path class="st7" d="M45.7,131.3c0,13.3-9.1,16.1-18.2,16.1S13.3,136.2,13.3,123s7.4-24,16.5-24C38.9,99,45.7,118.1,45.7,131.3z"/>
	<path class="st8" d="M39.4,123.4c0,13.3-5.8,24-13.1,24c-7.2,0-13.3-10.8-13.3-24c0-1.8-0.3-3.6-0.1-5.3
		c1.3-10.7,7.2-18.7,13.4-18.7C33.6,99.4,39.4,110.1,39.4,123.4z"/>
	<path class="st6" d="M38.1,64.9c0,0-11.4,12.8-15.1,23.5l98.9,10.9l53-10.9c0,0-21-25.1-26.6-26.1C142.6,61.4,38.1,64.9,38.1,64.9z
		"/>
	<path class="st9" d="M38.1,64.9c0,0-11.4,12.8-15.1,23.5l98.9,10.9l53-10.9c0,0-21-25.1-26.6-26.1C142.6,61.4,38.1,64.9,38.1,64.9z
		"/>
	<path class="st6" d="M110.7,97.6l15.9,44.5v-11.3l4.4-12.6l12.2-5.4l15.5,7l5.5,1.7l0.5-10.3l-18.4-9.1l-8.6-4.1L118,96.3l-5.4-1
		L110.7,97.6z"/>
	<path class="st6" d="M117.8,102.2l14.4,1.7c-0.7-5.8,3.6-5.8,3.6-5.8l-14.4-2.5h-6.7"/>
	<path class="st8" d="M126.5,149h10.2l29.6-1c0,0,0.6,5.7,8.4,4.3c0,0,4.3,0.3,4.8-2.1c0.5-2.3-9.8-23.9-9.8-23.9l-14-10.4
		l-12.7-3.1l-9.1,2.7l-5.8,9.2l-3.6,12.6L126.5,149z"/>
	<path class="st7" d="M126.5,149h10.2l29.6-1c0,0,0.6,5.7,8.4,4.3c0,0,4.3,0.3,4.8-2.1c0.5-2.3-9.8-23.9-9.8-23.9l-14-10.4
		l-12.7-3.1l-9.1,2.7l-5.8,9.2l-3.6,12.6L126.5,149z"/>
	<path class="st10" d="M40.1,68c-1.5,1.2-6.1,5.5-10,14.6c-0.1,0.3-0.2,0.7-0.2,1s0.1,0.7,0.3,1c0.2,0.3,0.4,0.5,0.7,0.7
		s0.6,0.3,0.9,0.4l23.2,3c0.9,0.1,1.7-0.1,2.4-0.6s1.2-1.2,1.4-2.1l4.1-16.7c0.1-0.2,0.1-0.5,0-0.8c-0.1-0.2-0.2-0.5-0.3-0.7
		c-0.2-0.2-0.4-0.4-0.6-0.5c-0.2-0.1-0.5-0.2-0.7-0.2L41,67.5C40.8,67.6,40.4,67.8,40.1,68z"/>
	<path class="st10" d="M73.9,67.2l26.2-0.2c1.9,0,3.6,1.2,4.2,3.2l8.2,18.5c0.7,2.2-0.8,4.4-3,4.3l-38.2-2.5
		c-3.2-0.2-5.4-3.4-4.7-6.7l2.8-12.6C69.9,68.9,71.7,67.2,73.9,67.2z"/>
	<path class="st10" d="M114.6,66.9c7.2-0.1,26.1-0.7,35.6-2.8c0,0,16.2,12.2,21,21.4c0,0-25.2,6.1-42.7,7c-1.3,0.1-2.6-0.3-3.7-0.9
		c-1.1-0.7-2-1.6-2.6-2.8L113,69.5c-0.1-0.3-0.2-0.6-0.2-0.9s0.1-0.6,0.3-0.9c0.2-0.3,0.4-0.5,0.6-0.6C114,67,114.3,66.9,114.6,66.9
		z"/>
	<path class="st6" d="M126.5,142.1v6.8l-75.7-11.6c-3.7-1.3-5.9-0.5-5.9-0.5c-2.7-1.3-4.7-6.5-4.8-6.7l1.4-4.1L30,106.9l-15.4,0.6
		C17,88.1,24,87.2,24,87.2l90.7,8.4L126.5,142.1z"/>
	<path class="st11" d="M110.2,101.2c-0.6,0.7-1.7,1.2-3.7,1.2c-3.1-0.1-3.6-2.7-3.7-4.3c0-0.4,0-0.8,0-1.1l4-1.2l0.8,0.8l2.4,2.3
		c0.3,0.3,0.5,0.7,0.5,1.2C110.7,100.5,110.5,100.9,110.2,101.2z"/>
	<path class="st12" d="M110.2,101c-0.6,0.7-1.7,1.2-3.7,1.2c-3.1-0.1-3.6-2.7-3.7-4.3c0-0.4,0-0.8,0-1.1l4-1.2l0.8,0.8l2.4,2.3
		c0.3,0.3,0.5,0.7,0.5,1.2C110.7,100.3,110.5,100.7,110.2,101z"/>
	<path class="st11" d="M107.7,96.4c-0.5,1.3-2,1.7-2,1.7l-2.8-0.1c0-0.4,0-0.8,0-1.1l4-1.2L107.7,96.4z"/>
	<path class="st13" d="M97.5,86.3c0,0-6.4,0.9-4.7,6.7c1.3,4.4,4.2,4.7,5.5,4.6c0.8-0.1,1.5-0.1,2.3-0.1l5.1,0.1
		c0,0,2.9-0.7,2.1-3.6C106.9,91.1,103.2,85.8,97.5,86.3z"/>
	<path class="st7" d="M62.7,103.9c1.6,0,3-1.7,3-3.9c0-2.1-1.3-3.9-3-3.9c-1.6,0-3,1.7-3,3.9C59.7,102.2,61.1,103.9,62.7,103.9z"/>
	<path class="st11" d="M67.8,99.3l-8.4-0.9c-0.7-0.1-1.4,0.4-1.4,1.2l0,0c-0.1,0.7,0.4,1.4,1.2,1.4l8.4,0.9c0.7,0.1,1.4-0.4,1.4-1.2
		l0,0C69,100,68.5,99.4,67.8,99.3z"/>
	<path class="st13" d="M67.8,99.1l-8.4-0.9c-0.7-0.1-1.4,0.4-1.4,1.2l0,0c-0.1,0.7,0.4,1.4,1.2,1.4l8.4,0.9c0.7,0.1,1.4-0.4,1.4-1.2
		l0,0C69,99.8,68.5,99.2,67.8,99.1z"/>
	<path class="st11" d="M13.6,125.2c0,0-5.3-5.2,1.1-17.9c0,0,8.3-12.5,21.1,1.2c0,0,7.4,8.2,9.5,21.4l-5,0.1c0,0-4.8-23.3-18.9-22.1
		C21.4,107.8,11.2,109.7,13.6,125.2z"/>
	<path class="st11" d="M13.4,125.8c0,0-5.3-5.2,1.1-17.9c0,0,8.3-12.5,21.1,1.2c0,0,7.4,8.2,9.5,21.4l-5,0.1c0,0-4.8-23.3-18.9-22.1
		C21.2,108.5,11,110.3,13.4,125.8z"/>
	<path class="st6" d="M13.4,125.4c0,0-5.3-5.2,1.1-17.9c0,0,8.3-12.5,21.1,1.2c0,0,7.4,8.2,9.5,21.4l-5,0.1c0,0-4.8-23.3-18.9-22.1
		C21.2,108,11,109.9,13.4,125.4z"/>
	<path class="st7" d="M13.4,125.4c0,0-5.3-5.2,1.1-17.9c0,0,8.3-12.5,21.1,1.2c0,0,7.4,8.2,9.5,21.4l-5,0.1c0,0-4.8-23.3-18.9-22.1
		C21.2,108,11,109.9,13.4,125.4z"/>
	<path class="st11" d="M126.5,141.9v6.8l-75.7-11.6c-3.7-1.3-5.9-0.5-5.9-0.5c-2.7-1.3-4.7-6.5-4.8-6.7l5-0.1l14.6,2l52.9,7.6
		c0,0,9.4,1.1,9.9,1.5C123.1,141.4,126.5,141.9,126.5,141.9z"/>
	<path class="st6" d="M126.5,142.1v6.8l-75.7-11.6c-3.7-1.3-5.9-0.5-5.9-0.5c-2.7-1.3-4.7-6.5-4.8-6.7l5-0.1l14.6,2l52.9,7.6
		c0,0,9.4,1.1,9.9,1.5C123.1,141.6,126.5,142.1,126.5,142.1z"/>
	<path class="st7" d="M126.5,142.1v6.8l-75.7-11.6c-3.7-1.3-5.9-0.5-5.9-0.5c-2.7-1.3-4.7-6.5-4.8-6.7l5-0.1l14.6,2l52.9,7.6
		c0,0,9.4,1.1,9.9,1.5C123.1,141.6,126.5,142.1,126.5,142.1z"/>
	<path class="st7" d="M59.6,132.1c-4.7-15.1-4.5-25.6-3.4-31.8c1.1-6.7,3.4-9.9,3.4-9.9l0.2,0.1c0,0-2.3,3.2-3.4,9.8
		c-1,6.2-1.3,16.6,3.4,31.7L59.6,132.1z"/>
	<path class="st6" d="M229.4,125.5c0.2,0.7,0.6,2.6-0.1,3.2c-0.3,0.2-0.5,0.7-0.7,1.3c-0.3,1-0.5,2-0.6,3l-7.3,8.1l-12.3,4.8
		l-29.4,2L161.2,119l-39.9-23.5l10.9-0.6c10.9-0.6,41.8-7.5,41.8-7.5l35,7.7c5.7,1.2,10.7,4.5,14,9.2c4.3,6,6.2,12.4,6.2,12.4
		c0.5,0.6,0.7,1.7,0.8,2.8c0,1.8-0.4,3.9-0.6,5c-0.1,0.4-0.1,0.6-0.1,0.6S229.4,125.4,229.4,125.5z"/>
	<path class="st11" d="M122.5,140.8c0,0-2.1-22.9,13.9-29.1c0,0,22.6-9.5,35.8,16.4l6.7,14.8c0,0,1.9,3.6,7.2,3.5
		c0,0,24.7-0.7,37.8-9.1l4.1-4.7c0,0-2,6.6-4.1,8.1c0,0-8,9.4-37.2,11.1c0,0-11.9,1.3-15.5-10.1c0,0-4.9-25.7-29.7-25.5
		c0,0-14.6,0.3-14.9,25.4L122.5,140.8z"/>
	<path class="st6" d="M122.5,141.2c0,0-2.1-22.9,13.9-29.1c0,0,22.6-9.5,35.8,16.4l6.7,14.8c0,0,1.9,3.6,7.2,3.5
		c0,0,24.7-0.7,37.8-9.1l4.1-4.7c0,0-2,6.6-4.1,8.1c0,0-8,9.4-37.2,11.1c0,0-11.9,1.3-15.5-10.1c0,0-4.9-25.7-29.7-25.5
		c0,0-14.6,0.3-14.9,25.4L122.5,141.2z"/>
	<path class="st7" d="M122.5,141.2c0,0-2.1-22.9,13.9-29.1c0,0,22.6-9.5,35.8,16.4l6.7,14.8c0,0,1.9,3.6,7.2,3.5
		c0,0,24.7-0.7,37.8-9.1l4.1-4.7c0,0-2,6.6-4.1,8.1c0,0-8,9.4-37.2,11.1c0,0-11.9,1.3-15.5-10.1c0,0-4.9-25.7-29.7-25.5
		c0,0-14.6,0.3-14.9,25.4L122.5,141.2z"/>
	<path class="st7" d="M118.8,140.5l-1-31.8c0.1-2.2,0-4.3-0.2-6.5c0-0.1-0.8-3.4-1.8-5.3c-0.7-1-1.2-1.3-1.2-1.3l-0.6-0.2h0.6
		c0.4,0.1,0.9,0.5,1.2,1.2c0.7,1,1.5,2.7,2,5.5c0.3,2.1,0.4,4.3,0.2,6.5l1,31.8L118.8,140.5z"/>
	<path class="st7" d="M138.5,116.9h-0.2c0,0-0.4-2.7-1.9-4.8c-3.1-4.4-4.1-7.4-4.2-9.4c-0.1-0.7,0-1.4,0.2-2
		c0.5-1.3,1.8-2.3,3.5-2.8l0.4,0.1c-1.7,0.5-3.2,1.6-3.7,2.8c-0.2,0.6-0.3,1.3-0.2,2c0.1,1.9,1.1,4.9,4.2,9.2
		C138,114.2,138.5,116.9,138.5,116.9z"/>
	<path class="st7" d="M207,106.5c-13.6-8.1-42.5-15.7-42.8-15.8l0.1-0.2c0.3,0.1,29.2,7.7,42.8,15.8L207,106.5z"/>
	<path class="st7" d="M226.8,117.8c-5.1-9.1-19-16.5-29.7-21.2c-7.3-3.1-14.7-5.8-22.3-8l0.1-0.2c7.6,2.2,15,4.9,22.3,8.1
		c10.8,4.7,24.7,12.2,29.8,21.3H226.8z"/>
	<path class="st11" d="M227.2,115.2c1.1-0.8-0.9-5.2-4.3-9.8c-3.5-4.6-7.2-7.7-8.3-6.9c-1.1,0.8,0.9,5.2,4.3,9.8
		C222.4,113,226.1,116,227.2,115.2z"/>
	<path class="st12" d="M227.2,114.8c1.1-0.8-0.9-5.2-4.3-9.8c-3.5-4.6-7.2-7.7-8.3-6.9c-1.1,0.8,0.9,5.2,4.3,9.8
		C222.4,112.5,226.1,115.6,227.2,114.8z"/>
	<path class="st11" d="M226.3,113.4c0.7-0.5-1.1-4.1-3.9-7.9c-2.9-3.8-5.8-6.5-6.5-5.9c-0.7,0.5,1.1,4.1,3.9,7.9
		C222.7,111.2,225.6,113.9,226.3,113.4z"/>
	<path class="st13" d="M226.3,113.1c0.7-0.5-1.1-4.1-3.9-7.9c-2.9-3.8-5.8-6.5-6.5-5.9c-0.7,0.5,1.1,4.1,3.9,7.9
		C222.7,111,225.6,113.7,226.3,113.1z"/>
	<path class="st11" d="M195.1,122.9c0,0,0.7-5.2,4.8-6.4c0,0,14-4.1,17.1-4.1c0,0,3.2-1,5.2,1.4l2.1,2.9c0,0,1.5,2.4-1.8,2.8
		c0,0-16.9,6.2-24.3,6.9c-0.4,0-0.8,0.1-1.2,0.2C196,126.7,193.7,126.7,195.1,122.9z"/>
	<path class="st13" d="M195.4,122.7c0,0,0.7-5.2,4.8-6.4c0,0,14-4.1,17.1-4.1c0,0,3.2-1,5.2,1.4l2.1,2.9c0,0,1.5,2.4-1.8,2.8
		c0,0-16.9,6.2-24.3,6.9c-0.4,0-0.8,0.1-1.2,0.2C196.2,126.4,193.9,126.5,195.4,122.7z"/>
	<path class="st11" d="M196.8,122.2c0,0,0.6-4.5,4.5-5.5c0,0,13-3.5,15.9-3.5c0,0,2.9-0.8,4.9,1.2l2,2.5c0,0,1.4,2-1.7,2.4
		c0,0-15.7,5.3-22.6,5.9c-0.4,0-0.8,0.1-1.1,0.2C197.6,125.4,195.5,125.5,196.8,122.2z"/>
	<path class="st8" d="M197,122c0,0,0.6-4.5,4.5-5.5c0,0,13-3.5,15.9-3.5c0,0,2.9-0.8,4.9,1.2l2,2.5c0,0,1.4,2-1.7,2.4
		c0,0-15.7,5.3-22.6,5.9c-0.4,0-0.8,0.1-1.1,0.2C197.8,125.2,195.7,125.3,197,122z"/>
	<path class="st13" d="M198.1,119.2V119c0.2,0,19.2-2.4,23.3-5.5l0.1,0.2C217.4,116.8,198.9,119.1,198.1,119.2z"/>
	<path class="st13" d="M197.1,121.7v-0.2c0.2,0,21.1-3.9,25.7-6.7l0.1,0.2C218.3,117.8,197.4,121.7,197.1,121.7z"/>
	<path class="st13" d="M196.7,123.7v-0.2c0.2,0,24.3-4.6,27.3-7.3l0.1,0.2C221.1,119.1,197.6,123.5,196.7,123.7z"/>
	<path class="st11" d="M221.7,123.8c0,0-9.1,3.8-18.6,5.5c-0.8,0.2-1.7,0.3-2.5,0.6c-1,0.3-2.3,0.6-3.1,0.4
		c-1.2-0.3-1.9,1.2-0.6,2.4l0.1,0.1c0.5,0.4,1,0.7,1.6,0.9s1.2,0.3,1.9,0.2l2-0.2c0,0,16.6-3.6,21.2-6.5c0,0,2.1-1.4,2.3-3.1
		c0.2-1.6,0.4-2.9-1.3-1.9C223.1,123.1,221.7,123.8,221.7,123.8z"/>
	<path class="st13" d="M221.9,123.6c-0.3,0.1-9.3,3.8-18.6,5.5c-0.8,0.2-1.7,0.3-2.5,0.6c-1,0.3-2.3,0.6-3.1,0.4
		c-1.2-0.3-1.9,1.2-0.6,2.4l0,0c0.5,0.4,1.1,0.8,1.7,1c0.6,0.2,1.3,0.3,1.9,0.2l2-0.2l0,0c0.6-0.1,16.6-3.7,21.2-6.5l0,0
		c0.1-0.1,2.1-1.5,2.3-3.1s0.4-2.9-1.3-1.9C223.4,122.9,222.1,123.6,221.9,123.6L221.9,123.6z"/>
	<path class="st11" d="M220.7,124.8c0,0-7.5,3.1-15.5,4.9c-0.8,0.2-1.6,0.4-2.4,0.6c-0.8,0.2-1.9,0.5-2.5,0.4
		c-1.1-0.1-1.6,0.9-0.4,1.6l0,0c0.9,0.5,2,0.8,3,0.6l1.8-0.2c0,0,14-3.5,17.8-5.7c0,0,1.7-1.1,1.8-2.2c0-1.1,0.2-2-1.2-1.2
		C221.8,124.3,220.7,124.8,220.7,124.8z"/>
	<path class="st8" d="M220.9,124.6c-0.2,0.1-7.5,3.1-15.4,4.9c-0.8,0.2-1.6,0.4-2.4,0.6c-0.8,0.2-1.9,0.5-2.5,0.4
		c-1.1-0.1-1.6,0.9-0.4,1.6c0.9,0.6,2,0.8,3.1,0.6l1.8-0.2c0.3-0.1,14-3.5,17.8-5.7c0.1,0,1.7-1.1,1.8-2.2c0-1.1,0.2-2-1.2-1.2
		S221,124.6,220.9,124.6L220.9,124.6z"/>
	<path class="st11" d="M190.5,133.8c0.1-1.6-0.8-2.9-1.9-2.9c-1.1-0.1-2.1,1.2-2.2,2.7c-0.1,1.6,0.8,2.9,1.9,2.9
		C189.5,136.6,190.5,135.3,190.5,133.8z"/>
	<path class="st13" d="M190.5,133.8c0.1-1.5-0.8-2.9-1.9-2.9c-1.1-0.1-2.1,1.2-2.2,2.7c-0.1,1.5,0.8,2.9,1.9,2.9
		S190.4,135.3,190.5,133.8z"/>
	<path class="st11" d="M200.7,135.8c0,0-10.9,1.7-13.8,1.8c-2.9,0.2-3.3,1.8-3.3,1.8s-0.7,4.1,3.3,2.9l14.2-1.6c0,0,1.9,0.1,1.9-2.6
		v-0.6c0-0.3,0-0.7,0.1-1C203.2,136.1,203,135.5,200.7,135.8z"/>
	<path class="st13" d="M200.9,135.6c0,0-10.9,1.7-13.8,1.8c-2.9,0.2-3.3,1.8-3.3,1.8s-0.7,4.1,3.3,2.9l14.2-1.6c0,0,1.9,0.1,1.9-2.6
		v-0.6c0-0.3,0-0.7,0.1-1C203.5,135.9,203.2,135.3,200.9,135.6z"/>
	<path class="st13" d="M229.3,128.7c-0.3,0.2-0.5,0.7-0.7,1.3l-3.5,2.5c0,0-0.1,0-0.1,0.1c-0.1,0-0.1,0-0.2,0l-0.1-0.1v-0.1v-2.6
		c0-0.4,0.1-0.7,0.3-1.1c0.2-0.3,0.5-0.6,0.8-0.8l3.7-2.2C229.6,126.2,230,128.2,229.3,128.7z"/>
	<path class="st8" d="M204.4,135.9l-0.2,2.7c0,0.3,0,0.5,0.1,0.8c0.1,0.2,0.2,0.5,0.4,0.7s0.4,0.3,0.7,0.4c0.3,0.1,0.5,0.1,0.8,0.1
		c6-1,11.8-3,17-6.1l0.5-5.4c0-0.1,0-0.3-0.1-0.4c-0.1-0.1-0.1-0.2-0.2-0.3c-0.1-0.1-0.2-0.1-0.4-0.1c-0.1,0-0.3,0-0.4,0.1
		c-3,1.3-11,4.7-16,5.4c-0.6,0.1-1.1,0.4-1.5,0.8C204.6,134.8,204.4,135.4,204.4,135.9z"/>
	<path class="st6" d="M206,134.6v4.3c0,0,13.3-3.1,16.2-5.2v-4.1C217,131.9,211.6,133.6,206,134.6z"/>
	<path class="st6" d="M229.3,124.9c-0.7,0-1.2-1.2-1.2-2.6s0.6-2.6,1.2-2.6c0.1,0,0.2,0,0.3,0.1c0.1,0,0.2,0.1,0.3,0.2
		C229.9,121.8,229.5,123.9,229.3,124.9z"/>
	<path class="st13" d="M229.5,124.7c-0.7,0-1.2-1.2-1.2-2.6s0.6-2.6,1.2-2.6c0.1,0,0.2,0,0.3,0.1c0.1,0,0.2,0.1,0.3,0.2
		C230.1,121.6,229.7,123.7,229.5,124.7z"/>
	<path class="st8" d="M168.4,143c0,23.5-9.9,24-22.9,24c-10.4,0-14.6-10.8-14.6-24c0-13.3,3.3-24,13.7-24S168.4,129.7,168.4,143z"/>
	<path class="st7" d="M168.4,143c0,23.5-9.9,24-22.9,24c-10.4,0-14.6-10.8-14.6-24c0-13.3,3.3-24,13.7-24S168.4,129.7,168.4,143z"/>
	<path class="st8" d="M144,167c7.2,0,13.1-10.8,13.1-24c0-13.3-5.8-24-13.1-24c-7.2,0-13.1,10.8-13.1,24
		C131,156.2,136.8,167,144,167z"/>
	<path class="st13" d="M32.1,128.7c0,7.2-2.1,13-6.4,13s-9.5-5.8-9.5-13.1c0-7.2,1.8-13.6,6.1-13.6S32.1,121.5,32.1,128.7z"/>
	<path class="st8" d="M32.1,128.4c0,0.5,0,1.1,0,1.6c-0.1,1.4-0.3,2.8-0.6,4.1c-0.7,2.7-2,4.5-3.9,4.8c-0.2,0-0.4,0.1-0.7,0.1
		c-1,0-2-0.3-2.8-0.9c-1.8-1.1-3.4-3.3-4.3-5.9c-0.3-1-0.5-2-0.6-3c0-0.3,0-0.6,0-0.8c0-2,0.2-3.9,0.6-5.8c0.2-1.2,0.7-2.3,1.3-3.3
		c0.8-1.2,1.8-1.9,3.1-1.9c1,0,1.9,0.4,2.7,0.9c1.2,0.8,2.2,1.9,3,3.1C31.3,123.4,32.1,125.9,32.1,128.4z"/>
	<path class="st13" d="M32.1,130c-0.1,1.4-0.3,2.8-0.6,4.1c-0.1-0.1-2.5-2.9-4.4-1.1c-1.4,1.3-0.2,4.4,0.5,6c-0.2,0-0.4,0.1-0.7,0.1
		c-1,0-2-0.3-2.8-0.9V138c0,0,1.1-3.4-1.8-5.5c0,0-1.4-0.6-2.5-0.2c-0.3-1-0.5-2-0.6-3c0.2-0.2,1.9-1.7,1.3-4.4
		c-0.2-0.8-0.4-1.5-0.7-2.3c0.2-1.2,0.7-2.3,1.3-3.3c0,0,0.6,3,2.7,3.2s3.1-4.1,3.1-4.2c1.2,0.8,2.2,1.9,3,3.1c0,0-3.4,1.4-2.4,5.2
		C28.2,129.2,30.7,129.9,32.1,130z"/>
	<path class="st8" d="M25.2,130.6c0.9-0.1,1.4-1.5,1.2-3c-0.2-1.5-1.1-2.7-2-2.5c-0.9,0.1-1.4,1.5-1.2,3S24.3,130.7,25.2,130.6z"/>
	<path class="st13" d="M146.3,144c0,8.6-1.8,15.6-5.7,15.6c-3.8,0-8.4-7-8.4-15.6s1.6-16.2,5.4-16.2
		C141.5,127.6,146.3,135.3,146.3,144z"/>
	<path class="st8" d="M146.3,143.6c0,0.7,0,1.3,0,1.9c-0.1,1.6-0.2,3.3-0.5,4.9c-0.6,3.2-1.7,5.4-3.4,5.8c-0.2,0-0.4,0.1-0.6,0.1
		c-0.8,0-1.6-0.4-2.4-1.1c-1.6-1.4-3-3.9-3.8-7.1c-0.3-1.2-0.4-2.4-0.5-3.6c0-0.3,0-0.7,0-1c0-2.3,0.2-4.7,0.5-7
		c0.2-1.4,0.6-2.7,1.1-4c0.7-1.4,1.6-2.3,2.7-2.3c0.8,0,1.6,0.4,2.4,1.1c1,0.8,1.9,2.1,2.6,3.7C145.6,137.8,146.3,140.7,146.3,143.6
		z"/>
	<path class="st13" d="M146.3,145.6c-0.1,1.6-0.2,3.3-0.5,4.9c-0.1-0.1-2.2-3.5-3.9-1.3c-1.2,1.6-0.2,5.2,0.5,7.1
		c-0.2,0-0.4,0.1-0.6,0.1c-0.8,0-1.6-0.4-2.4-1.1V155c0,0,1-4.1-1.6-6.6c0,0-1.2-0.7-2.2-0.3c-0.3-1.2-0.4-2.4-0.5-3.6
		c0.2-0.2,1.7-2,1.1-5.3c-0.2-1.2-0.4-2.1-0.6-2.7c0.2-1.4,0.6-2.7,1.1-4c0,0,0.5,3.6,2.4,3.9c1.9,0.2,2.7-4.9,2.7-5.1
		c1,0.8,1.9,2.1,2.6,3.7c0,0-3,1.7-2.1,6.2C142.9,144.5,145.1,145.4,146.3,145.6z"/>
	<path class="st8" d="M139.5,146.6c0.8-0.1,1.3-1.6,1.1-3.4c-0.2-1.8-0.9-3.3-1.7-3.2s-1.3,1.6-1.1,3.4S138.7,146.6,139.5,146.6z"/>
	<path class="st7" d="M175.3,106.3l-0.1,0.2c-0.1,0-7.5-3.2-34.9-7.9c-1.3-0.2-2.6-0.4-4-0.7c-0.1,0-0.2,0-0.4-0.1
		c-4.4-0.7-9.2-1.5-14.6-2.2v-0.2c7.2,1,13.6,2,19.1,3C167.8,103.1,175.2,106.3,175.3,106.3z"/>
	<path class="st11" d="M36.2,65.7c0,0,2.5-4.2,11-4.6c0,0,62.1-8.1,101.3,0.3c0,0,3.3,1.5-0.3,2.4C144.7,64.7,61.1,67.7,36.2,65.7z"
		/>
	<path class="st10" d="M36.2,65.3c0,0,2.5-4.2,11-4.6c0,0,62.1-8.1,101.3,0.3c0,0,3.3,1.5-0.3,2.4C144.7,64.2,61.1,67.3,36.2,65.3z"
		/>
	<path class="st11" d="M30.4,83c3.9-9.1,8.5-13.4,10-14.6c0.3-0.2,0.6-0.4,1-0.4l20.3-0.4c0.3,0,0.5,0.1,0.8,0.2
		c0.2,0.1,0.5,0.3,0.6,0.5c-0.1-0.3-0.3-0.6-0.6-0.8c-0.3-0.2-0.6-0.3-1-0.3l-20.3,0.4c-0.4,0-0.7,0.1-1,0.4
		c-1.5,1.2-6.1,5.5-10,14.6c-0.1,0.3-0.2,0.7-0.2,1.1s0.1,0.7,0.3,1C30.2,84.1,30.2,83.5,30.4,83z"/>
	<path class="st11" d="M67,84l2.8-12.6c0.5-2.3,2.4-3.9,4.6-3.9l26.2-0.2c1,0,2,0.3,2.7,1c-0.4-0.4-0.9-0.8-1.4-1s-1.1-0.4-1.7-0.4
		L74,67.1c-2.2,0-4.1,1.6-4.6,3.9l-2.8,12.6c-0.2,1-0.2,2.1,0.1,3.1c0.3,1,0.9,1.9,1.7,2.6c-0.6-0.7-1.1-1.5-1.4-2.4
		C66.8,85.9,66.8,84.9,67,84z"/>
	<path class="st11" d="M123.6,89.3l-9.3-19.2c-0.1-0.3-0.2-0.6-0.2-0.9s0.1-0.6,0.3-0.9c0.2-0.3,0.4-0.5,0.6-0.6
		c0.3-0.1,0.6-0.2,0.9-0.2c7.1-0.1,25.6-0.7,35.2-2.8c-0.6-0.5-0.9-0.7-0.9-0.7c-9.4,2.2-28.4,2.7-35.6,2.8c-0.3,0-0.6,0.1-0.9,0.2
		c-0.3,0.2-0.5,0.4-0.6,0.6c-0.2,0.3-0.2,0.6-0.3,0.9c0,0.3,0,0.6,0.2,0.9l9.3,19.2c0.4,0.8,0.9,1.5,1.6,2.1s1.4,1,2.2,1.3
		C125,91.4,124.2,90.4,123.6,89.3z"/>
	<path class="st6" d="M126.5,141.2h-4v1.2h4V141.2z"/>
	<path class="st7" d="M126.5,141.2h-4v1.2h4V141.2z"/>
	<path class="st6" d="M45,129l-4.9,0.8c0,0.2,0.1,0.3,0.1,0.5c0.1,0.2,5.5-0.2,5.5-0.2l-0.5-0.1L45,129z"/>
	<path class="st7" d="M45,129l-4.9,0.8c0,0.2,0.1,0.3,0.1,0.5c0.1,0.2,5.5-0.2,5.5-0.2l-0.5-0.1L45,129z"/>
	<path class="st11" d="M26.5,141.1c-4.3,0-9.5-5.8-9.5-13.1c0-4.9,0.8-9.5,2.8-11.8c-2.5,2-3.6,7.1-3.6,12.6
		c0,7.2,5.2,13.1,9.5,13.1c1.5,0,2.7-0.7,3.6-1.8C28.5,140.7,27.5,141.1,26.5,141.1z"/>
	<path class="st11" d="M141.5,158.6c-3.9,0-8.5-7-8.5-15.7c0-5.9,0.7-11.4,2.5-14.2c-2.2,2.4-3.2,8.5-3.2,15.2
		c0,8.7,4.6,15.7,8.5,15.7c1.3,0,2.4-0.8,3.2-2.2C143.3,158.1,142.5,158.6,141.5,158.6z"/>
	<path class="st11" d="M187.6,124.9c2.5-2.5,0.6-8.5-4.3-13.3c-4.9-4.9-10.8-6.8-13.3-4.3s-0.6,8.5,4.3,13.3
		C179.2,125.5,185.1,127.4,187.6,124.9z"/>
	<path class="st12" d="M187.8,124.7c2.5-2.5,0.6-8.5-4.3-13.3c-4.9-4.9-10.9-6.8-13.3-4.3c-2.5,2.5-0.6,8.5,4.3,13.3
		C179.4,125.3,185.3,127.2,187.8,124.7z"/>
	<path class="st11" d="M187.1,123.2c1.8-1.8,0-6.7-4.2-10.8c-4.1-4.1-9-6-10.8-4.2s0,6.7,4.2,10.8
		C180.4,123.2,185.3,125,187.1,123.2z"/>
	<path class="st13" d="M187.1,123c1.8-1.8,0-6.7-4.2-10.8c-4.1-4.1-9-6-10.8-4.2s0,6.7,4.2,10.8C180.4,122.9,185.3,124.8,187.1,123z
		"/>
	<g class="st14">
		
			<linearGradient id="SVGID_1_" gradientUnits="userSpaceOnUse" x1="4458.7935" y1="553.7831" x2="4644.0615" y2="553.7831" gradientTransform="matrix(1 0 0 1 0 -462.3331)">
			<stop  offset="0" style="stop-color:#808080;stop-opacity:0.25"/>
			<stop  offset="0.54" style="stop-color:#808080;stop-opacity:0.12"/>
			<stop  offset="1" style="stop-color:#808080;stop-opacity:0.1"/>
		</linearGradient>
		<path class="st15" d="M144.1,96.8c-0.1,0.2-0.8,0.6-1.7,1.1c-0.1-0.6-0.1-1.1-0.2-1.3c-0.1-0.6,1.1-3,1.1-3s2.3-3,2.2-3.5
			s0.9-1.8,0.9-1.8l2.1-3.3c-0.1,0.3-0.2,0.5-0.1,0.8c0,0.3,0.2,0.5,0.3,0.7c0.6,0.8,0.1,2.4,0.1,2.4l0.1,2v0.2
			c-0.1,0.1-0.4,0.4-1.1,1c-0.7,0.6-0.6,0.8-0.5,0.8c-0.2,0.3,0,0.3,0,0.3c0.1,0,0.1,0,0.2,0l-0.2,0.2
			C146.1,94.7,144.2,96.4,144.1,96.8z"/>
	</g>
	<path class="st11" d="M100.4,160.7l-0.2-0.1L100.4,160.7z"/>
	<path class="st11" d="M100.5,160.8L100.5,160.8L100.5,160.8z"/>
	<path class="st16" d="M134.5,149.4c0,0.3,0,0.6,0,0.8c0,0.3,0.1,0.6,0.3,0.9l0,0c0.1-0.6,0.1-1.2,0.1-1.8
		C135,149.4,134.8,149.4,134.5,149.4z"/>
</g>
</svg>
