<?xml version="1.0" encoding="utf-8"?>
<!-- Generator: Adobe Illustrator 24.1.2, SVG Export Plug-In . SVG Version: 6.00 Build 0)  -->
<svg version="1.1" id="Capa_2_1_" xmlns="http://www.w3.org/2000/svg" xmlns:xlink="http://www.w3.org/1999/xlink" x="0px" y="0px"
	 viewBox="0 0 87.6 91.8" style="enable-background:new 0 0 87.6 91.8;" xml:space="preserve">
<g>
	<path d="M84.9,46.4c-0.2-0.9-0.7-1.8-1.2-2.6c-0.9-1.4-2-2.5-3.3-3.3c-1.3-0.7-2.7-1.1-4.2-1.4c-2.5-0.5-5.7-1.2-8.9-1.7
		c-1.1-0.2-2.2-0.4-3.2-0.6c-0.1,0-0.3,0-0.4,0c-0.1,0-0.3,0-0.4-0.1c-0.7-0.3-1.4-0.7-2.1-1c-0.7-0.3-1.4-0.7-2.1-1
		c-1-0.5-2-1-3.1-1.5c-1-0.5-2-1-3.1-1.5c-0.6-0.3-1.3-0.6-1.9-1c-0.6-0.3-1.3-0.7-2-1c-1.4-0.6-2.8-0.9-4.4-0.9H14.6
		c-1-0.2-2,0-2.9,0.2c-1,0.4-1.8,0.8-2.4,1.3c-0.7,0.7-1.5,1.5-2.2,2.4c-0.5,0.7-1,1.4-1.5,2c-0.7,0.9-1.4,1.8-2,2.7
		c-0.7,1-1,2-1,3.2v9.8c0,0.3,0,0.7,0.1,1c0.4,2.2,2.4,3.4,3.6,4c1.5,0.6,3.1,0.9,5.2,0.9c0.1,0,0.2,0,0.3,0c0.2,1,0.5,1.9,1,2.6
		c1.8,2.9,5.2,4.4,8.5,3.7c2.9-0.5,5.2-2.6,6.1-5.5h30.7c0.5,0,0.9,0,1.4,0c0.9,0,1.8,0,2.7,0c0.2,0.5,0.4,1.1,0.7,1.8
		c1.5,2.4,4.2,3.9,7,3.9c0.5,0,1,0,1.5-0.1c2.9-0.5,5.2-2.6,6.1-5.5h1.8c0.6,0,1.3,0,2-0.1c1.5-0.2,2-1.2,2.5-2.2l0.1-0.3
		c0.4-0.9,0.9-1.9,0.9-2.7c0.1-0.7,0.1-1.8,0.1-2.7C85.1,48.2,85.1,47.2,84.9,46.4z M15,52.1c0.9-1.6,2.7-2.6,4.5-2.6
		c0.3,0,0.7,0,1,0.1c2.5,0.5,4.3,2.7,4.3,5.2c0.1,2.2-1.3,4.2-3.4,4.9c-2.1,0.7-4.5,0.1-6-1.6C14.1,56.4,13.9,54,15,52.1z
		 M65.4,52.1c0.9-1.6,2.7-2.6,4.5-2.6c0.3,0,0.7,0,1,0.1c2.5,0.5,4.3,2.7,4.3,5.2c0,2.2-1.4,4.2-3.4,4.9c-2.1,0.7-4.5,0.1-5.9-1.6
		C64.5,56.4,64.3,54,65.4,52.1z M24.3,37.9h-9.9c0,0,0,0,0,0v-0.1c0-0.1,0-0.1,0-0.2c0.1-0.1,0.1-0.2,0.1-0.3l0.3-0.6
		c0.2-0.5,0.5-1,0.8-1.5c0.7-1.1,1.4-2.3,2-3.6h6.6V37.9z M27.1,37.9v-6.1c3.6-0.1,7.2-0.1,10.7-0.1c0.3,2,0.7,4.1,1,6.2H27.1z
		 M40.8,31.6c1.2,0.1,2.6,0.1,4,0.1c1.1,0,2.3,0.2,3.5,0.8c0.5,0.2,0.9,0.4,1.4,0.7c0.2,0.1,0.5,0.3,0.8,0.4
		c0.8,0.4,1.6,0.8,2.4,1.2c0.6,0.3,1.1,0.5,1.7,0.8c1,0.5,2,1,3,1.5c0.6,0.3,1.1,0.5,1.7,0.8H41.7C41.4,35.8,41,33.7,40.8,31.6z
		 M11.4,53.6c-0.9,0-1.7-0.1-2.6-0.3c-0.3-0.1-0.6-0.2-1-0.3c-0.2,0-0.3-0.1-0.4-0.1c-0.1,0-0.2-0.1-0.3-0.1l-0.2-0.1
		c-0.1-0.1-0.3-0.1-0.4-0.2L6.2,52L6,52c0,0-0.1-0.1-0.1-0.1c0-0.1-0.1-0.1-0.1-0.2c0-0.1-0.1-0.2-0.2-0.3c0,0,0-0.1-0.1-0.1
		c0-0.1,0-0.2-0.1-0.3c0-0.1,0-0.1-0.1-0.2c0-0.2,0-0.4,0-0.6c0-0.1,0-0.2,0-0.2v-5.6h1c0.8,0,1.4-0.6,1.4-1.4s-0.6-1.4-1.4-1.4h-1
		v-1.6l0-0.2c0.3-0.5,0.6-1,1-1.6c0.5-0.7,1-1.4,1.6-2c0.3-0.3,0.5-0.7,0.7-1c0.4-0.6,0.8-1.1,1.2-1.6c0.5-0.6,1.1-1.1,1.7-1.4
		c0.2-0.1,0.4-0.2,0.7-0.3c0.1,0,0.2,0,0.3-0.1c0.2,0,0.4,0,0.5-0.1h1c-0.8,1.4-1.6,2.8-2.3,4.3c-0.5,0.9-0.7,1.8-0.4,2.7
		c0.2,0.7,0.8,1.3,1.5,1.7c0.4,0.3,0.8,0.3,1.3,0.3H53c0.9,0,1.7,0,2.6,0c1.7,0,3.5,0,5.2,0h0.1c0.6,0,1-0.3,1.3-0.8
		c0.1-0.1,0.1-0.3,0.1-0.4c0.2,0.1,0.5,0.1,0.7,0.1l6.9,1.2c0.8,0.2,1.5,0.3,2.2,0.5c0.7,0.1,1.4,0.3,2.2,0.4
		c0.4,0.1,0.9,0.2,1.3,0.3c0.8,0.2,1.6,0.3,2.3,0.6c0.5,0.2,1.2,0.5,1.6,0.9c0.5,0.4,0.9,0.8,1.1,1.1h-3c-0.8,0-1.4,0.6-1.4,1.4
		s0.6,1.4,1.4,1.4h4.2c0,0.1,0,0.2,0,0.3c0,0.2,0,0.4,0,0.5c0,0.3,0,0.6,0,0.9c0,0.6,0,1.1,0,1.6c-0.2,1.2-1.2,3.3-1.6,3.9h-2.3
		c-0.2-3.2-2.2-6-5.3-7.3c-3.1-1.2-6.8-0.1-9,2.4c-1.1,1.3-1.7,2.9-1.8,4.8H31.5c-0.5,0-0.9,0-1.4,0c-0.8,0-1.6,0-2.4,0
		c-0.2-3.2-2.2-6-5.3-7.2c-3-1.2-6.8-0.1-9,2.5c-0.9,1.2-1.5,2.5-1.7,3.9C11.6,53.6,11.5,53.6,11.4,53.6z M62.4,56.7L62.4,56.7
		L62.4,56.7L62.4,56.7L62.4,56.7z"/>
	<path d="M31,52.5h27.3c0.9,0,1.4-0.7,1.4-1.4c0-0.7-0.5-1.4-1.4-1.4H31c-0.9,0-1.4,0.7-1.4,1.4C29.6,51.8,30.1,52.5,31,52.5z"/>
</g>
</svg>
