<svg width="282" height="82" viewBox="0 0 282 82" fill="none" xmlns="http://www.w3.org/2000/svg">
<path d="M52.3125 17C53.4792 17 54.4792 17.3958 55.3125 18.1875C56.1458 18.9375 56.5833 19.8958 56.625 21.0625V36.125C56.5833 37.8333 56.6875 39.4167 56.9375 40.875C57.2292 42.2917 57.8958 43.5625 58.9375 44.6875C59.9792 45.8125 61.2917 46.4167 62.875 46.5H82.875C84.0417 46.5417 85 46.9792 85.75 47.8125C86.5417 48.6458 86.9375 49.6458 86.9375 50.8125C86.8958 51.9375 86.4792 52.8958 85.6875 53.6875C84.9375 54.4375 84 54.8333 82.875 54.875H60.75C57.8333 54.7083 55.4167 53.7292 53.5 51.9375C51.625 50.1042 50.2708 47.875 49.4375 45.25C48.6458 42.625 48.2292 39.8333 48.1875 36.875V21.0625C48.2292 19.9375 48.6458 19 49.4375 18.25C50.2292 17.4583 51.1875 17.0417 52.3125 17ZM106.938 45.1875C106.938 44.0208 107.333 43.0417 108.125 42.25C108.958 41.4167 109.958 41 111.125 41H120.688L119.062 36.375C118.396 34.6667 117.729 33.0625 117.062 31.5625C116.438 30.0208 115.708 28.625 114.875 27.375C114.125 26.125 113.271 25.4583 112.312 25.375C111.312 25.4583 110.417 26.125 109.625 27.375C108.833 28.625 108.104 30.0208 107.438 31.5625C106.812 33.0625 106.167 34.6667 105.5 36.375L99.5625 52.625C99.1458 53.5 98.6042 54.2292 97.9375 54.8125C97.3125 55.3542 96.3542 55.625 95.0625 55.625C93.8542 55.625 92.8542 55.2083 92.0625 54.375C91.3125 53.5417 90.9792 52.5417 91.0625 51.375C91.1042 50.8333 91.2292 50.3333 91.4375 49.875L98.3125 32.125C100.229 27.4583 102.146 23.6875 104.062 20.8125C105.938 17.9792 108.688 16.5417 112.312 16.5C115.896 16.5417 118.625 17.9792 120.5 20.8125C122.417 23.6042 124.333 27.375 126.25 32.125L133.125 49.875C133.333 50.3333 133.458 50.8333 133.5 51.375C133.583 52.5417 133.229 53.5417 132.438 54.375C131.688 55.2083 130.708 55.625 129.5 55.625C128.125 55.625 127.104 55.3542 126.438 54.8125C125.812 54.2292 125.292 53.5 124.875 52.625L123.688 49.375H111.125C109.958 49.375 108.979 48.9583 108.188 48.125C107.354 47.3333 106.938 46.3542 106.938 45.1875ZM153.812 45.1875C153.812 44.0208 154.208 43.0417 155 42.25C155.833 41.4167 156.833 41 158 41H167.562L165.938 36.375C165.271 34.6667 164.604 33.0625 163.938 31.5625C163.312 30.0208 162.583 28.625 161.75 27.375C161 26.125 160.146 25.4583 159.188 25.375C158.188 25.4583 157.292 26.125 156.5 27.375C155.708 28.625 154.979 30.0208 154.312 31.5625C153.688 33.0625 153.042 34.6667 152.375 36.375L146.438 52.625C146.021 53.5 145.479 54.2292 144.812 54.8125C144.188 55.3542 143.229 55.625 141.938 55.625C140.729 55.625 139.729 55.2083 138.938 54.375C138.188 53.5417 137.854 52.5417 137.938 51.375C137.979 50.8333 138.104 50.3333 138.312 49.875L145.188 32.125C147.104 27.4583 149.021 23.6875 150.938 20.8125C152.812 17.9792 155.562 16.5417 159.188 16.5C162.771 16.5417 165.5 17.9792 167.375 20.8125C169.292 23.6042 171.208 27.375 173.125 32.125L180 49.875C180.208 50.3333 180.333 50.8333 180.375 51.375C180.458 52.5417 180.104 53.5417 179.312 54.375C178.562 55.2083 177.583 55.625 176.375 55.625C175 55.625 173.979 55.3542 173.312 54.8125C172.688 54.2292 172.167 53.5 171.75 52.625L170.562 49.375H158C156.833 49.375 155.854 48.9583 155.062 48.125C154.229 47.3333 153.812 46.3542 153.812 45.1875ZM195.062 51.5625C194.812 54.0625 193.438 55.4167 190.938 55.625C189.771 55.625 188.75 55.25 187.875 54.5C187.042 53.7083 186.625 52.7292 186.625 51.5625V22.0625C186.667 20.8958 187.104 19.9375 187.938 19.1875C188.771 18.3958 189.771 18 190.938 18H217.188C220.854 18.125 223.625 18.9375 225.5 20.4375C227.375 21.8958 228.729 23.5625 229.562 25.4375C230.396 27.3125 230.812 29.2083 230.812 31.125C230.812 33.125 230.396 35.0625 229.562 36.9375C228.771 38.8125 227.417 40.5 225.5 42C223.625 43.4583 221.229 44.1667 218.312 44.125H202.562C201.396 44.125 200.417 43.7083 199.625 42.875C198.792 42.0833 198.375 41.1042 198.375 39.9375C198.375 38.7708 198.771 37.7917 199.562 37C200.396 36.1667 201.396 35.75 202.562 35.75H218.688C219.479 35.75 220.125 35.5 220.625 35C221.167 34.4583 221.562 33.8542 221.812 33.1875C222.062 32.4792 222.188 31.7708 222.188 31.0625C222.188 30.3958 222.062 29.7292 221.812 29.0625C221.562 28.3542 221.167 27.75 220.625 27.25C220.125 26.7083 219.479 26.4167 218.688 26.375H196.688C195.604 26.4167 195.062 26.9583 195.062 28V51.5625ZM277.875 22.1875C277.875 23.3542 277.458 24.3333 276.625 25.125C275.833 25.9583 274.854 26.375 273.688 26.375H248.688C247.896 26.4167 247.229 26.6042 246.688 26.9375C246.188 27.2292 245.812 27.5833 245.562 28C245.312 28.375 245.188 28.7708 245.188 29.1875C245.188 29.6042 245.312 30.0208 245.562 30.4375C245.812 30.8125 246.188 31.1667 246.688 31.5C247.229 31.7917 247.896 31.9583 248.688 32H266.438C269.354 32.0833 271.75 32.7708 273.625 34.0625C275.542 35.3125 276.896 36.7708 277.688 38.4375C278.521 40.0625 278.938 41.7292 278.938 43.4375C278.938 45.1042 278.521 46.7708 277.688 48.4375C276.854 50.0625 275.5 51.5208 273.625 52.8125C271.75 54.0625 269.354 54.6875 266.438 54.6875H266.062C265.812 54.7292 265.562 54.75 265.312 54.75H241.688C240.521 54.75 239.521 54.3542 238.688 53.5625C237.896 52.7292 237.5 51.7292 237.5 50.5625C237.5 49.3958 237.917 48.4167 238.75 47.625C239.542 46.7917 240.521 46.375 241.688 46.375H266.812C267.604 46.4167 268.25 46.2708 268.75 45.9375C269.292 45.6042 269.688 45.2292 269.938 44.8125C270.188 44.3542 270.312 43.8958 270.312 43.4375C270.312 43.1458 270.188 42.75 269.938 42.25C269.688 41.7083 269.292 41.2708 268.75 40.9375C268.25 40.6042 267.604 40.4167 266.812 40.375H249.062C246.146 40.2917 243.729 39.625 241.812 38.375C239.938 37.125 238.583 35.7083 237.75 34.125C236.958 32.5 236.562 30.8542 236.562 29.1875C236.562 27.5625 236.979 25.9583 237.812 24.375C238.646 22.75 240 21.3125 241.875 20.0625C243.75 18.8125 246.146 18.1458 249.062 18.0625H249.438C249.688 18.0208 249.938 18 250.188 18H273.688C274.854 18 275.833 18.4167 276.625 19.25C277.458 20.0417 277.875 21.0208 277.875 22.1875Z" fill="black"/>
<path d="M16 30.4547C26.9998 25.4546 40.8333 32.1213 43.5 35.4547C43.5 40.288 36.9998 53.4546 24.9998 53.4546C13.964 53.4546 0 47.9546 0 47.9546C0 47.9546 4.99633 35.4565 16 30.4547Z" fill="#51BA8F"/>
<path d="M28 26.4546C21.2 26.0546 15.8333 27.788 14 28.9547C2.5 25.4546 2 1.4549 2 1.4549C2 1.4549 18.5238 -3.53009 32 4.95473C45.5 13.4546 44.6667 25.2879 42 31.4546C40.1667 29.6212 34.8 26.8546 28 26.4546Z" fill="#A6ED9A"/>
<path d="M233.484 75.8359L235.453 66.2031H237.659L234.706 79H232.579L230.145 69.6572L227.657 79H225.521L222.568 66.2031H224.774L226.761 75.8184L229.204 66.2031H231.067L233.484 75.8359ZM251.498 72.9355C251.498 74.1895 251.281 75.291 250.848 76.2402C250.414 77.1836 249.793 77.9102 248.984 78.4199C248.182 78.9238 247.256 79.1758 246.207 79.1758C245.17 79.1758 244.244 78.9238 243.43 78.4199C242.621 77.9102 241.994 77.1865 241.549 76.249C241.109 75.3115 240.887 74.2305 240.881 73.0059V72.2852C240.881 71.0371 241.101 69.9355 241.54 68.9805C241.985 68.0254 242.609 67.2959 243.412 66.792C244.221 66.2822 245.146 66.0273 246.189 66.0273C247.232 66.0273 248.155 66.2793 248.958 66.7832C249.767 67.2812 250.391 68.002 250.83 68.9453C251.27 69.8828 251.492 70.9756 251.498 72.2236V72.9355ZM249.274 72.2676C249.274 70.8496 249.005 69.7627 248.466 69.0068C247.933 68.251 247.174 67.873 246.189 67.873C245.229 67.873 244.476 68.251 243.931 69.0068C243.392 69.7568 243.116 70.8203 243.104 72.1973V72.9355C243.104 74.3418 243.377 75.4287 243.922 76.1963C244.473 76.9639 245.234 77.3477 246.207 77.3477C247.191 77.3477 247.947 76.9727 248.475 76.2227C249.008 75.4727 249.274 74.377 249.274 72.9355V72.2676ZM260.415 74.0693H257.937V79H255.713V66.2031H260.213C261.689 66.2031 262.829 66.5342 263.632 67.1963C264.435 67.8584 264.836 68.8164 264.836 70.0703C264.836 70.9258 264.628 71.6436 264.212 72.2236C263.802 72.7979 263.228 73.2402 262.489 73.5508L265.363 78.8857V79H262.981L260.415 74.0693ZM257.937 72.2852H260.222C260.972 72.2852 261.558 72.0977 261.979 71.7227C262.401 71.3418 262.612 70.8232 262.612 70.167C262.612 69.4814 262.416 68.9512 262.023 68.5762C261.637 68.2012 261.057 68.0078 260.283 67.9961H257.937V72.2852ZM272.619 73.4717L271.169 75.0098V79H268.945V66.2031H271.169V72.2061L272.399 70.6855L276.144 66.2031H278.833L274.078 71.8721L279.105 79H276.469L272.619 73.4717Z" fill="#26374A"/>
</svg>
