<svg width="233" height="117" viewBox="0 0 233 117" fill="none" xmlns="http://www.w3.org/2000/svg">
<path opacity="0.1" d="M7.74707 58.7409C7.98514 58.8758 8.22586 59.0054 8.46923 59.135V59.0054H10.5405V60.1746L10.9822 60.3757V59.0054H13.0535V61.2513L13.4952 61.4206V59.0054H15.6987V62.1797L16.1405 62.3173V58.7409H7.74707Z" fill="#63C9A0"/>
<path d="M223.852 85.3735L226.515 88.1854L230.74 80.7416L230.359 79.9057L223.852 85.3735Z" fill="#63C9A0"/>
<path opacity="0.2" d="M223.852 85.3735L226.515 88.1854L230.74 80.7416L230.359 79.9057L223.852 85.3735Z" fill="#414A54"/>
<path d="M36.5935 79.001C36.5935 93.1267 26.9197 96.1238 17.2248 96.1238C7.52993 96.1238 2.07275 84.2201 2.07275 70.0891C2.07275 55.9581 9.93183 44.5094 19.6267 44.5094C29.3216 44.5094 36.5935 64.8753 36.5935 79.001Z" fill="#636780"/>
<path opacity="0.2" d="M36.5935 79.001C36.5935 93.1267 26.9197 96.1238 17.2248 96.1238C7.52993 96.1238 2.07275 84.2201 2.07275 70.0891C2.07275 55.9581 9.93183 44.5094 19.6267 44.5094C29.3216 44.5094 36.5935 64.8753 36.5935 79.001Z" fill="#414A54"/>
<path d="M29.8902 70.5441C29.8902 84.6698 23.6633 96.1238 15.9814 96.1238C8.29957 96.1238 1.76841 84.6698 1.76841 70.5441C1.76841 68.5919 1.46685 66.6926 1.6917 64.8674C3.09633 53.4742 9.36297 44.967 15.9761 44.967C23.6633 44.967 29.8902 56.4184 29.8902 70.5441Z" fill="#636780"/>
<path d="M28.5041 8.2799C28.5041 8.2799 16.3121 21.9506 12.4395 33.3438L117.721 44.9671L174.118 33.3438C174.118 33.3438 151.781 6.57899 145.745 5.54469C139.708 4.5104 28.5041 8.2799 28.5041 8.2799Z" fill="#63C9A0"/>
<path opacity="0.4" d="M28.5041 8.2799C28.5041 8.2799 16.3121 21.9506 12.4395 33.3438L117.721 44.9671L174.118 33.3438C174.118 33.3438 151.781 6.57899 145.745 5.54469C139.708 4.5104 28.5041 8.2799 28.5041 8.2799Z" fill="#414A54"/>
<path d="M105.756 43.0572L122.654 90.4656V78.4667L127.358 65.034L140.388 59.2647L156.91 66.7614L162.82 68.6078L163.336 57.6722L143.692 47.9879L134.547 43.5994L113.615 41.7742L107.841 40.7426L105.756 43.0572Z" fill="#63C9A0"/>
<path d="M113.293 47.9879L128.667 49.7523C127.969 43.6126 132.527 43.6126 132.527 43.6126L117.147 40.9515H109.968" fill="#63C9A0"/>
<path d="M122.655 97.756H133.553L165.114 96.6978C165.114 96.6978 165.796 102.716 174.108 101.301C174.108 101.301 178.684 101.594 179.176 99.1077C179.668 96.6211 168.754 73.6417 168.754 73.6417L153.874 62.5316L140.383 59.2568L130.699 62.1057L124.546 71.8932L120.673 85.2915L122.655 97.756Z" fill="#636780"/>
<path opacity="0.2" d="M122.655 97.756H133.553L165.114 96.6978C165.114 96.6978 165.796 102.716 174.108 101.301C174.108 101.301 178.684 101.594 179.176 99.1077C179.668 96.6211 168.754 73.6417 168.754 73.6417L153.874 62.5316L140.383 59.2568L130.699 62.1057L124.546 71.8932L120.673 85.2915L122.655 97.756Z" fill="#414A54"/>
<path d="M30.6255 11.552C29.0648 12.827 24.134 17.4007 20.026 27.0718C19.8835 27.4043 19.8201 27.7653 19.8407 28.1264C19.8614 28.4876 19.9656 28.839 20.145 29.153C20.3245 29.4671 20.5744 29.7353 20.875 29.9364C21.1756 30.1375 21.5189 30.2662 21.8776 30.3123L46.632 33.5209C47.5449 33.6398 48.4695 33.4178 49.2289 32.8976C49.9883 32.3773 50.5292 31.5953 50.7481 30.7011L55.0995 12.9487C55.1645 12.6848 55.1679 12.4095 55.1094 12.1441C55.051 11.8786 54.9323 11.6302 54.7625 11.418C54.5927 11.2057 54.3764 11.0354 54.1303 10.9201C53.8841 10.8048 53.6148 10.7477 53.3431 10.7532L31.7127 11.1552C31.3159 11.1607 30.9326 11.3006 30.6255 11.552Z" fill="#E8EFEE"/>
<path d="M66.5984 10.7135L94.4742 10.449C96.4819 10.4305 98.2807 11.7716 98.9579 13.819L107.65 33.5607C108.42 35.8726 106.756 38.2798 104.476 38.1476L63.7864 35.4679C60.4111 35.2721 58.0224 31.8307 58.8028 28.2833L61.7522 14.8798C62.2839 12.4567 64.2838 10.7347 66.5984 10.7135Z" fill="#E8EFEE"/>
<path d="M109.93 10.3961C117.551 10.2585 137.748 9.68186 147.795 7.36725C147.795 7.36725 165.037 20.3555 170.203 30.1536C170.203 30.1536 143.327 36.6953 124.765 37.5815C123.389 37.645 122.024 37.3028 120.84 36.5974C119.656 35.8919 118.706 34.8544 118.107 33.6136L108.237 13.1604C108.095 12.87 108.029 12.5485 108.044 12.2256C108.059 11.9027 108.156 11.5889 108.325 11.3133C108.494 11.0376 108.729 10.809 109.01 10.6487C109.291 10.4884 109.607 10.4015 109.93 10.3961Z" fill="#E8EFEE"/>
<path d="M122.654 90.4656V97.756L42.0639 85.4528C38.1145 84.0852 35.7575 84.9238 35.7575 84.9238C32.8478 83.5033 30.7315 77.9614 30.6707 77.7816L32.1917 73.3772L19.8384 52.9452L3.40332 53.6277C5.98774 32.9655 13.4289 31.9788 13.4289 31.9788L109.981 40.941L122.654 90.4656Z" fill="#63C9A0"/>
<path opacity="0.1" d="M105.286 46.9483C104.654 47.6414 103.498 48.271 101.365 48.2128C98.0986 48.1334 97.4796 45.3453 97.3976 43.6814C97.377 43.2738 97.3885 42.8652 97.432 42.4593L101.712 41.1499L102.588 41.9673L105.172 44.3877C105.523 44.7143 105.732 45.1658 105.753 45.6447C105.774 46.1237 105.606 46.5919 105.286 46.9483Z" fill="#414A54"/>
<path d="M105.286 46.7208C104.654 47.4139 103.498 48.0435 101.365 47.9853C98.0986 47.9059 97.4796 45.1178 97.3976 43.4539C97.377 43.0463 97.3885 42.6377 97.432 42.2318L101.712 40.9224L102.588 41.7398L105.172 44.1602C105.523 44.4868 105.732 44.9383 105.753 45.4173C105.774 45.8962 105.606 46.3644 105.286 46.7208Z" fill="#DCE0ED"/>
<path opacity="0.1" d="M102.59 41.7398C102.042 43.1339 100.424 43.5121 100.424 43.5121L97.4 43.4539C97.3795 43.0463 97.391 42.6377 97.4344 42.2318L101.714 40.9224L102.59 41.7398Z" fill="#414A54"/>
<path d="M91.6811 31.0661C91.6811 31.0661 84.8458 31.9814 86.6684 38.1608C88.0492 42.8429 91.1309 43.1577 92.5435 43.0386C93.3658 42.965 94.1914 42.935 95.0168 42.9487L100.421 43.0571C100.421 43.0571 103.474 42.3456 102.619 39.2691C101.765 36.1927 97.834 30.553 91.6811 31.0661Z" fill="#FBFBFF"/>
<path opacity="0.2" d="M54.6712 49.7523C56.4127 49.7523 57.8244 47.9154 57.8244 45.6495C57.8244 43.3836 56.4127 41.5467 54.6712 41.5467C52.9298 41.5467 51.5181 43.3836 51.5181 45.6495C51.5181 47.9154 52.9298 49.7523 54.6712 49.7523Z" fill="#414A54"/>
<path opacity="0.1" d="M60.0983 44.9068L51.1236 43.9493C50.3609 43.8679 49.6767 44.4202 49.5953 45.1829L49.5951 45.1855C49.5137 45.9482 50.066 46.6324 50.8287 46.7138L59.8034 47.6713C60.566 47.7527 61.2502 47.2004 61.3316 46.4377L61.3319 46.4351C61.4133 45.6724 60.861 44.9882 60.0983 44.9068Z" fill="#414A54"/>
<path d="M60.0988 44.678L51.1241 43.7205C50.3614 43.6391 49.6772 44.1914 49.5958 44.954L49.5956 44.9567C49.5142 45.7193 50.0665 46.4036 50.8291 46.4849L59.8038 47.4425C60.5665 47.5238 61.2507 46.9715 61.3321 46.2089L61.3324 46.2063C61.4138 45.4436 60.8615 44.7594 60.0988 44.678Z" fill="#FBFBFF"/>
<path opacity="0.1" d="M2.41386 72.4249C2.41386 72.4249 -3.24436 66.8408 3.62804 53.4002C3.62804 53.4002 12.4394 40.068 26.1128 54.654C26.1128 54.654 33.9745 63.4257 36.2521 77.4403L30.8981 77.5541C30.8981 77.5541 25.7689 52.7151 10.7306 53.9689C10.7306 53.9663 -0.207595 55.9026 2.41386 72.4249Z" fill="#414A54"/>
<path opacity="0.1" d="M2.19139 73.1073C2.19139 73.1073 -3.46948 67.5258 3.40557 54.0799C3.40557 54.0799 12.2169 40.7504 25.8903 55.3338C25.8903 55.3338 33.752 64.1081 36.0323 78.1201L30.6756 78.2338C30.6756 78.2338 25.5411 53.4001 10.5028 54.6513C10.5028 54.6513 -0.435357 56.5876 2.19139 73.1073Z" fill="#414A54"/>
<path d="M2.19139 72.6524C2.19139 72.6524 -3.46948 67.0682 3.40557 53.625C3.40557 53.625 12.2169 40.2955 25.8903 54.8789C25.8903 54.8789 33.752 63.6506 36.0323 77.6652L30.6756 77.7789C30.6756 77.7789 25.5411 52.9425 10.5028 54.1937C10.5028 54.1937 -0.435357 56.1327 2.19139 72.6524Z" fill="#63C9A0"/>
<path opacity="0.2" d="M2.19139 72.6524C2.19139 72.6524 -3.46948 67.0682 3.40557 53.625C3.40557 53.625 12.2169 40.2955 25.8903 54.8789C25.8903 54.8789 33.752 63.6506 36.0323 77.6652L30.6756 77.7789C30.6756 77.7789 25.5411 52.9425 10.5028 54.1937C10.5028 54.1937 -0.435357 56.1327 2.19139 72.6524Z" fill="#414A54"/>
<path opacity="0.1" d="M122.655 90.2381V97.5284L42.0641 85.2226C38.1147 83.8577 35.7577 84.6936 35.7577 84.6936C32.8479 83.2731 30.7317 77.7312 30.6709 77.5514L36.0276 77.4376L51.5235 79.6014L107.844 87.6907C107.844 87.6907 117.832 88.8308 118.401 89.2778C118.97 89.7249 122.655 90.2381 122.655 90.2381Z" fill="#414A54"/>
<path d="M122.655 90.4656V97.7559L42.0641 85.4528C38.1147 84.0852 35.7577 84.9237 35.7577 84.9237C32.8479 83.5032 30.7317 77.9614 30.6709 77.7815L36.0276 77.6678L51.5235 79.8316L107.844 87.9208C107.844 87.9208 117.832 89.0609 118.401 89.508C118.97 89.955 122.655 90.4656 122.655 90.4656Z" fill="#63C9A0"/>
<path opacity="0.2" d="M122.655 90.4656V97.7559L42.0641 85.4528C38.1147 84.0852 35.7577 84.9237 35.7577 84.9237C32.8479 83.5032 30.7317 77.9614 30.6709 77.7815L36.0276 77.6678L51.5235 79.8316L107.844 87.9208C107.844 87.9208 117.832 89.0609 118.401 89.508C118.97 89.955 122.655 90.4656 122.655 90.4656Z" fill="#414A54"/>
<path opacity="0.2" d="M51.4097 79.8528C46.4022 63.7749 46.6694 52.5616 47.7751 45.9934C48.9761 38.8512 51.4044 35.4838 51.4282 35.452L51.6108 35.5869C51.587 35.6187 49.1877 38.9623 47.9973 46.0516C46.8969 52.6066 46.6324 63.7616 51.6293 79.7972L51.4097 79.8528Z" fill="#414A54"/>
<path d="M232.182 72.8084C232.383 73.557 232.851 75.6256 232.108 76.1838C231.824 76.3954 231.578 76.9165 231.388 77.5355C231.09 78.5858 230.874 79.6577 230.743 80.7416L222.992 89.3995L209.89 94.5287L178.557 96.6925L159.643 65.9307L117.147 40.9383L128.749 40.2955C140.354 39.65 173.295 32.3597 173.295 32.3597L210.559 40.5917C216.586 41.9136 221.91 45.42 225.505 50.4348C230.042 56.7834 232.118 63.6611 232.118 63.6611C232.679 64.333 232.896 65.4334 232.928 66.6397C232.97 68.6051 232.52 70.843 232.274 71.9117C232.182 72.3111 232.118 72.5492 232.118 72.5492C232.118 72.5492 232.139 72.6391 232.182 72.8084Z" fill="#63C9A0"/>
<path opacity="0.1" d="M118.398 89.0582C118.398 89.0582 116.121 64.6874 133.212 58.0743C133.212 58.0743 157.252 47.927 171.38 75.5013L178.557 91.2274C178.557 91.2274 180.607 95.1 186.191 94.9863C186.191 94.9863 212.509 94.1927 226.399 85.302L230.729 80.276C230.729 80.276 228.566 87.3388 226.399 88.9339C226.399 88.9339 217.855 98.9595 186.749 100.785C186.749 100.785 174.028 102.15 170.193 90.074C170.193 90.074 164.989 62.7299 138.555 62.9574C138.555 62.9574 123.025 63.2616 122.644 89.9973L118.398 89.0582Z" fill="#414A54"/>
<path d="M118.398 89.5133C118.398 89.5133 116.121 65.1451 133.212 58.5293C133.212 58.5293 157.252 48.3847 171.38 75.9563L178.557 91.6798C178.557 91.6798 180.607 95.5524 186.191 95.4387C186.191 95.4387 212.509 94.6451 226.399 85.7544L230.743 80.7416C230.743 80.7416 228.579 87.8045 226.412 89.3996C226.412 89.3996 217.868 99.4277 186.762 101.25C186.762 101.25 174.041 102.618 170.206 90.5397C170.206 90.5397 165.002 63.1956 138.568 63.423C138.568 63.423 123.038 63.7299 122.657 90.4656L118.398 89.5133Z" fill="#63C9A0"/>
<path opacity="0.2" d="M118.398 89.5133C118.398 89.5133 116.121 65.1451 133.212 58.5293C133.212 58.5293 157.252 48.3847 171.38 75.9563L178.557 91.6798C178.557 91.6798 180.607 95.5524 186.191 95.4387C186.191 95.4387 212.509 94.6451 226.399 85.7544L230.743 80.7416C230.743 80.7416 228.579 87.8045 226.412 89.3996C226.412 89.3996 217.868 99.4277 186.762 101.25C186.762 101.25 174.041 102.618 170.206 90.5397C170.206 90.5397 165.002 63.1956 138.568 63.423C138.568 63.423 123.038 63.7299 122.657 90.4656L118.398 89.5133Z" fill="#414A54"/>
<path opacity="0.2" d="M114.451 88.7778L113.422 54.8735C113.561 52.5778 113.472 50.274 113.158 47.9958C113.126 47.853 112.309 44.3559 111.216 42.3693C110.515 41.3456 109.92 41.0335 109.893 41.0282L109.288 40.8642L109.965 40.8139C110.433 40.9038 110.877 41.3906 111.287 42.0704C112.033 43.0941 112.912 44.8929 113.375 47.9588C113.691 50.2448 113.779 52.5567 113.639 54.8603L114.668 88.7567L114.451 88.7778Z" fill="#414A54"/>
<path opacity="0.2" d="M135.373 63.632L135.151 63.6691C135.151 63.6426 134.677 60.8307 133.117 58.5955C129.844 53.9107 128.776 50.7337 128.654 48.6122C128.595 47.877 128.685 47.1373 128.919 46.4378C129.429 45.0067 130.797 43.9486 132.654 43.4249L133.05 43.491C131.265 43.9936 129.612 45.1575 129.122 46.5145C128.889 47.2041 128.799 47.9342 128.858 48.6599C128.99 50.7364 130.061 53.8525 133.281 58.4685C134.894 60.7434 135.37 63.6029 135.373 63.632Z" fill="#414A54"/>
<path opacity="0.2" d="M208.35 52.5827C193.833 43.9195 163.101 35.862 162.791 35.7826L162.849 35.5604C163.159 35.6424 193.923 43.7078 208.467 52.387L208.35 52.5827Z" fill="#414A54"/>
<path opacity="0.2" d="M229.457 64.5896C223.976 54.9476 209.218 46.9986 197.801 42.0255C190.078 38.6852 182.157 35.8229 174.083 33.4548L174.144 33.2353C182.228 35.6057 190.159 38.4715 197.891 41.8165C209.34 46.8029 224.142 54.7783 229.655 64.4759L229.457 64.5896Z" fill="#414A54"/>
<path opacity="0.1" d="M229.803 61.8347C230.96 60.9625 228.895 56.2696 225.19 51.3529C221.485 46.4362 217.543 43.1575 216.386 44.0297C215.228 44.9018 217.294 49.5947 220.999 54.5114C224.704 59.4281 228.645 62.7068 229.803 61.8347Z" fill="#414A54"/>
<path d="M229.804 61.3787C230.961 60.5065 228.896 55.8137 225.191 50.8969C221.486 45.9802 217.544 42.7015 216.387 43.5737C215.229 44.4458 217.295 49.1387 221 54.0554C224.705 58.9721 228.646 62.2509 229.804 61.3787Z" fill="#DCE0ED"/>
<path opacity="0.1" d="M228.938 59.8518C229.689 59.2856 227.818 55.535 224.758 51.4747C221.698 47.4144 218.609 44.5818 217.858 45.1481C217.106 45.7143 218.977 49.4648 222.037 53.5251C225.097 57.5855 228.186 60.418 228.938 59.8518Z" fill="#414A54"/>
<path d="M228.938 59.6252C229.69 59.059 227.818 55.3084 224.759 51.2481C221.699 47.1878 218.609 44.3553 217.858 44.9215C217.107 45.4877 218.978 49.2383 222.038 53.2986C225.097 57.3589 228.187 60.1914 228.938 59.6252Z" fill="#FBFBFF"/>
<path opacity="0.1" d="M195.704 69.9754C195.704 69.9754 196.444 64.3913 200.833 63.1374C200.833 63.1374 215.757 58.8203 219.006 58.7569C219.006 58.7569 222.365 57.7279 224.587 60.2329L226.865 63.3094C226.865 63.3094 228.452 65.8171 224.928 66.272C224.928 66.272 206.89 72.8852 199.068 73.573C198.624 73.6132 198.182 73.6803 197.746 73.774C196.603 74.0121 194.204 74.0809 195.704 69.9754Z" fill="#414A54"/>
<path d="M195.933 69.7479C195.933 69.7479 196.674 64.1637 201.06 62.9099C201.06 62.9099 215.985 58.5928 219.233 58.5293C219.233 58.5293 222.592 57.4976 224.814 60.0053L227.095 63.0818C227.095 63.0818 228.682 65.5869 225.156 66.0445C225.156 66.0445 207.12 72.6577 199.298 73.3454C198.854 73.3855 198.412 73.4526 197.976 73.5465C196.83 73.7845 194.431 73.8533 195.933 69.7479Z" fill="#FBFBFF"/>
<path opacity="0.1" d="M197.505 69.2717C197.505 69.2717 198.195 64.497 202.266 63.4257C202.266 63.4257 216.143 59.7223 219.161 59.6773C219.161 59.6773 222.286 58.7965 224.352 60.9391L226.468 63.5712C226.468 63.5712 227.949 65.7165 224.666 66.1053C224.666 66.1053 207.898 71.7662 200.626 72.3508C200.217 72.3857 199.81 72.443 199.407 72.5227C198.341 72.7105 196.111 72.7793 197.505 69.2717Z" fill="#414A54"/>
<path d="M197.735 69.039C197.735 69.039 198.423 64.2775 202.497 63.1929C202.497 63.1929 216.374 59.4895 219.392 59.4446C219.392 59.4446 222.516 58.5611 224.582 60.7064L226.698 63.3516C226.698 63.3516 228.179 65.4943 224.897 65.8858C224.897 65.8858 208.126 71.5467 200.854 72.1313C200.446 72.1661 200.041 72.2235 199.64 72.3032C198.568 72.4937 196.338 72.5519 197.735 69.039Z" fill="#636780"/>
<path d="M198.907 66.0974L198.878 65.8699C199.082 65.8461 219.35 63.3278 223.712 59.9604L223.852 60.1403C219.44 63.5394 199.743 65.9889 198.907 66.0974Z" fill="#FBFBFF"/>
<path d="M197.841 68.7215L197.801 68.4966C198.023 68.457 220.32 64.3277 225.13 61.3544L225.251 61.5475C220.405 64.5446 198.066 68.6792 197.841 68.7215Z" fill="#FBFBFF"/>
<path d="M197.314 70.8827L197.272 70.6604C197.536 70.6102 223.196 65.7667 226.37 62.9283L226.521 63.0976C223.312 65.9783 198.372 70.6843 197.314 70.8827Z" fill="#FBFBFF"/>
<path opacity="0.1" d="M224.018 70.9991C224.018 70.9991 214.347 75.0331 204.179 76.8425C203.279 77.0047 202.39 77.2058 201.51 77.4456C200.478 77.726 199.013 78.0434 198.216 77.8371C196.907 77.4932 196.182 79.0883 197.597 80.3421L197.687 80.4215C198.199 80.8714 198.796 81.2134 199.443 81.4271C200.089 81.6407 200.773 81.7216 201.452 81.6648L203.629 81.4822C203.629 81.4822 221.291 77.6096 226.217 74.5887C226.217 74.5887 228.465 73.0465 228.637 71.3112C228.809 69.5759 229.013 68.2083 227.23 69.2347C225.447 70.261 224.018 70.9991 224.018 70.9991Z" fill="#414A54"/>
<path d="M224.235 70.7769C223.876 70.925 214.382 74.84 204.396 76.615C203.496 76.7755 202.607 76.9765 201.727 77.2181C200.698 77.4985 199.23 77.8159 198.433 77.6096C197.111 77.2657 196.399 78.8608 197.814 80.1147L197.857 80.1517C198.383 80.6175 198.998 80.9718 199.665 81.1932C200.332 81.4146 201.037 81.4985 201.737 81.4399L203.832 81.2654H203.867C204.473 81.1331 221.59 77.3477 226.431 74.3877H226.449C226.6 74.2792 228.695 72.7873 228.859 71.1155C229.031 69.3802 229.238 68.0126 227.452 69.0389C225.756 70.0124 224.383 70.7319 224.256 70.798L224.235 70.7769Z" fill="#FBFBFF"/>
<path opacity="0.1" d="M222.944 72.0519C222.944 72.0519 215.008 75.3532 206.488 77.2287C205.641 77.4139 204.803 77.6308 203.97 77.8715C203.136 78.1122 201.946 78.4006 201.285 78.3159C200.153 78.1651 199.613 79.2947 200.883 80.0538L200.922 80.0776C201.883 80.6517 203.012 80.8794 204.12 80.7231L206.083 80.4586C206.083 80.4586 220.947 76.7182 224.994 74.3586C224.994 74.3586 226.846 73.1709 226.894 71.9778C226.941 70.7848 227.058 69.8616 225.589 70.6552C224.121 71.4488 222.944 72.0519 222.944 72.0519Z" fill="#414A54"/>
<path d="M223.169 71.8244C223 71.8958 215.144 75.1442 206.719 77.0012C205.872 77.1864 205.031 77.4033 204.198 77.644C203.364 77.8847 202.177 78.173 201.513 78.0884C200.381 77.9376 199.841 79.0645 201.113 79.8263C202.099 80.4159 203.256 80.6502 204.393 80.4903L206.303 80.2258C206.61 80.149 221.196 76.4642 225.206 74.1417C225.27 74.0993 227.058 72.9328 227.103 71.7609C227.148 70.5891 227.267 69.6315 225.799 70.4383C224.331 71.2451 223.22 71.8032 223.154 71.835L223.169 71.8244Z" fill="#636780"/>
<path opacity="0.1" d="M190.811 81.6059C190.894 79.9536 189.969 78.5645 188.747 78.5034C187.524 78.4423 186.466 79.7322 186.383 81.3845C186.3 83.0368 187.225 84.4258 188.447 84.487C189.67 84.5481 190.729 83.2582 190.811 81.6059Z" fill="#414A54"/>
<path d="M190.747 81.5918C190.829 79.9415 189.905 78.5544 188.684 78.4936C187.463 78.4328 186.406 79.7213 186.324 81.3716C186.242 83.0219 187.165 84.409 188.387 84.4698C189.608 84.5306 190.665 83.242 190.747 81.5918Z" fill="#FBFBFF"/>
<path opacity="0.1" d="M201.608 83.7598C201.608 83.7598 190.008 85.5268 186.932 85.6988C183.855 85.8707 183.392 87.5769 183.392 87.5769C183.392 87.5769 182.652 91.9072 186.924 90.6534L202.076 88.9445C202.076 88.9445 204.129 89.0027 204.129 86.2093V85.5824C204.135 85.2318 204.17 84.8823 204.234 84.5375C204.316 84.1011 204.092 83.3921 201.608 83.7598Z" fill="#414A54"/>
<path d="M201.835 83.5323C201.835 83.5323 190.236 85.2994 187.159 85.4687C184.083 85.638 183.628 87.3495 183.628 87.3495C183.628 87.3495 182.887 91.6798 187.159 90.4259L202.314 88.7171C202.314 88.7171 204.364 88.7753 204.364 85.9819V85.3549C204.37 85.0043 204.405 84.6548 204.47 84.3101C204.554 83.8736 204.319 83.1646 201.835 83.5323Z" fill="#FBFBFF"/>
<path d="M232.107 76.1838C231.824 76.3954 231.578 76.9165 231.388 77.5355L227.632 80.1966C227.586 80.229 227.532 80.2483 227.476 80.2522C227.42 80.2562 227.364 80.2447 227.314 80.2191C227.264 80.1935 227.222 80.1546 227.193 80.1068C227.164 80.059 227.148 80.0041 227.147 79.948V77.1546C227.147 76.7542 227.251 76.3605 227.448 76.012C227.645 75.6634 227.929 75.3717 228.272 75.1654L232.181 72.8084C232.382 73.557 232.859 75.6203 232.107 76.1838Z" fill="#FBFBFF"/>
<path d="M205.523 83.9053L205.348 86.7305C205.326 87.012 205.367 87.2948 205.469 87.5582C205.571 87.8215 205.73 88.0587 205.936 88.2522C206.142 88.4456 206.388 88.5905 206.657 88.676C206.926 88.7615 207.211 88.7855 207.491 88.7462C213.888 87.7258 220.037 85.5169 225.621 82.2335L226.116 76.4616C226.13 76.3208 226.108 76.1787 226.05 76.0494C225.993 75.92 225.902 75.808 225.788 75.7243C225.674 75.6406 225.54 75.5883 225.399 75.5724C225.259 75.5564 225.116 75.5775 224.987 75.6336C221.812 77.0488 213.302 80.6755 207.901 81.3685C207.272 81.4515 206.692 81.7495 206.258 82.212C205.825 82.6745 205.565 83.2728 205.523 83.9053Z" fill="#636780"/>
<path d="M207.269 82.4504V87.0426C207.269 87.0426 221.397 83.7043 224.529 81.4532V77.0964C219.027 79.6093 213.227 81.4086 207.269 82.4504Z" fill="#63C9A0"/>
<path d="M232.036 72.1313C231.319 72.081 230.745 70.851 230.745 69.3458C230.745 67.8406 231.343 66.5577 232.068 66.5577C232.184 66.5629 232.298 66.5922 232.402 66.6437C232.506 66.6951 232.599 66.7676 232.674 66.8566C232.732 68.822 232.282 71.0599 232.036 72.1313Z" fill="#63C9A0"/>
<path d="M232.263 71.9012C231.546 71.8535 230.975 70.6235 230.975 69.1183C230.975 67.6132 231.57 66.3276 232.298 66.3276C232.414 66.3336 232.529 66.3635 232.633 66.4153C232.738 66.4672 232.831 66.54 232.906 66.6291C232.959 68.5946 232.509 70.8325 232.263 71.9012Z" fill="#FBFBFF"/>
<path d="M167.278 91.365C167.278 116.402 156.697 116.945 142.896 116.945C131.871 116.945 127.358 105.493 127.358 91.365C127.358 77.2366 130.9 65.817 141.923 65.817C152.946 65.817 167.278 77.2393 167.278 91.365Z" fill="#636780"/>
<path opacity="0.2" d="M167.278 91.365C167.278 116.402 156.697 116.945 142.896 116.945C131.871 116.945 127.358 105.493 127.358 91.365C127.358 77.2366 130.9 65.817 141.923 65.817C152.946 65.817 167.278 77.2393 167.278 91.365Z" fill="#414A54"/>
<path d="M141.267 116.945C148.948 116.945 155.176 105.492 155.176 91.365C155.176 77.2377 148.948 65.7853 141.267 65.7853C133.585 65.7853 127.358 77.2377 127.358 91.365C127.358 105.492 133.585 116.945 141.267 116.945Z" fill="#636780"/>
<path d="M22.0868 76.1838C22.0868 83.855 19.8647 90.0079 15.2488 90.0079C10.6328 90.0079 5.14648 83.7836 5.14648 76.1071C5.14648 68.4305 7.0643 61.6771 11.6803 61.6771C16.2963 61.6771 22.0868 68.5072 22.0868 76.1838Z" fill="#FBFBFF"/>
<path d="M22.0841 75.8849C22.0841 76.4668 22.0683 77.0382 22.0365 77.599C21.9706 79.0738 21.7544 80.5381 21.3911 81.969C20.6425 84.7941 19.2749 86.7569 17.2803 87.1299C17.0456 87.1728 16.8074 87.1941 16.5688 87.1934C15.5141 87.1592 14.4906 86.8273 13.6166 86.2358C11.7147 85.0243 9.96089 82.7626 9.06944 79.9348C8.73605 78.8958 8.53084 77.8201 8.45838 76.7314C8.43722 76.4351 8.42664 76.1335 8.42664 75.832C8.40281 73.7423 8.6113 71.6565 9.04827 69.6129C9.29724 68.3686 9.75137 67.1743 10.3921 66.0789C11.2068 64.7959 12.2887 64.0314 13.6748 64.0314C14.7121 64.0739 15.7154 64.4127 16.5661 65.0075C17.8372 65.8736 18.9175 66.9908 19.7404 68.2903C21.2364 70.5435 22.0502 73.1805 22.0841 75.8849Z" fill="#636780"/>
<path d="M22.0314 77.6096C21.9665 79.0807 21.752 80.5414 21.3912 81.969C21.296 81.8606 18.6825 78.8397 16.7197 80.7787C15.278 82.1992 16.4922 85.4343 17.2805 87.1273C17.0458 87.1702 16.8076 87.1915 16.5689 87.1908C15.5142 87.1567 14.4907 86.8247 13.6168 86.2332V86.0163C13.6168 86.0163 14.7781 82.3976 11.6805 80.1676C11.6805 80.1676 10.1753 79.5698 9.05637 79.9295C8.72298 78.8906 8.51777 77.8148 8.44531 76.7261C8.70984 76.5171 10.5218 74.9644 9.78117 72.0387C9.58113 71.2142 9.33203 70.4025 9.03521 69.6077C9.28886 68.3644 9.74745 67.1718 10.3922 66.0789C10.3922 66.0789 10.9874 69.3088 13.265 69.5019C15.5426 69.695 16.5372 65.1319 16.5663 65.0049C17.8374 65.871 18.9177 66.9883 19.7406 68.2877C19.7406 68.2877 16.1034 69.8008 17.1641 73.8269C17.9418 76.6785 20.5765 77.4218 22.0314 77.6096Z" fill="#FBFBFF"/>
<path d="M14.7161 78.182C15.6505 78.0498 16.2222 76.6295 15.9931 75.0097C15.764 73.3898 14.8209 72.1837 13.8866 72.3158C12.9522 72.4479 12.3805 73.8682 12.6096 75.4881C12.8387 77.108 13.7818 78.3141 14.7161 78.182Z" fill="#636780"/>
<path d="M143.692 92.4337C143.692 101.631 141.732 108.998 137.661 108.998C133.59 108.998 128.749 101.541 128.749 92.3331C128.749 83.125 130.442 75.0437 134.513 75.0437C138.584 75.0437 143.692 83.2361 143.692 92.4337Z" fill="#FBFBFF"/>
<path d="M143.692 92.0871C143.692 92.7925 143.678 93.4777 143.65 94.1425C143.591 95.8967 143.4 97.6441 143.079 99.3695C142.42 102.755 141.227 105.104 139.452 105.554C139.247 105.603 139.036 105.628 138.825 105.628C137.973 105.628 137.079 105.221 136.222 104.48C134.534 103.028 132.995 100.303 132.199 96.928C131.907 95.6671 131.73 94.3824 131.67 93.0897C131.651 92.7352 131.64 92.3755 131.64 92.0104C131.618 89.5165 131.802 87.025 132.191 84.5613C132.405 83.1037 132.811 81.6807 133.397 80.3289C134.116 78.792 135.071 77.8768 136.293 77.8768C137.116 77.8768 137.992 78.2974 138.844 79.046C139.862 79.9427 140.843 81.305 141.653 82.9795C142.997 85.8275 143.693 88.9379 143.692 92.0871Z" fill="#636780"/>
<path d="M143.65 94.1372C143.591 95.8914 143.4 97.6388 143.078 99.3642C142.996 99.232 140.698 95.6133 138.957 97.9358C137.687 99.6393 138.756 103.515 139.452 105.549C139.246 105.598 139.036 105.623 138.825 105.623C137.973 105.623 137.079 105.216 136.222 104.475V104.21C136.222 104.21 137.246 99.8748 134.513 97.2031C134.513 97.2031 133.19 96.4862 132.198 96.9174C131.907 95.6565 131.73 94.3719 131.669 93.0791C131.902 92.8278 133.5 90.9629 132.847 87.4632C132.598 86.1406 132.376 85.1962 132.191 84.5534C132.405 83.0958 132.811 81.6728 133.397 80.321C133.397 80.321 133.926 84.1937 135.931 84.4211C137.936 84.6486 138.817 79.1888 138.841 79.038C139.859 79.9348 140.841 81.2971 141.65 82.9715C141.65 82.9715 138.441 84.7862 139.378 89.6085C140.036 93.0394 142.362 93.9176 143.65 94.1372Z" fill="#FBFBFF"/>
<path d="M136.439 95.2329C137.272 95.1647 137.818 93.5312 137.659 91.5845C137.499 89.6377 136.695 88.1148 135.862 88.183C135.029 88.2512 134.483 89.8846 134.643 91.8314C134.802 93.7781 135.606 95.301 136.439 95.2329Z" fill="#636780"/>
<path opacity="0.2" d="M174.565 52.3817L174.472 52.5907C174.383 52.5483 166.505 49.1518 137.293 44.1946C135.928 43.9636 134.517 43.7282 133.061 43.4883C132.926 43.4698 132.796 43.446 132.656 43.4248C127.982 42.663 122.821 41.872 117.128 41.0441L117.16 40.8166C124.871 41.9276 131.603 42.9857 137.476 43.9909C166.613 48.9428 174.472 52.342 174.565 52.3817Z" fill="#414A54"/>
<path opacity="0.1" d="M26.4912 9.09461C26.4912 9.09461 29.1365 4.59766 38.1886 4.19822C38.1886 4.19822 104.347 -4.44386 146.115 4.53681C146.115 4.53681 149.681 6.12397 145.811 7.0551C141.941 7.98624 52.9994 11.2055 26.4912 9.09461Z" fill="#414A54"/>
<path d="M26.4912 8.63964C26.4912 8.63964 29.1365 4.14268 38.1886 3.7406C38.1886 3.7406 104.347 -4.89883 146.115 4.08184C146.115 4.08184 149.681 5.669 145.811 6.60013C141.941 7.53126 52.9994 10.7506 26.4912 8.63964Z" fill="#E8EFEE"/>
<path opacity="0.1" d="M20.2984 27.5295C24.4065 17.8584 29.3373 13.2847 30.898 12.007C31.2049 11.757 31.5868 11.6173 31.9826 11.6103L53.6261 11.2082C53.9186 11.2017 54.2082 11.2684 54.4683 11.4024C54.7284 11.5364 54.9509 11.7334 55.1154 11.9753C54.9981 11.6145 54.7679 11.3009 54.4587 11.0809C54.1496 10.8608 53.778 10.7459 53.3986 10.7532L31.7551 11.1553C31.359 11.1607 30.9766 11.3006 30.6705 11.5521C29.1098 12.8271 24.179 17.4007 20.0709 27.0718C19.9196 27.4242 19.8576 27.8084 19.8904 28.1905C19.9231 28.5726 20.0497 28.9407 20.2587 29.2621C20.0485 28.701 20.0627 28.0804 20.2984 27.5295Z" fill="#414A54"/>
<path opacity="0.1" d="M59.2577 28.6087L62.2072 15.2052C62.7362 12.7795 64.7413 11.06 67.0533 11.0389L94.9291 10.7743C95.9917 10.767 97.0225 11.1363 97.8389 11.8166C97.4121 11.3528 96.8935 10.9827 96.3161 10.73C95.7387 10.4773 95.115 10.3473 94.4847 10.3485L66.6089 10.613C64.2943 10.6368 62.2945 12.3562 61.7628 14.7819L58.8001 28.1828C58.5513 29.2636 58.6027 30.3918 58.9486 31.4454C59.2945 32.4991 59.9219 33.4382 60.7628 34.1611C60.0768 33.4294 59.5808 32.5406 59.3184 31.5725C59.0559 30.6044 59.0351 29.5867 59.2577 28.6087Z" fill="#414A54"/>
<path opacity="0.1" d="M119.53 34.2537L109.664 13.8005C109.524 13.5106 109.459 13.1902 109.476 12.8688C109.492 12.5474 109.589 12.2352 109.758 11.9611C109.926 11.6869 110.161 11.4595 110.44 11.2997C110.72 11.14 111.035 11.053 111.356 11.0468C118.872 10.9092 138.624 10.3458 148.803 8.11053C148.163 7.61058 147.795 7.33282 147.795 7.33282C137.743 9.64743 117.552 10.2241 109.931 10.3616C109.609 10.3679 109.294 10.4549 109.014 10.6146C108.735 10.7744 108.5 11.0018 108.332 11.2759C108.163 11.5501 108.066 11.8622 108.05 12.1836C108.033 12.5051 108.098 12.8254 108.238 13.1154L118.107 33.5606C118.51 34.3967 119.074 35.1449 119.766 35.7623C120.459 36.3797 121.267 36.8541 122.144 37.1582C121.016 36.4565 120.109 35.4494 119.53 34.2537Z" fill="#414A54"/>
<path d="M122.654 89.5133H118.401V90.8227H122.654V89.5133Z" fill="#63C9A0"/>
<path opacity="0.2" d="M122.654 89.5133H118.401V90.8227H122.654V89.5133Z" fill="#414A54"/>
<path d="M35.8288 76.5541L30.5991 77.4562C30.6313 77.6372 30.6818 77.8144 30.7499 77.9852C30.8531 78.2497 36.5695 77.7815 36.5695 77.7815L36.0193 77.6678L35.8288 76.5541Z" fill="#63C9A0"/>
<path opacity="0.2" d="M35.8288 76.5541L30.5991 77.4562C30.6313 77.6372 30.6818 77.8144 30.7499 77.9852C30.8531 78.2497 36.5695 77.7815 36.5695 77.7815L36.0193 77.6678L35.8288 76.5541Z" fill="#414A54"/>
<path opacity="0.1" d="M16.0979 89.3757C11.4845 89.3757 5.99562 83.1514 5.99562 75.4748C5.99562 70.2134 6.89765 65.3831 8.95038 62.8675C6.30511 65.0022 5.14648 70.3853 5.14648 76.324C5.14648 83.9952 10.6354 90.2248 15.2488 90.2248C16.8095 90.2248 18.0924 89.5212 19.1135 88.2938C18.2678 88.9996 17.1994 89.3829 16.0979 89.3757Z" fill="#414A54"/>
<path opacity="0.1" d="M138.566 107.977C134.434 107.977 129.519 100.504 129.519 91.2856C129.519 84.966 130.313 79.1676 132.164 76.1467C129.783 78.71 128.76 85.175 128.76 92.3067C128.76 101.525 133.675 108.998 137.807 108.998C139.203 108.998 140.354 108.152 141.267 106.681C140.499 107.517 139.6 107.977 138.566 107.977Z" fill="#414A54"/>
<path opacity="0.1" d="M187.7 72.1668C190.359 69.5077 188.306 63.144 183.115 57.953C177.924 52.762 171.561 50.7094 168.902 53.3684C166.242 56.0275 168.295 62.3912 173.486 67.5822C178.677 72.7733 185.041 74.8258 187.7 72.1668Z" fill="#414A54"/>
<path d="M187.927 71.9403C190.586 69.2813 188.534 62.9176 183.343 57.7265C178.152 52.5355 171.788 50.4829 169.129 53.142C166.47 55.801 168.523 62.1648 173.714 67.3558C178.905 72.5468 185.268 74.5994 187.927 71.9403Z" fill="#DCE0ED"/>
<path opacity="0.1" d="M187.156 70.3193C189.106 68.3699 187.115 63.2188 182.71 58.8139C178.305 54.4091 173.154 52.4184 171.205 54.3678C169.256 56.3171 171.246 61.4683 175.651 65.8731C180.056 70.278 185.207 72.2686 187.156 70.3193Z" fill="#414A54"/>
<path d="M187.157 70.0897C189.106 68.1403 187.116 62.9892 182.711 58.5843C178.306 54.1794 173.155 52.1888 171.205 54.1382C169.256 56.0875 171.247 61.2387 175.652 65.6435C180.056 70.0484 185.208 72.039 187.157 70.0897Z" fill="#FBFBFF"/>
<g opacity="0.1">
<path opacity="0.1" d="M141.298 42.1657C141.19 42.3641 140.412 42.8296 139.465 43.3428C139.378 42.6524 139.314 42.1313 139.301 41.9699C139.246 41.38 140.505 38.7374 140.505 38.7374C140.505 38.7374 142.915 35.5049 142.859 35.0182C142.803 34.5314 143.79 33.1347 143.79 33.1347L145.975 29.5927C145.854 29.8627 145.811 30.161 145.851 30.4541C145.891 30.7471 146.012 31.0232 146.2 31.2513C146.859 32.1136 146.308 33.8384 146.308 33.8384L146.443 36.0128V36.2297C146.367 36.3064 146.015 36.6423 145.237 37.3433C144.52 37.9888 144.647 38.1872 144.729 38.2401C144.565 38.5311 144.766 38.5813 144.766 38.5813C144.83 38.5813 144.893 38.576 144.957 38.5654L144.782 38.7268C143.449 39.9754 141.494 41.8138 141.298 42.1657Z" fill="url(#paint0_linear)"/>
</g>
<path opacity="0.1" d="M94.7758 110.31L94.5112 110.25L94.7758 110.31Z" fill="#414A54"/>
<path opacity="0.1" d="M94.9451 110.345L94.8022 110.316L94.9451 110.345Z" fill="#414A54"/>
<path opacity="0.3" d="M131.151 98.2056C131.18 98.5151 131.193 98.8193 131.204 99.0838C131.211 99.4228 131.338 99.7482 131.564 100.002L131.579 100.018C131.665 99.3927 131.704 98.7622 131.696 98.1315C131.64 98.2135 131.402 98.2215 131.151 98.2056Z" fill="white"/>
<defs>
<linearGradient id="paint0_linear" x1="4736.26" y1="7330.61" x2="4933.56" y2="7330.61" gradientUnits="userSpaceOnUse">
<stop stop-color="#808080" stop-opacity="0.25"/>
<stop offset="0.54" stop-color="#808080" stop-opacity="0.12"/>
<stop offset="1" stop-color="#808080" stop-opacity="0.1"/>
</linearGradient>
</defs>
</svg>
