<?xml version="1.0" encoding="utf-8"?>
<!-- Generator: Adobe Illustrator 24.1.2, SVG Export Plug-In . SVG Version: 6.00 Build 0)  -->
<svg version="1.1" id="Capa_1" xmlns="http://www.w3.org/2000/svg" xmlns:xlink="http://www.w3.org/1999/xlink" x="0px" y="0px"
	 viewBox="0 0 278.8 171.5" style="enable-background:new 0 0 278.8 171.5;" xml:space="preserve">
<style type="text/css">
	.st0{opacity:0.15;fill:#3D5C7A;}
	.st1{opacity:0.1;fill:#72A2D8;enable-background:new    ;}
	.st2{opacity:0.1;enable-background:new    ;}
	.st3{fill:#CED8DD;}
	.st4{fill:#C5CDD0;}
	.st5{opacity:0.1;fill:#405C7B;enable-background:new    ;}
	.st6{fill:#405C7B;}
	.st7{opacity:0.2;enable-background:new    ;}
	.st8{fill:#636780;}
	.st9{opacity:0.4;enable-background:new    ;}
	.st10{opacity:0.2;fill:#FFFFFF;enable-background:new    ;}
	.st11{opacity:0.1;fill:#FFFFFF;enable-background:new    ;}
	.st12{fill:#DCE0ED;}
	.st13{fill:#F0F0F4;}
	.st14{opacity:0.1;}
	.st15{opacity:0.1;fill:url(#SVGID_1_);enable-background:new    ;}
	.st16{opacity:0.3;fill:#FFFFFF;enable-background:new    ;}
</style>
<g>
	<path class="st0" d="M54.4,22v94.6c-2.2,0.6-4.4,1.1-6.7,1.4c-5.1,0.6-10.2,0.2-15.1-1.3l-0.4-0.1c-0.7-0.2-1.4-0.5-2.1-0.7
		l-0.4-0.2c-0.7-0.3-1.3-0.5-2-0.8l-0.4-0.2c-0.7-0.3-1.3-0.6-2-1c-0.2-0.1-0.5-0.2-0.7-0.4c-3.6-2-6.9-4.6-9.8-7.6
		c-0.1-0.1-0.2-0.2-0.2-0.2c-0.4-0.4-0.8-0.9-1.2-1.3c-0.1-0.2-0.3-0.3-0.4-0.5c-0.4-0.5-0.9-1.1-1.3-1.7c-0.1-0.1-0.1-0.2-0.2-0.2
		c-1.7-2.4-3.1-4.9-4.2-7.6c0-0.1-0.1-0.2-0.1-0.2c-0.3-0.9-0.6-1.7-0.9-2.6c-0.1-0.4-0.2-0.7-0.3-1.1C6,90,6,89.9,6,89.8
		c-1.4-5.4-1.5-11-1.5-16.7c0-0.7,0-1.3,0-2C4.5,62.1,4.6,52.9,6,44c0-0.1,0-0.1,0-0.2c0.4-3,1.1-6,1.8-8.9h25.5V22h5.1V11.7h10.9
		V22H54.4z"/>
	<path class="st0" d="M267.3,108.3c-6.6,13.7-20.1,22.8-34,28.8c-18.8,8.1-39.4,11.3-59.8,10c-3.6-0.2-7.1-0.6-10.7-1.1
		c-12.3-1.8-24.4-5.3-35.7-10.4c-3.3-1.5-6.5-3.1-9.7-4.8c-5.3-2.9-10.3-6.2-15.1-9.9c-1.2-0.9-2.4-1.9-3.6-2.8
		c-0.8-0.7-1.6-1.4-2.4-2c-1.7-1.4-3.5-2.7-5.5-3.7c-0.6-0.3-1.2-0.6-1.8-0.8V72.8h46.3v8.6h20.3v-63h23.9v25.2h11.8V28.7h9.8V12.7
		h4.5V3.5c0.4,0.1,0.8,0.3,1.2,0.4v8.8h4.4v15.9h9.8v14.9h14.4v56.8h22.9V59.1h7.4C272.3,74.7,274.7,93,267.3,108.3z"/>
	<rect x="162.8" y="27.9" class="st0" width="10.7" height="10.7"/>
	<rect x="162.8" y="50" class="st0" width="10.7" height="10.7"/>
	<rect x="162.8" y="72.2" class="st0" width="10.7" height="10.7"/>
	<rect x="162.8" y="94.3" class="st0" width="10.7" height="10.7"/>
	<rect x="162.8" y="116.5" class="st0" width="10.7" height="10.7"/>
	<path class="st0" d="M173.5,138.6v8.4c-3.6-0.2-7.1-0.6-10.7-1.1v-7.3H173.5z"/>
	<rect x="92.6" y="86.6" class="st0" width="37.4" height="4.8"/>
	<rect x="92.6" y="101.3" class="st0" width="37.4" height="4.8"/>
	<path class="st0" d="M130,116v4.8h-27.6c-1.2-0.9-2.4-1.9-3.6-2.8c-0.8-0.7-1.6-1.4-2.4-2H130z"/>
	<path class="st0" d="M130,130.7v4.8h-2.9c-3.3-1.5-6.5-3.1-9.7-4.8H130z"/>
	<rect x="191.3" y="56.8" class="st0" width="7" height="7"/>
	<rect x="40.7" y="24.4" class="st1" width="7" height="7"/>
	<rect x="40.7" y="40.6" class="st0" width="7" height="7"/>
	<rect x="40.7" y="56.7" class="st0" width="7" height="7"/>
	<rect x="40.7" y="72.9" class="st0" width="7" height="7"/>
	<rect x="40.7" y="89" class="st0" width="7" height="7"/>
	<rect x="40.7" y="105.2" class="st0" width="7" height="7"/>
	<rect x="217.9" y="56.8" class="st0" width="7" height="7"/>
	<rect x="191.3" y="74" class="st0" width="7" height="7"/>
	<rect x="217.9" y="74" class="st0" width="7" height="7"/>
	<rect x="191.3" y="91.1" class="st0" width="7" height="7"/>
	<rect x="217.9" y="91.1" class="st0" width="7" height="7"/>
	<rect x="191.3" y="108.3" class="st0" width="7" height="7"/>
	<rect x="217.9" y="108.3" class="st0" width="7" height="7"/>
	<rect x="191.3" y="125.4" class="st0" width="7" height="7"/>
	<rect x="217.9" y="125.4" class="st0" width="7" height="7"/>
	<polygon class="st0" points="191.3,147.1 191.3,142.6 198.3,142.6 198.3,146.4 	"/>
	<path class="st0" d="M6,43.8v4h26.6v-4H6z M8.3,47.5h-2V44h2L8.3,47.5z M10.7,47.5h-2V44h2L10.7,47.5z M13.1,47.5h-2V44h2
		L13.1,47.5z M15.4,47.5h-2V44h2L15.4,47.5z M17.8,47.5h-2V44h2V47.5z M20.2,47.5h-2V44h2V47.5z M22.5,47.5h-2V44h2V47.5z
		 M24.9,47.5h-2V44h2V47.5z M27.3,47.5h-2V44h2V47.5z M29.7,47.5h-2V44h2V47.5z M32.1,47.5h-2.1V44h2.1V47.5z"/>
	<path class="st0" d="M6,55.4v4h26.6v-4H6z M8.3,59.1h-2v-3.5h2L8.3,59.1z M10.7,59.1h-2v-3.5h2L10.7,59.1z M13.1,59.1h-2v-3.5h2
		L13.1,59.1z M15.4,59.1h-2v-3.5h2L15.4,59.1z M17.8,59.1h-2v-3.5h2V59.1z M20.2,59.1h-2v-3.5h2V59.1z M22.5,59.1h-2v-3.5h2V59.1z
		 M24.9,59.1h-2v-3.5h2V59.1z M27.3,59.1h-2v-3.5h2V59.1z M29.7,59.1h-2v-3.5h2V59.1z M32.1,59.1h-2.1v-3.5h2.1V59.1z"/>
	<path class="st0" d="M6,67v4h26.6v-4H6z M8.3,70.7h-2v-3.5h2L8.3,70.7z M10.7,70.7h-2v-3.5h2L10.7,70.7z M13.1,70.7h-2v-3.5h2
		L13.1,70.7z M15.4,70.7h-2v-3.5h2L15.4,70.7z M17.8,70.7h-2v-3.5h2V70.7z M20.2,70.7h-2v-3.5h2V70.7z M22.5,70.7h-2v-3.5h2V70.7z
		 M24.9,70.7h-2v-3.5h2V70.7z M27.3,70.7h-2v-3.5h2V70.7z M29.7,70.7h-2v-3.5h2V70.7z M32.1,70.7h-2.1v-3.5h2.1V70.7z"/>
	<path class="st0" d="M6,78.5v4h26.6v-4H6z M8.3,82.3h-2v-3.5h2L8.3,82.3z M10.7,82.3h-2v-3.5h2L10.7,82.3z M13.1,82.3h-2v-3.5h2
		L13.1,82.3z M15.4,82.3h-2v-3.5h2L15.4,82.3z M17.8,82.3h-2v-3.5h2V82.3z M20.2,82.3h-2v-3.5h2V82.3z M22.5,82.3h-2v-3.5h2V82.3z
		 M24.9,82.3h-2v-3.5h2V82.3z M27.3,82.3h-2v-3.5h2V82.3z M29.7,82.3h-2v-3.5h2V82.3z M32.1,82.3h-2.1v-3.5h2.1V82.3z"/>
	<path class="st0" d="M6.1,90.1c0.1,0.4,0.2,0.7,0.3,1.1v-0.9h2v3.5h-1c0,0.1,0.1,0.2,0.1,0.2h25.2v-4H6.1z M10.7,93.9h-2v-3.5h2
		L10.7,93.9z M13.1,93.9h-2v-3.5h2L13.1,93.9z M15.4,93.9h-2v-3.5h2L15.4,93.9z M17.8,93.9h-2v-3.5h2V93.9z M20.2,93.9h-2v-3.5h2
		V93.9z M22.5,93.9h-2v-3.5h2V93.9z M24.9,93.9h-2v-3.5h2V93.9z M27.3,93.9h-2v-3.5h2V93.9z M29.7,93.9h-2v-3.5h2V93.9z M32.1,93.9
		h-2.1v-3.5h2.1V93.9z"/>
	<path class="st0" d="M11.6,101.7c0.1,0.1,0.1,0.2,0.2,0.2h1.3v1.7c0.1,0.2,0.3,0.3,0.4,0.5V102h2v3.5h-0.8c0.1,0.1,0.2,0.2,0.2,0.2
		h17.7v-4L11.6,101.7z M17.8,105.4h-2V102h2V105.4z M20.2,105.4h-2V102h2V105.4z M22.5,105.4h-2V102h2V105.4z M24.9,105.4h-2V102h2
		V105.4z M27.3,105.4h-2V102h2V105.4z M29.7,105.4h-2V102h2V105.4z M32.1,105.4h-2.1V102h2.1V105.4z"/>
	<path class="st0" d="M24.7,113.3c0.2,0.1,0.5,0.2,0.7,0.4v-0.1h2v1.1l0.4,0.2v-1.3h2v2.1l0.4,0.2v-2.3h2.1v3l0.4,0.1v-3.4H24.7z"/>
	<path class="st0" d="M127.8,96.5"/>
</g>
<path class="st2" d="M106.7,161.9l-0.2-0.1L106.7,161.9z"/>
<path class="st2" d="M106.9,161.9l-0.1,0L106.9,161.9z"/>
<path class="st2" d="M103.3,160.5L103.3,160.5z"/>
<path class="st2" d="M103.3,160.5L103.3,160.5z"/>
<path class="st2" d="M106.7,161.9L106.7,161.9L106.7,161.9z"/>
<g>
	<path class="st3" d="M235.7,95.7l-1.7-7.1c2.2-2.7,4.5-5.2,6.9-7.6l1.7,2.8l-0.9-3.6c3.1-2.9,5.3-4.7,5.3-4.7s3.3,14.4,1.4,27.8
		l-7.3,5.7l6.7-2.4c-0.3,1.5-0.7,3-1.2,4.5c-5.2,14.8-14.1,25-20,22.9c-5.9-2.1-6.5-15.8-1.3-30.5c1.6-4.6,4.3-9,7.3-12.9
		L235.7,95.7z"/>
	<path class="st4" d="M253.5,110.6l4.4-5.8c3.4,0,6.8,0.2,10.2,0.5l-1.1,3.1l2.3-3c4.2,0.5,6.9,1.1,6.9,1.1s-9.1,11.8-20.6,18.9
		l-9-2.1l6.1,3.7c-1.4,0.7-2.8,1.4-4.2,1.9c-14.7,5.4-28.2,5-30.3-1c-2.1-6,8.1-15.2,22.8-20.6c4.5-1.7,9.7-2.4,14.6-2.6
		L253.5,110.6z"/>
</g>
<g>
	<path class="st5" d="M18.4,111.5c0.2,0.1,0.5,0.2,0.7,0.4v-0.1h1.9v1.1l0.4,0.2v-1.3h1.9v2.1l0.4,0.2v-2.3h2.1v3l0.4,0.1v-3.4H18.4
		z"/>
	<path class="st6" d="M221.7,136.5l2.5,2.6l4-7l-0.4-0.8L221.7,136.5z"/>
	<path class="st7" d="M221.7,136.5l2.5,2.6l4-7l-0.4-0.8L221.7,136.5z"/>
	<path class="st8" d="M45.6,130.5c0,13.3-9.1,16.1-18.2,16.1c-9.1,0-14.3-11.2-14.3-24.5c0-13.3,7.4-24.1,16.5-24.1
		S45.6,117.3,45.6,130.5z"/>
	<path class="st7" d="M45.6,130.5c0,13.3-9.1,16.1-18.2,16.1c-9.1,0-14.3-11.2-14.3-24.5c0-13.3,7.4-24.1,16.5-24.1
		S45.6,117.3,45.6,130.5z"/>
	<path class="st8" d="M39.3,122.6c0,13.3-5.9,24.1-13.1,24.1c-7.2,0-13.4-10.8-13.4-24.1c0-1.8-0.3-3.6-0.1-5.3
		c1.3-10.7,7.2-18.7,13.4-18.7C33.4,98.5,39.3,109.3,39.3,122.6z"/>
	<path class="st6" d="M38,64c0,0-11.5,12.9-15.1,23.6l99,10.9l53-10.9c0,0-21-25.2-26.7-26.1C142.6,60.5,38,64,38,64z"/>
	<path class="st9" d="M38,64c0,0-11.5,12.9-15.1,23.6l99,10.9l53-10.9c0,0-21-25.2-26.7-26.1C142.6,60.5,38,64,38,64z"/>
	<path class="st6" d="M110.6,96.7l15.9,44.6V130l4.4-12.6l12.3-5.4l15.5,7.1l5.6,1.7l0.5-10.3l-18.5-9.1l-8.6-4.1L118,95.5l-5.4-1
		L110.6,96.7z"/>
	<path class="st6" d="M117.7,101.4l14.5,1.7c-0.7-5.8,3.6-5.8,3.6-5.8l-14.5-2.5h-6.8"/>
	<path class="st8" d="M126.5,148.2h10.3l29.7-1c0,0,0.6,5.7,8.5,4.3c0,0,4.3,0.3,4.8-2.1c0.5-2.3-9.8-24-9.8-24l-14-10.4l-12.7-3.1
		l-9.1,2.7l-5.8,9.2l-3.6,12.6L126.5,148.2z"/>
	<path class="st7" d="M126.5,148.2h10.3l29.7-1c0,0,0.6,5.7,8.5,4.3c0,0,4.3,0.3,4.8-2.1c0.5-2.3-9.8-24-9.8-24l-14-10.4l-12.7-3.1
		l-9.1,2.7l-5.8,9.2l-3.6,12.6L126.5,148.2z"/>
	<path class="st6" d="M40,67.1c-1.5,1.2-6.1,5.5-10,14.6c-0.1,0.3-0.2,0.7-0.2,1c0,0.3,0.1,0.7,0.3,1c0.2,0.3,0.4,0.5,0.7,0.7
		c0.3,0.2,0.6,0.3,0.9,0.4l23.3,3c0.9,0.1,1.7-0.1,2.4-0.6c0.7-0.5,1.2-1.2,1.4-2.1L63,68.4c0.1-0.2,0.1-0.5,0-0.8
		c-0.1-0.2-0.2-0.5-0.3-0.7c-0.2-0.2-0.4-0.4-0.6-0.5c-0.2-0.1-0.5-0.2-0.7-0.2L41,66.7C40.6,66.7,40.3,66.9,40,67.1z"/>
	<path class="st10" d="M40,67.1c-1.5,1.2-6.1,5.5-10,14.6c-0.1,0.3-0.2,0.7-0.2,1c0,0.3,0.1,0.7,0.3,1c0.2,0.3,0.4,0.5,0.7,0.7
		c0.3,0.2,0.6,0.3,0.9,0.4l23.3,3c0.9,0.1,1.7-0.1,2.4-0.6c0.7-0.5,1.2-1.2,1.4-2.1L63,68.4c0.1-0.2,0.1-0.5,0-0.8
		c-0.1-0.2-0.2-0.5-0.3-0.7c-0.2-0.2-0.4-0.4-0.6-0.5c-0.2-0.1-0.5-0.2-0.7-0.2L41,66.7C40.6,66.7,40.3,66.9,40,67.1z"/>
	<path class="st6" d="M73.8,66.3l26.2-0.2c1.9,0,3.6,1.2,4.2,3.2l8.2,18.6c0.7,2.2-0.8,4.4-3,4.3l-38.3-2.5
		c-3.2-0.2-5.4-3.4-4.7-6.8l2.8-12.6C69.7,68,71.6,66.3,73.8,66.3z"/>
	<path class="st10" d="M73.8,66.3l26.2-0.2c1.9,0,3.6,1.2,4.2,3.2l8.2,18.6c0.7,2.2-0.8,4.4-3,4.3l-38.3-2.5
		c-3.2-0.2-5.4-3.4-4.7-6.8l2.8-12.6C69.7,68,71.6,66.3,73.8,66.3z"/>
	<path class="st6" d="M114.6,66c7.2-0.1,26.2-0.7,35.6-2.8c0,0,16.2,12.2,21.1,21.4c0,0-25.3,6.2-42.7,7c-1.3,0.1-2.6-0.3-3.7-0.9
		c-1.1-0.7-2-1.6-2.6-2.8L113,68.6c-0.1-0.3-0.2-0.6-0.2-0.9c0-0.3,0.1-0.6,0.3-0.9s0.4-0.5,0.6-0.6C114,66.1,114.3,66,114.6,66z"/>
	<path class="st10" d="M114.6,66c7.2-0.1,26.2-0.7,35.6-2.8c0,0,16.2,12.2,21.1,21.4c0,0-25.3,6.2-42.7,7c-1.3,0.1-2.6-0.3-3.7-0.9
		c-1.1-0.7-2-1.6-2.6-2.8L113,68.6c-0.1-0.3-0.2-0.6-0.2-0.9c0-0.3,0.1-0.6,0.3-0.9s0.4-0.5,0.6-0.6C114,66.1,114.3,66,114.6,66z"/>
	<path class="st11" d="M123.6,68.8c3-0.1,8.8-0.2,14.5-0.6c4.2-0.3,8.4,0.3,12.3,1.9c3.9,1.6,7.4,4,10.2,7.2l0.2,0.2
		c0.4,0.5,0.7,1,0.8,1.6c0.1,0.6,0.1,1.2-0.1,1.8c-0.2,0.6-0.5,1.1-1,1.5c-0.5,0.4-1,0.7-1.6,0.8c-6.3,1.3-17,3.4-25.2,3.8
		c-0.9,0-1.9-0.2-2.7-0.7c-0.8-0.5-1.4-1.2-1.8-2l-6.6-13.7c-0.1-0.2-0.1-0.4-0.1-0.6c0-0.2,0.1-0.4,0.2-0.6
		c0.1-0.2,0.3-0.3,0.5-0.4C123.2,68.9,123.4,68.8,123.6,68.8z"/>
	<path class="st6" d="M126.5,141.3v6.9l-75.8-11.6c-3.7-1.3-5.9-0.5-5.9-0.5c-2.7-1.3-4.7-6.5-4.8-6.7l1.4-4.1L29.8,106l-15.5,0.6
		c2.4-19.4,9.4-20.4,9.4-20.4l90.8,8.4L126.5,141.3z"/>
	<path class="st2" d="M110.2,100.4c-0.6,0.7-1.7,1.2-3.7,1.2c-3.1-0.1-3.7-2.7-3.7-4.3c0-0.4,0-0.8,0-1.1l4-1.2l0.8,0.8l2.4,2.3
		c0.3,0.3,0.5,0.7,0.5,1.2C110.6,99.6,110.5,100.1,110.2,100.4z"/>
	<path class="st12" d="M110.2,100.2c-0.6,0.7-1.7,1.2-3.7,1.2c-3.1-0.1-3.7-2.7-3.7-4.3c0-0.4,0-0.8,0-1.1l4-1.2l0.8,0.8l2.4,2.3
		c0.3,0.3,0.5,0.7,0.5,1.2C110.6,99.4,110.5,99.9,110.2,100.2z"/>
	<path class="st2" d="M107.7,95.5c-0.5,1.3-2,1.7-2,1.7l-2.8-0.1c0-0.4,0-0.8,0-1.1l4-1.2L107.7,95.5z"/>
	<path class="st13" d="M97.4,85.5c0,0-6.4,0.9-4.7,6.7c1.3,4.4,4.2,4.7,5.5,4.6c0.8-0.1,1.5-0.1,2.3-0.1l5.1,0.1
		c0,0,2.9-0.7,2.1-3.6C106.9,90.3,103.2,85,97.4,85.5z"/>
	<path class="st7" d="M62.6,103c1.6,0,3-1.7,3-3.9s-1.3-3.9-3-3.9c-1.6,0-3,1.7-3,3.9S60.9,103,62.6,103z"/>
	<path class="st2" d="M67.7,98.5l-8.4-0.9c-0.7-0.1-1.4,0.4-1.4,1.2l0,0c-0.1,0.7,0.4,1.4,1.2,1.4l8.4,0.9c0.7,0.1,1.4-0.4,1.4-1.2
		l0,0C68.9,99.2,68.4,98.6,67.7,98.5z"/>
	<path class="st13" d="M67.7,98.3l-8.4-0.9c-0.7-0.1-1.4,0.4-1.4,1.2l0,0c-0.1,0.7,0.4,1.4,1.2,1.4l8.4,0.9c0.7,0.1,1.4-0.4,1.4-1.2
		l0,0C68.9,99,68.4,98.3,67.7,98.3z"/>
	<path class="st2" d="M13.4,124.4c0,0-5.3-5.3,1.1-17.9c0,0,8.3-12.5,21.1,1.2c0,0,7.4,8.3,9.5,21.4l-5,0.1c0,0-4.8-23.4-19-22.2
		C21.3,107,11,108.8,13.4,124.4z"/>
	<path class="st2" d="M13.2,125c0,0-5.3-5.2,1.1-17.9c0,0,8.3-12.5,21.1,1.2c0,0,7.4,8.3,9.5,21.4l-5,0.1c0,0-4.8-23.4-19-22.2
		C21,107.6,10.7,109.5,13.2,125z"/>
	<path class="st6" d="M13.2,124.6c0,0-5.3-5.3,1.1-17.9c0,0,8.3-12.5,21.1,1.2c0,0,7.4,8.3,9.5,21.4l-5,0.1c0,0-4.8-23.4-19-22.2
		C21,107.2,10.7,109,13.2,124.6z"/>
	<path class="st7" d="M13.2,124.6c0,0-5.3-5.3,1.1-17.9c0,0,8.3-12.5,21.1,1.2c0,0,7.4,8.3,9.5,21.4l-5,0.1c0,0-4.8-23.4-19-22.2
		C21,107.2,10.7,109,13.2,124.6z"/>
	<path class="st2" d="M126.5,141.1v6.9l-75.8-11.6c-3.7-1.3-5.9-0.5-5.9-0.5c-2.7-1.3-4.7-6.5-4.8-6.7l5-0.1l14.6,2l53,7.6
		c0,0,9.4,1.1,9.9,1.5C123.1,140.6,126.5,141.1,126.5,141.1z"/>
	<path class="st6" d="M126.5,141.3v6.9l-75.8-11.6c-3.7-1.3-5.9-0.5-5.9-0.5c-2.7-1.3-4.7-6.5-4.8-6.7l5-0.1l14.6,2l53,7.6
		c0,0,9.4,1.1,9.9,1.5C123.1,140.9,126.5,141.3,126.5,141.3z"/>
	<path class="st7" d="M126.5,141.3v6.9l-75.8-11.6c-3.7-1.3-5.9-0.5-5.9-0.5c-2.7-1.3-4.7-6.5-4.8-6.7l5-0.1l14.6,2l53,7.6
		c0,0,9.4,1.1,9.9,1.5C123.1,140.9,126.5,141.3,126.5,141.3z"/>
	<path class="st7" d="M59.5,131.4c-4.7-15.1-4.5-25.7-3.4-31.8c1.1-6.7,3.4-9.9,3.4-9.9l0.2,0.1c0,0-2.3,3.2-3.4,9.8
		c-1,6.2-1.3,16.7,3.4,31.7L59.5,131.4z"/>
	<path class="st6" d="M229.5,124.7c0.2,0.7,0.6,2.6-0.1,3.2c-0.3,0.2-0.5,0.7-0.7,1.3c-0.3,1-0.5,2-0.6,3l-7.3,8.1l-12.3,4.8
		l-29.5,2l-17.8-28.9l-40-23.5l10.9-0.6c10.9-0.6,41.9-7.5,41.9-7.5l35,7.7c5.7,1.2,10.7,4.5,14.1,9.3c4.3,6,6.2,12.4,6.2,12.4
		c0.5,0.6,0.7,1.7,0.8,2.8c0,1.8-0.4,4-0.6,5c-0.1,0.4-0.1,0.6-0.1,0.6S229.5,124.6,229.5,124.7z"/>
	<path class="st2" d="M122.5,140c0,0-2.1-22.9,13.9-29.1c0,0,22.6-9.5,35.9,16.4l6.7,14.8c0,0,1.9,3.6,7.2,3.5
		c0,0,24.8-0.7,37.8-9.1l4.1-4.7c0,0-2,6.6-4.1,8.1c0,0-8,9.4-37.3,11.1c0,0-12,1.3-15.6-10.1c0,0-4.9-25.7-29.8-25.5
		c0,0-14.6,0.3-15,25.4L122.5,140z"/>
	<path class="st6" d="M122.5,140.4c0,0-2.1-22.9,13.9-29.1c0,0,22.6-9.5,35.9,16.4l6.7,14.8c0,0,1.9,3.6,7.2,3.5
		c0,0,24.8-0.7,37.8-9.1l4.1-4.7c0,0-2,6.6-4.1,8.1c0,0-8,9.4-37.3,11.1c0,0-12,1.3-15.6-10.1c0,0-4.9-25.7-29.8-25.5
		c0,0-14.6,0.3-15,25.4L122.5,140.4z"/>
	<path class="st7" d="M122.5,140.4c0,0-2.1-22.9,13.9-29.1c0,0,22.6-9.5,35.9,16.4l6.7,14.8c0,0,1.9,3.6,7.2,3.5
		c0,0,24.8-0.7,37.8-9.1l4.1-4.7c0,0-2,6.6-4.1,8.1c0,0-8,9.4-37.3,11.1c0,0-12,1.3-15.6-10.1c0,0-4.9-25.7-29.8-25.5
		c0,0-14.6,0.3-15,25.4L122.5,140.4z"/>
	<path class="st7" d="M118.8,139.7l-1-31.9c0.1-2.2,0-4.3-0.2-6.5c0-0.1-0.8-3.4-1.8-5.3c-0.7-1-1.2-1.3-1.2-1.3l-0.6-0.2l0.6,0
		c0.4,0.1,0.9,0.5,1.2,1.2c0.7,1,1.5,2.7,2,5.5c0.3,2.2,0.4,4.3,0.2,6.5l1,31.9L118.8,139.7z"/>
	<path class="st7" d="M138.5,116.1l-0.2,0c0,0-0.4-2.7-1.9-4.8c-3.1-4.4-4.1-7.4-4.2-9.4c-0.1-0.7,0-1.4,0.2-2
		c0.5-1.3,1.8-2.3,3.5-2.8l0.4,0.1c-1.7,0.5-3.2,1.6-3.7,2.8c-0.2,0.6-0.3,1.3-0.2,2c0.1,2,1.1,4.9,4.2,9.2
		C138,113.4,138.5,116.1,138.5,116.1z"/>
	<path class="st7" d="M207.1,105.7c-13.7-8.1-42.6-15.7-42.9-15.8l0.1-0.2c0.3,0.1,29.2,7.7,42.9,15.8L207.1,105.7z"/>
	<path class="st7" d="M227,117c-5.2-9.1-19-16.5-29.8-21.2c-7.3-3.1-14.7-5.8-22.3-8.1l0.1-0.2c7.6,2.2,15.1,4.9,22.3,8.1
		c10.8,4.7,24.7,12.2,29.9,21.3L227,117z"/>
	<path class="st2" d="M227.3,114.4c1.1-0.8-0.9-5.2-4.3-9.9c-3.5-4.6-7.2-7.7-8.3-6.9c-1.1,0.8,0.9,5.2,4.3,9.9
		C222.5,112.1,226.2,115.2,227.3,114.4z"/>
	<path class="st12" d="M227.3,114c1.1-0.8-0.9-5.2-4.3-9.9s-7.2-7.7-8.3-6.9c-1.1,0.8,0.9,5.2,4.3,9.9
		C222.5,111.7,226.2,114.8,227.3,114z"/>
	<path class="st2" d="M226.5,112.5c0.7-0.5-1.1-4.1-3.9-7.9c-2.9-3.8-5.8-6.5-6.5-6c-0.7,0.5,1.1,4.1,3.9,7.9
		C222.9,110.4,225.8,113.1,226.5,112.5z"/>
	<path class="st13" d="M226.5,112.3c0.7-0.5-1.1-4.1-3.9-7.9c-2.9-3.8-5.8-6.5-6.5-6c-0.7,0.5,1.1,4.1,3.9,7.9
		C222.9,110.2,225.8,112.9,226.5,112.3z"/>
	<path class="st2" d="M195.2,122.1c0,0,0.7-5.3,4.8-6.4c0,0,14-4.1,17.1-4.1c0,0,3.2-1,5.3,1.4l2.1,2.9c0,0,1.5,2.4-1.8,2.8
		c0,0-17,6.2-24.3,6.9c-0.4,0-0.8,0.1-1.2,0.2C196.1,125.9,193.8,125.9,195.2,122.1z"/>
	<path class="st13" d="M195.4,121.8c0,0,0.7-5.3,4.8-6.4c0,0,14-4.1,17.1-4.1c0,0,3.2-1,5.3,1.4l2.1,2.9c0,0,1.5,2.4-1.8,2.8
		c0,0-17,6.2-24.3,6.9c-0.4,0-0.8,0.1-1.2,0.2C196.3,125.6,194,125.7,195.4,121.8z"/>
	<path class="st2" d="M196.9,121.4c0,0,0.6-4.5,4.5-5.5c0,0,13.1-3.5,15.9-3.5c0,0,2.9-0.8,4.9,1.2l2,2.5c0,0,1.4,2-1.7,2.4
		c0,0-15.8,5.3-22.6,5.9c-0.4,0-0.8,0.1-1.1,0.2C197.7,124.6,195.6,124.7,196.9,121.4z"/>
	<path class="st8" d="M197.1,121.2c0,0,0.6-4.5,4.5-5.5c0,0,13.1-3.5,15.9-3.5c0,0,2.9-0.8,4.9,1.2l2,2.5c0,0,1.4,2-1.7,2.4
		c0,0-15.8,5.3-22.6,5.9c-0.4,0-0.8,0.1-1.1,0.2C197.9,124.4,195.8,124.5,197.1,121.2z"/>
	<path class="st13" d="M198.2,118.4l0-0.2c0.2,0,19.3-2.4,23.4-5.6l0.1,0.2C217.6,116,199,118.3,198.2,118.4z"/>
	<path class="st13" d="M197.2,120.9l0-0.2c0.2,0,21.2-3.9,25.7-6.7l0.1,0.2C218.5,117,197.5,120.8,197.2,120.9z"/>
	<path class="st13" d="M196.7,122.9l0-0.2c0.2,0,24.4-4.6,27.4-7.3l0.1,0.2C221.2,118.3,197.7,122.7,196.7,122.9z"/>
	<path class="st2" d="M221.9,123c0,0-9.1,3.8-18.7,5.5c-0.8,0.2-1.7,0.3-2.5,0.6c-1,0.3-2.3,0.6-3.1,0.4c-1.2-0.3-1.9,1.2-0.6,2.4
		l0.1,0.1c0.5,0.4,1,0.7,1.7,0.9c0.6,0.2,1.3,0.3,1.9,0.2l2-0.2c0,0,16.6-3.6,21.2-6.5c0,0,2.1-1.5,2.3-3.1c0.2-1.6,0.4-2.9-1.3-2
		C223.2,122.3,221.9,123,221.9,123z"/>
	<path class="st13" d="M222.1,122.8c-0.3,0.1-9.3,3.8-18.7,5.5c-0.8,0.2-1.7,0.3-2.5,0.6c-1,0.3-2.3,0.6-3.1,0.4
		c-1.2-0.3-1.9,1.2-0.6,2.4l0,0c0.5,0.4,1.1,0.8,1.7,1c0.6,0.2,1.3,0.3,1.9,0.2l2-0.2h0c0.6-0.1,16.7-3.7,21.2-6.5h0
		c0.1-0.1,2.1-1.5,2.3-3.1c0.2-1.6,0.4-2.9-1.3-2C223.5,122.1,222.2,122.8,222.1,122.8L222.1,122.8z"/>
	<path class="st2" d="M220.9,124c0,0-7.5,3.1-15.5,4.9c-0.8,0.2-1.6,0.4-2.4,0.6c-0.8,0.2-1.9,0.5-2.5,0.4c-1.1-0.1-1.6,0.9-0.4,1.6
		l0,0c0.9,0.5,2,0.8,3,0.6l1.8-0.2c0,0,14-3.5,17.8-5.7c0,0,1.7-1.1,1.8-2.2s0.2-2-1.2-1.2C222,123.4,220.9,124,220.9,124z"/>
	<path class="st8" d="M221.1,123.8c-0.2,0.1-7.5,3.1-15.5,4.9c-0.8,0.2-1.6,0.4-2.4,0.6s-1.9,0.5-2.5,0.4c-1.1-0.1-1.6,0.9-0.4,1.6
		c0.9,0.6,2,0.8,3.1,0.6l1.8-0.2c0.3-0.1,14-3.5,17.8-5.7c0.1,0,1.7-1.1,1.8-2.2c0-1.1,0.2-2-1.2-1.2
		C222.2,123.3,221.1,123.8,221.1,123.8L221.1,123.8z"/>
	<path class="st2" d="M190.6,133c0.1-1.6-0.8-2.9-1.9-2.9c-1.2-0.1-2.1,1.2-2.2,2.7c-0.1,1.6,0.8,2.9,1.9,2.9
		C189.6,135.8,190.6,134.6,190.6,133z"/>
	<path class="st13" d="M190.6,133c0.1-1.6-0.8-2.9-1.9-2.9c-1.1-0.1-2.1,1.2-2.2,2.7c-0.1,1.6,0.8,2.9,1.9,2.9
		C189.5,135.7,190.5,134.5,190.6,133z"/>
	<path class="st2" d="M200.8,135c0,0-10.9,1.7-13.8,1.8c-2.9,0.2-3.3,1.8-3.3,1.8s-0.7,4.1,3.3,2.9l14.3-1.6c0,0,1.9,0.1,1.9-2.6
		v-0.6c0-0.3,0-0.7,0.1-1C203.3,135.3,203.1,134.7,200.8,135z"/>
	<path class="st13" d="M201,134.8c0,0-10.9,1.7-13.8,1.8c-2.9,0.2-3.3,1.8-3.3,1.8s-0.7,4.1,3.3,2.9l14.3-1.6c0,0,1.9,0.1,1.9-2.6
		v-0.6c0-0.3,0-0.7,0.1-1C203.6,135.1,203.3,134.5,201,134.8z"/>
	<path class="st13" d="M229.5,127.9c-0.3,0.2-0.5,0.7-0.7,1.3l-3.5,2.5c0,0-0.1,0-0.1,0.1c-0.1,0-0.1,0-0.2,0c0,0-0.1-0.1-0.1-0.1
		c0,0,0-0.1,0-0.1v-2.6c0-0.4,0.1-0.7,0.3-1.1c0.2-0.3,0.5-0.6,0.8-0.8l3.7-2.2C229.7,125.4,230.2,127.4,229.5,127.9z"/>
	<path class="st8" d="M204.5,135.2l-0.2,2.7c0,0.3,0,0.5,0.1,0.8c0.1,0.2,0.2,0.5,0.4,0.7c0.2,0.2,0.4,0.3,0.7,0.4
		c0.3,0.1,0.5,0.1,0.8,0.1c6-1,11.8-3,17.1-6.1l0.5-5.4c0-0.1,0-0.3-0.1-0.4c-0.1-0.1-0.1-0.2-0.2-0.3c-0.1-0.1-0.2-0.1-0.4-0.1
		c-0.1,0-0.3,0-0.4,0.1c-3,1.3-11,4.7-16.1,5.4c-0.6,0.1-1.1,0.4-1.5,0.8C204.7,134,204.5,134.6,204.5,135.2z"/>
	<path class="st6" d="M206.1,133.8v4.3c0,0,13.3-3.1,16.2-5.3v-4.1C217.2,131.1,211.7,132.8,206.1,133.8z"/>
	<path class="st6" d="M229.4,124.1c-0.7,0-1.2-1.2-1.2-2.6c0-1.4,0.6-2.6,1.2-2.6c0.1,0,0.2,0,0.3,0.1c0.1,0,0.2,0.1,0.3,0.2
		C230.1,121,229.6,123.1,229.4,124.1z"/>
	<path class="st13" d="M229.6,123.9c-0.7,0-1.2-1.2-1.2-2.6c0-1.4,0.6-2.6,1.2-2.6c0.1,0,0.2,0,0.3,0.1c0.1,0,0.2,0.1,0.3,0.2
		C230.3,120.8,229.8,122.9,229.6,123.9z"/>
	<path class="st8" d="M168.5,142.2c0,23.5-10,24.1-22.9,24.1c-10.4,0-14.6-10.8-14.6-24.1c0-13.3,3.3-24,13.7-24
		C155,118.1,168.5,128.9,168.5,142.2z"/>
	<path class="st7" d="M168.5,142.2c0,23.5-10,24.1-22.9,24.1c-10.4,0-14.6-10.8-14.6-24.1c0-13.3,3.3-24,13.7-24
		C155,118.1,168.5,128.9,168.5,142.2z"/>
	<path class="st8" d="M144,166.2c7.2,0,13.1-10.8,13.1-24.1c0-13.3-5.9-24.1-13.1-24.1c-7.2,0-13.1,10.8-13.1,24.1
		C130.9,155.5,136.8,166.2,144,166.2z"/>
	<path class="st13" d="M31.9,127.9c0,7.2-2.1,13-6.4,13S16,135,16,127.8c0-7.2,1.8-13.6,6.1-13.6C26.5,114.3,31.9,120.7,31.9,127.9z
		"/>
	<path class="st8" d="M31.9,127.6c0,0.5,0,1.1,0,1.6c-0.1,1.4-0.3,2.8-0.6,4.1c-0.7,2.7-2,4.5-3.9,4.9c-0.2,0-0.4,0.1-0.7,0.1
		c-1,0-2-0.3-2.8-0.9c-1.8-1.1-3.4-3.3-4.3-5.9c-0.3-1-0.5-2-0.6-3c0-0.3,0-0.6,0-0.8c0-2,0.2-3.9,0.6-5.8c0.2-1.2,0.7-2.3,1.3-3.3
		c0.8-1.2,1.8-1.9,3.1-1.9c1,0,1.9,0.4,2.7,0.9c1.2,0.8,2.2,1.9,3,3.1C31.1,122.6,31.9,125.1,31.9,127.6z"/>
	<path class="st13" d="M31.9,129.2c-0.1,1.4-0.3,2.8-0.6,4.1c-0.1-0.1-2.5-2.9-4.4-1.1c-1.4,1.3-0.2,4.4,0.5,6
		c-0.2,0-0.4,0.1-0.7,0.1c-1,0-2-0.3-2.8-0.9v-0.2c0,0,1.1-3.4-1.8-5.5c0,0-1.4-0.6-2.5-0.2c-0.3-1-0.5-2-0.6-3
		c0.2-0.2,2-1.7,1.3-4.4c-0.2-0.8-0.4-1.5-0.7-2.3c0.2-1.2,0.7-2.3,1.3-3.3c0,0,0.6,3,2.7,3.2c2.1,0.2,3.1-4.1,3.1-4.2
		c1.2,0.8,2.2,1.9,3,3.1c0,0-3.4,1.4-2.4,5.2C28,128.4,30.5,129.1,31.9,129.2z"/>
	<path class="st8" d="M25,129.8c0.9-0.1,1.4-1.5,1.2-3s-1.1-2.7-2-2.5c-0.9,0.1-1.4,1.5-1.2,3C23.2,128.8,24.1,129.9,25,129.8z"/>
	<path class="st13" d="M146.3,143.2c0,8.7-1.8,15.6-5.7,15.6c-3.8,0-8.4-7-8.4-15.7c0-8.7,1.6-16.3,5.4-16.3
		C141.5,126.8,146.3,134.5,146.3,143.2z"/>
	<path class="st8" d="M146.3,142.9c0,0.7,0,1.3,0,1.9c-0.1,1.7-0.2,3.3-0.5,4.9c-0.6,3.2-1.7,5.4-3.4,5.8c-0.2,0-0.4,0.1-0.6,0.1
		c-0.8,0-1.6-0.4-2.4-1.1c-1.6-1.4-3-3.9-3.8-7.1c-0.3-1.2-0.4-2.4-0.5-3.6c0-0.3,0-0.7,0-1c0-2.3,0.2-4.7,0.5-7
		c0.2-1.4,0.6-2.7,1.1-4c0.7-1.4,1.6-2.3,2.7-2.3c0.8,0,1.6,0.4,2.4,1.1c1,0.8,1.9,2.1,2.6,3.7C145.7,137,146.3,139.9,146.3,142.9z"
		/>
	<path class="st13" d="M146.3,144.8c-0.1,1.6-0.2,3.3-0.5,4.9c-0.1-0.1-2.2-3.5-3.9-1.3c-1.2,1.6-0.2,5.2,0.5,7.2
		c-0.2,0-0.4,0.1-0.6,0.1c-0.8,0-1.6-0.4-2.4-1.1v-0.2c0,0,1-4.1-1.6-6.6c0,0-1.2-0.7-2.2-0.3c-0.3-1.2-0.4-2.4-0.5-3.6
		c0.2-0.2,1.7-2,1.1-5.3c-0.2-1.2-0.4-2.1-0.6-2.7c0.2-1.4,0.6-2.7,1.1-4c0,0,0.5,3.6,2.4,3.9c1.9,0.2,2.7-4.9,2.7-5.1
		c1,0.8,1.9,2.1,2.6,3.7c0,0-3,1.7-2.1,6.2C142.9,143.8,145.1,144.6,146.3,144.8z"/>
	<path class="st8" d="M139.5,145.8c0.8-0.1,1.3-1.6,1.1-3.4c-0.1-1.8-0.9-3.3-1.7-3.2c-0.8,0.1-1.3,1.6-1.1,3.4
		C137.9,144.4,138.7,145.9,139.5,145.8z"/>
	<path class="st7" d="M175.3,105.5l-0.1,0.2c-0.1,0-7.5-3.2-35-7.9c-1.3-0.2-2.6-0.4-4-0.7c-0.1,0-0.2,0-0.4-0.1
		c-4.4-0.7-9.3-1.5-14.6-2.2l0-0.2c7.3,1,13.6,2,19.1,3C167.9,102.3,175.3,105.5,175.3,105.5z"/>
	<path class="st2" d="M36.1,64.8c0,0,2.5-4.2,11-4.6c0,0,62.2-8.1,101.5,0.3c0,0,3.4,1.5-0.3,2.4S61,66.8,36.1,64.8z"/>
	<path class="st13" d="M36.1,64.4c0,0,2.5-4.2,11-4.6c0,0,62.2-8.1,101.5,0.3c0,0,3.4,1.5-0.3,2.4S61,66.4,36.1,64.4z"/>
	<path class="st2" d="M30.2,82.1c3.9-9.1,8.5-13.4,10-14.6c0.3-0.2,0.6-0.4,1-0.4l20.4-0.4c0.3,0,0.5,0.1,0.8,0.2
		c0.2,0.1,0.5,0.3,0.6,0.5c-0.1-0.3-0.3-0.6-0.6-0.8c-0.3-0.2-0.6-0.3-1-0.3L41,66.7c-0.4,0-0.7,0.1-1,0.4c-1.5,1.2-6.1,5.5-10,14.6
		c-0.1,0.3-0.2,0.7-0.2,1.1c0,0.4,0.1,0.7,0.3,1C30,83.2,30,82.7,30.2,82.1z"/>
	<path class="st2" d="M66.9,83.2l2.8-12.6c0.5-2.3,2.4-3.9,4.6-3.9l26.2-0.2c1,0,2,0.3,2.7,1c-0.4-0.4-0.9-0.8-1.4-1
		c-0.5-0.2-1.1-0.4-1.7-0.4l-26.2,0.2c-2.2,0-4.1,1.6-4.6,3.9l-2.8,12.6c-0.2,1-0.2,2.1,0.1,3.1c0.3,1,0.9,1.9,1.7,2.6
		c-0.6-0.7-1.1-1.5-1.4-2.4C66.7,85,66.7,84.1,66.9,83.2z"/>
	<path class="st2" d="M123.6,88.5l-9.3-19.2c-0.1-0.3-0.2-0.6-0.2-0.9c0-0.3,0.1-0.6,0.3-0.9c0.2-0.3,0.4-0.5,0.6-0.6
		c0.3-0.2,0.6-0.2,0.9-0.2c7.1-0.1,25.6-0.7,35.2-2.8c-0.6-0.5-0.9-0.7-0.9-0.7c-9.5,2.2-28.4,2.7-35.6,2.8c-0.3,0-0.6,0.1-0.9,0.2
		c-0.3,0.2-0.5,0.4-0.6,0.6c-0.2,0.3-0.2,0.6-0.3,0.9c0,0.3,0,0.6,0.2,0.9l9.3,19.2c0.4,0.8,0.9,1.5,1.6,2.1s1.4,1,2.2,1.3
		C125,90.5,124.1,89.6,123.6,88.5z"/>
	<path class="st6" d="M126.5,140.4h-4v1.2h4V140.4z"/>
	<path class="st7" d="M126.5,140.4h-4v1.2h4V140.4z"/>
	<path class="st6" d="M44.9,128.2l-4.9,0.8c0,0.2,0.1,0.3,0.1,0.5c0.1,0.2,5.5-0.2,5.5-0.2l-0.5-0.1L44.9,128.2z"/>
	<path class="st7" d="M44.9,128.2l-4.9,0.8c0,0.2,0.1,0.3,0.1,0.5c0.1,0.2,5.5-0.2,5.5-0.2l-0.5-0.1L44.9,128.2z"/>
	<path class="st2" d="M26.3,140.3c-4.3,0-9.5-5.9-9.5-13.1c0-4.9,0.8-9.5,2.8-11.9c-2.5,2-3.6,7.1-3.6,12.7c0,7.2,5.2,13.1,9.5,13.1
		c1.5,0,2.7-0.7,3.6-1.8C28.3,140,27.3,140.3,26.3,140.3z"/>
	<path class="st2" d="M141.5,157.8c-3.9,0-8.5-7-8.5-15.7c0-5.9,0.7-11.4,2.5-14.2c-2.2,2.4-3.2,8.5-3.2,15.2
		c0,8.7,4.6,15.7,8.5,15.7c1.3,0,2.4-0.8,3.3-2.2C143.3,157.4,142.5,157.8,141.5,157.8z"/>
	<path class="st2" d="M187.7,124.1c2.5-2.5,0.6-8.5-4.3-13.4c-4.9-4.9-10.9-6.8-13.4-4.3c-2.5,2.5-0.6,8.5,4.3,13.4
		C179.2,124.7,185.2,126.6,187.7,124.1z"/>
	<path class="st12" d="M187.9,123.9c2.5-2.5,0.6-8.5-4.3-13.4s-10.9-6.8-13.4-4.3c-2.5,2.5-0.6,8.5,4.3,13.4
		C179.4,124.5,185.4,126.4,187.9,123.9z"/>
	<path class="st2" d="M187.2,122.4c1.8-1.8,0-6.7-4.2-10.8s-9-6-10.8-4.2c-1.8,1.8,0,6.7,4.2,10.8
		C180.5,122.3,185.4,124.2,187.2,122.4z"/>
	<path class="st13" d="M187.2,122.2c1.8-1.8,0-6.7-4.2-10.8c-4.1-4.1-9-6-10.8-4.2c-1.8,1.8,0,6.7,4.2,10.8
		C180.5,122.1,185.4,124,187.2,122.2z"/>
	<g class="st14">
		
			<linearGradient id="SVGID_1_" gradientUnits="userSpaceOnUse" x1="4465.9458" y1="87.1235" x2="4651.5205" y2="87.1235" gradientTransform="matrix(1 0 0 -1 0 177.6669)">
			<stop  offset="0" style="stop-color:#808080;stop-opacity:0.25"/>
			<stop  offset="0.54" style="stop-color:#808080;stop-opacity:0.12"/>
			<stop  offset="1" style="stop-color:#808080;stop-opacity:0.1"/>
		</linearGradient>
		<path class="st15" d="M144.1,95.9c-0.1,0.2-0.8,0.6-1.7,1.1c-0.1-0.6-0.1-1.1-0.2-1.3c-0.1-0.6,1.1-3,1.1-3s2.3-3,2.2-3.5
			c-0.1-0.5,0.9-1.8,0.9-1.8l2.1-3.3c-0.1,0.3-0.2,0.5-0.1,0.8c0,0.3,0.2,0.5,0.3,0.7c0.6,0.8,0.1,2.4,0.1,2.4l0.1,2v0.2
			c-0.1,0.1-0.4,0.4-1.1,1c-0.7,0.6-0.6,0.8-0.5,0.8c-0.2,0.3,0,0.3,0,0.3c0.1,0,0.1,0,0.2,0l-0.2,0.2
			C146.1,93.8,144.2,95.6,144.1,95.9z"/>
	</g>
	<path class="st2" d="M100.3,160l-0.2-0.1L100.3,160z"/>
	<path class="st2" d="M100.5,160l-0.1,0L100.5,160z"/>
	<path class="st16" d="M134.5,148.6c0,0.3,0,0.6,0,0.8c0,0.3,0.1,0.6,0.3,0.9l0,0c0.1-0.6,0.1-1.2,0.1-1.8
		C135,148.6,134.8,148.6,134.5,148.6z"/>
</g>
</svg>
